<svg width="667" height="375" viewBox="0 0 667 375" fill="none" xmlns="http://www.w3.org/2000/svg">
<g filter="url(#filter0_f_300_1440)">
<path d="M53 347H614L664 372H3L53 347Z" fill="black" fill-opacity="0.15"/>
</g>
<mask id="path-2-outside-1_300_1440" maskUnits="userSpaceOnUse" x="52" y="34" width="563" height="305" fill="black">
<rect fill="white" x="52" y="34" width="563" height="305"/>
<path d="M53 34H614V338H53V34Z"/>
</mask>
<path d="M614 338V338.5H614.5V338H614ZM53 338H52.5V338.5H53V338ZM613.5 34V338H614.5V34H613.5ZM614 337.5H53V338.5H614V337.5ZM53.5 338V34H52.5V338H53.5Z" fill="#D4D4D8" mask="url(#path-2-outside-1_300_1440)"/>
<g filter="url(#filter1_d_300_1440)">
<rect x="255" y="314" width="269" height="20" fill="#F4F4F5"/>
</g>
<rect x="266" y="324" width="207" height="1.2" fill="#A1A1AA"/>
<g filter="url(#filter2_d_300_1440)">
<rect x="579" y="314" width="20" height="20" fill="#F4F4F5"/>
</g>
<path d="M592.927 320.074C592.962 320.109 592.986 320.154 592.996 320.203C593.006 320.252 593.001 320.303 592.983 320.349L590.018 327.76C589.992 327.825 589.948 327.882 589.892 327.924C589.836 327.966 589.769 327.992 589.699 327.998C589.629 328.005 589.558 327.992 589.495 327.961C589.432 327.93 589.379 327.882 589.341 327.823L587.722 325.278L585.177 323.659C585.118 323.622 585.07 323.568 585.039 323.505C585.008 323.442 584.995 323.371 585.002 323.301C585.008 323.231 585.034 323.164 585.076 323.108C585.118 323.052 585.175 323.008 585.241 322.982L592.651 320.018C592.698 320 592.748 319.995 592.797 320.005C592.846 320.015 592.891 320.039 592.927 320.074V320.074ZM588.23 325.13L589.637 327.34L592.048 321.312L588.23 325.13ZM591.688 320.952L585.66 323.363L587.871 324.769L591.688 320.952Z" fill="#52525B"/>
<g filter="url(#filter3_d_300_1440)">
<rect x="554" y="314" width="20" height="20" fill="#F4F4F5"/>
</g>
<path d="M564 327.5C563.072 327.5 562.182 327.131 561.525 326.475C560.869 325.818 560.5 324.928 560.5 324C560.5 323.072 560.869 322.182 561.525 321.525C562.182 320.869 563.072 320.5 564 320.5C564.928 320.5 565.818 320.869 566.475 321.525C567.131 322.182 567.5 323.072 567.5 324C567.5 324.928 567.131 325.818 566.475 326.475C565.818 327.131 564.928 327.5 564 327.5ZM564 328C565.061 328 566.078 327.579 566.828 326.828C567.579 326.078 568 325.061 568 324C568 322.939 567.579 321.922 566.828 321.172C566.078 320.421 565.061 320 564 320C562.939 320 561.922 320.421 561.172 321.172C560.421 321.922 560 322.939 560 324C560 325.061 560.421 326.078 561.172 326.828C561.922 327.579 562.939 328 564 328Z" fill="#52525B"/>
<path d="M562.142 324.783C562.2 324.75 562.268 324.741 562.332 324.759C562.396 324.776 562.451 324.818 562.484 324.875C562.638 325.141 562.859 325.362 563.125 325.516C563.391 325.669 563.693 325.75 564 325.75C564.307 325.75 564.609 325.669 564.875 325.516C565.141 325.362 565.362 325.141 565.516 324.875C565.532 324.846 565.554 324.821 565.58 324.801C565.606 324.781 565.636 324.766 565.668 324.757C565.7 324.749 565.733 324.746 565.766 324.751C565.798 324.755 565.83 324.766 565.858 324.782C565.887 324.799 565.912 324.821 565.932 324.847C565.952 324.873 565.967 324.903 565.975 324.935C565.983 324.967 565.985 325 565.981 325.032C565.977 325.065 565.966 325.097 565.949 325.125C565.752 325.467 565.467 325.751 565.125 325.949C564.783 326.146 564.395 326.25 564 326.25C563.605 326.25 563.217 326.146 562.875 325.949C562.533 325.751 562.248 325.467 562.051 325.125C562.018 325.068 562.009 324.999 562.026 324.935C562.043 324.871 562.085 324.817 562.142 324.783ZM563.5 323.25C563.5 323.664 563.276 324 563 324C562.724 324 562.5 323.664 562.5 323.25C562.5 322.836 562.724 322.5 563 322.5C563.276 322.5 563.5 322.836 563.5 323.25ZM565.5 323.25C565.5 323.664 565.276 324 565 324C564.724 324 564.5 323.664 564.5 323.25C564.5 322.836 564.724 322.5 565 322.5C565.276 322.5 565.5 322.836 565.5 323.25Z" fill="#52525B"/>
<g filter="url(#filter4_d_300_1440)">
<rect x="529" y="314" width="20" height="20" fill="#F4F4F5"/>
</g>
<path d="M537 321.333C537 320.98 537.14 320.641 537.391 320.391C537.641 320.14 537.98 320 538.333 320C538.687 320 539.026 320.14 539.276 320.391C539.526 320.641 539.667 320.98 539.667 321.333V326.133C539.667 326.346 539.582 326.549 539.432 326.699C539.282 326.849 539.079 326.933 538.867 326.933C538.654 326.933 538.451 326.849 538.301 326.699C538.151 326.549 538.067 326.346 538.067 326.133V322.4C538.067 322.329 538.095 322.261 538.145 322.211C538.195 322.161 538.263 322.133 538.333 322.133C538.404 322.133 538.472 322.161 538.522 322.211C538.572 322.261 538.6 322.329 538.6 322.4V326.133C538.6 326.204 538.628 326.272 538.678 326.322C538.728 326.372 538.796 326.4 538.867 326.4C538.937 326.4 539.005 326.372 539.055 326.322C539.105 326.272 539.133 326.204 539.133 326.133V321.333C539.133 321.228 539.113 321.124 539.072 321.027C539.032 320.93 538.973 320.842 538.899 320.768C538.825 320.693 538.737 320.634 538.639 320.594C538.542 320.554 538.438 320.533 538.333 320.533C538.228 320.533 538.124 320.554 538.027 320.594C537.93 320.634 537.842 320.693 537.768 320.768C537.693 320.842 537.634 320.93 537.594 321.027C537.554 321.124 537.533 321.228 537.533 321.333V326.133C537.533 326.487 537.674 326.826 537.924 327.076C538.174 327.326 538.513 327.467 538.867 327.467C539.22 327.467 539.559 327.326 539.809 327.076C540.06 326.826 540.2 326.487 540.2 326.133V322.4C540.2 322.329 540.228 322.261 540.278 322.211C540.328 322.161 540.396 322.133 540.467 322.133C540.537 322.133 540.605 322.161 540.655 322.211C540.705 322.261 540.733 322.329 540.733 322.4V326.133C540.733 326.628 540.537 327.103 540.187 327.453C539.837 327.803 539.362 328 538.867 328C538.372 328 537.897 327.803 537.547 327.453C537.197 327.103 537 326.628 537 326.133V321.333Z" fill="#52525B"/>
<path d="M53 34H83V338H53V34Z" fill="#2DD4BF"/>
<path d="M74 157C74 157 74.8333 157 74.8333 156.167C74.8333 155.333 74 152.833 70.6667 152.833C67.3333 152.833 66.5 155.333 66.5 156.167C66.5 157 67.3333 157 67.3333 157H74ZM67.3517 156.167C67.3455 156.166 67.3394 156.165 67.3333 156.163C67.3342 155.943 67.4725 155.305 67.9667 154.73C68.4267 154.191 69.235 153.667 70.6667 153.667C72.0975 153.667 72.9058 154.192 73.3667 154.73C73.8608 155.305 73.9983 155.944 74 156.163L73.9933 156.165C73.9895 156.166 73.9856 156.166 73.9817 156.167H67.3517ZM70.6667 151.167C71.1087 151.167 71.5326 150.991 71.8452 150.679C72.1577 150.366 72.3333 149.942 72.3333 149.5C72.3333 149.058 72.1577 148.634 71.8452 148.321C71.5326 148.009 71.1087 147.833 70.6667 147.833C70.2246 147.833 69.8007 148.009 69.4882 148.321C69.1756 148.634 69 149.058 69 149.5C69 149.942 69.1756 150.366 69.4882 150.679C69.8007 150.991 70.2246 151.167 70.6667 151.167ZM73.1667 149.5C73.1667 149.828 73.102 150.153 72.9764 150.457C72.8507 150.76 72.6666 151.036 72.4344 151.268C72.2023 151.5 71.9267 151.684 71.6234 151.81C71.3201 151.935 70.995 152 70.6667 152C70.3384 152 70.0133 151.935 69.71 151.81C69.4067 151.684 69.1311 151.5 68.8989 151.268C68.6668 151.036 68.4826 150.76 68.357 150.457C68.2313 150.153 68.1667 149.828 68.1667 149.5C68.1667 148.837 68.4301 148.201 68.8989 147.732C69.3677 147.263 70.0036 147 70.6667 147C71.3297 147 71.9656 147.263 72.4344 147.732C72.9033 148.201 73.1667 148.837 73.1667 149.5ZM67.28 153.067C66.9467 152.962 66.603 152.893 66.255 152.861C66.0595 152.842 65.8631 152.833 65.6667 152.833C62.3333 152.833 61.5 155.333 61.5 156.167C61.5 156.722 61.7775 157 62.3333 157H65.8467C65.7231 156.74 65.6615 156.455 65.6667 156.167C65.6667 155.325 65.9808 154.465 66.575 153.747C66.7775 153.502 67.0133 153.272 67.28 153.067ZM65.6 153.667C65.1068 154.408 64.8404 155.277 64.8333 156.167H62.3333C62.3333 155.95 62.47 155.308 62.9667 154.73C63.4208 154.2 64.21 153.683 65.6 153.668V153.667ZM62.75 149.917C62.75 149.254 63.0134 148.618 63.4822 148.149C63.9511 147.68 64.587 147.417 65.25 147.417C65.913 147.417 66.5489 147.68 67.0178 148.149C67.4866 148.618 67.75 149.254 67.75 149.917C67.75 150.58 67.4866 151.216 67.0178 151.684C66.5489 152.153 65.913 152.417 65.25 152.417C64.587 152.417 63.9511 152.153 63.4822 151.684C63.0134 151.216 62.75 150.58 62.75 149.917ZM65.25 148.25C64.808 148.25 64.3841 148.426 64.0715 148.738C63.7589 149.051 63.5833 149.475 63.5833 149.917C63.5833 150.359 63.7589 150.783 64.0715 151.095C64.3841 151.408 64.808 151.583 65.25 151.583C65.692 151.583 66.116 151.408 66.4285 151.095C66.7411 150.783 66.9167 150.359 66.9167 149.917C66.9167 149.475 66.7411 149.051 66.4285 148.738C66.116 148.426 65.692 148.25 65.25 148.25Z" fill="#E4E4E7"/>
<path d="M66.5 192C67.163 192 67.7989 191.737 68.2678 191.268C68.7366 190.799 69 190.163 69 189.5C69 188.837 68.7366 188.201 68.2678 187.732C67.7989 187.263 67.163 187 66.5 187C65.837 187 65.2011 187.263 64.7322 187.732C64.2634 188.201 64 188.837 64 189.5C64 190.163 64.2634 190.799 64.7322 191.268C65.2011 191.737 65.837 192 66.5 192ZM62.3333 197C62.3333 197 61.5 197 61.5 196.167C61.5 195.333 62.3333 192.833 66.5 192.833C70.6667 192.833 71.5 195.333 71.5 196.167C71.5 197 70.6667 197 70.6667 197H62.3333ZM70.6667 188.25C70.6667 188.139 70.7106 188.034 70.7887 187.955C70.8669 187.877 70.9728 187.833 71.0833 187.833H74.4167C74.5272 187.833 74.6332 187.877 74.7113 187.955C74.7894 188.034 74.8333 188.139 74.8333 188.25C74.8333 188.361 74.7894 188.466 74.7113 188.545C74.6332 188.623 74.5272 188.667 74.4167 188.667H71.0833C70.9728 188.667 70.8669 188.623 70.7887 188.545C70.7106 188.466 70.6667 188.361 70.6667 188.25ZM71.0833 190.333C70.9728 190.333 70.8669 190.377 70.7887 190.455C70.7106 190.534 70.6667 190.639 70.6667 190.75C70.6667 190.861 70.7106 190.966 70.7887 191.045C70.8669 191.123 70.9728 191.167 71.0833 191.167H74.4167C74.5272 191.167 74.6332 191.123 74.7113 191.045C74.7894 190.966 74.8333 190.861 74.8333 190.75C74.8333 190.639 74.7894 190.534 74.7113 190.455C74.6332 190.377 74.5272 190.333 74.4167 190.333H71.0833ZM72.75 192.833C72.6395 192.833 72.5335 192.877 72.4554 192.955C72.3772 193.034 72.3333 193.139 72.3333 193.25C72.3333 193.361 72.3772 193.466 72.4554 193.545C72.5335 193.623 72.6395 193.667 72.75 193.667H74.4167C74.5272 193.667 74.6332 193.623 74.7113 193.545C74.7894 193.466 74.8333 193.361 74.8333 193.25C74.8333 193.139 74.7894 193.034 74.7113 192.955C74.6332 192.877 74.5272 192.833 74.4167 192.833H72.75ZM72.75 195.333C72.6395 195.333 72.5335 195.377 72.4554 195.455C72.3772 195.534 72.3333 195.639 72.3333 195.75C72.3333 195.861 72.3772 195.966 72.4554 196.045C72.5335 196.123 72.6395 196.167 72.75 196.167H74.4167C74.5272 196.167 74.6332 196.123 74.7113 196.045C74.7894 195.966 74.8333 195.861 74.8333 195.75C74.8333 195.639 74.7894 195.534 74.7113 195.455C74.6332 195.377 74.5272 195.333 74.4167 195.333H72.75Z" fill="#E4E4E7"/>
<rect x="58" y="102" width="20" height="20" fill="#14B8A6"/>
<path d="M72.1546 107.654C72.328 107.654 72.4943 107.723 72.617 107.845C72.7396 107.968 72.8085 108.134 72.8085 108.308V113.539C72.8085 113.712 72.7396 113.879 72.617 114.001C72.4943 114.124 72.328 114.193 72.1546 114.193H65.8863C65.5395 114.193 65.2069 114.331 64.9617 114.576L63.6539 115.884V108.308C63.6539 108.134 63.7228 107.968 63.8454 107.845C63.9681 107.723 64.1344 107.654 64.3078 107.654H72.1546ZM64.3078 107C63.9609 107 63.6283 107.138 63.383 107.383C63.1378 107.628 63 107.961 63 108.308V116.673C63 116.738 63.0192 116.801 63.0552 116.855C63.0912 116.909 63.1423 116.95 63.2021 116.975C63.2618 117 63.3276 117.006 63.3911 116.994C63.4545 116.981 63.5127 116.95 63.5584 116.904L65.424 115.038C65.5466 114.916 65.7129 114.847 65.8863 114.847H72.1546C72.5014 114.847 72.8341 114.709 73.0793 114.464C73.3246 114.218 73.4624 113.886 73.4624 113.539V108.308C73.4624 107.961 73.3246 107.628 73.0793 107.383C72.8341 107.138 72.5014 107 72.1546 107H64.3078Z" fill="#E4E4E7"/>
<path d="M68 232C68.663 232 69.2989 231.737 69.7678 231.268C70.2366 230.799 70.5 230.163 70.5 229.5C70.5 228.837 70.2366 228.201 69.7678 227.732C69.2989 227.263 68.663 227 68 227C67.337 227 66.7011 227.263 66.2322 227.732C65.7634 228.201 65.5 228.837 65.5 229.5C65.5 230.163 65.7634 230.799 66.2322 231.268C66.7011 231.737 67.337 232 68 232ZM69.6667 229.5C69.6667 229.942 69.4911 230.366 69.1785 230.679C68.866 230.991 68.442 231.167 68 231.167C67.558 231.167 67.1341 230.991 66.8215 230.679C66.5089 230.366 66.3333 229.942 66.3333 229.5C66.3333 229.058 66.5089 228.634 66.8215 228.321C67.1341 228.009 67.558 227.833 68 227.833C68.442 227.833 68.866 228.009 69.1785 228.321C69.4911 228.634 69.6667 229.058 69.6667 229.5Z" fill="#E4E4E7"/>
<path d="M63.8333 237C63.8333 237 63 237 63 236.167C63 235.333 63.8333 232.833 68 232.833C68.7773 232.833 69.4385 232.92 70 233.067L69.6471 233.838C69.1888 233.731 68.645 233.667 68 233.667C66.0917 233.667 65.07 234.233 64.5267 234.777C63.9617 235.342 63.835 235.958 63.8333 236.163H69.5312L69.5 237H63.8333Z" fill="#E4E4E7"/>
<path d="M71.6452 233.295C71.529 232.902 70.971 232.902 70.8548 233.295L70.8267 233.391C70.8094 233.45 70.779 233.504 70.738 233.55C70.6969 233.596 70.6461 233.632 70.5893 233.655C70.5325 233.679 70.4712 233.689 70.4099 233.686C70.3485 233.683 70.2886 233.666 70.2347 233.636L70.1475 233.588C69.7867 233.392 69.3921 233.787 69.5887 234.147L69.6362 234.235C69.7616 234.465 69.6427 234.752 69.3909 234.827L69.2953 234.855C68.9016 234.971 68.9016 235.529 69.2953 235.645L69.3909 235.673C69.4499 235.691 69.5042 235.721 69.5499 235.762C69.5956 235.803 69.6315 235.854 69.655 235.911C69.6786 235.967 69.6891 236.029 69.6858 236.09C69.6826 236.152 69.6656 236.211 69.6362 236.265L69.5884 236.353C69.3921 236.713 69.7867 237.108 70.1472 236.911L70.2347 236.864C70.2886 236.834 70.3485 236.817 70.4099 236.814C70.4712 236.811 70.5325 236.821 70.5893 236.845C70.6461 236.868 70.6969 236.904 70.738 236.95C70.779 236.996 70.8094 237.05 70.8267 237.109L70.8548 237.205C70.971 237.598 71.529 237.598 71.6452 237.205L71.6733 237.109C71.6906 237.05 71.721 236.996 71.762 236.95C71.8031 236.904 71.8539 236.868 71.9107 236.845C71.9675 236.821 72.0288 236.811 72.0901 236.814C72.1515 236.817 72.2114 236.834 72.2653 236.864L72.3525 236.912C72.7133 237.108 73.1079 236.713 72.9113 236.353L72.8638 236.265C72.8344 236.211 72.8174 236.152 72.8142 236.09C72.8109 236.029 72.8214 235.967 72.845 235.911C72.8685 235.854 72.9044 235.803 72.9501 235.762C72.9958 235.721 73.0501 235.691 73.1091 235.673L73.2047 235.645C73.5984 235.529 73.5984 234.971 73.2047 234.855L73.1091 234.827C73.0501 234.809 72.9958 234.779 72.9501 234.738C72.9044 234.697 72.8685 234.646 72.845 234.589C72.8214 234.533 72.8109 234.471 72.8142 234.41C72.8174 234.348 72.8344 234.289 72.8638 234.235L72.9116 234.147C73.1079 233.787 72.7133 233.392 72.3528 233.589L72.2653 233.636C72.2114 233.666 72.1515 233.683 72.0901 233.686C72.0288 233.689 71.9675 233.679 71.9107 233.655C71.8539 233.632 71.8031 233.596 71.762 233.55C71.721 233.504 71.6906 233.45 71.6733 233.391L71.6452 233.295ZM71.25 236.074C71.0314 236.074 70.8218 235.987 70.6673 235.833C70.5128 235.678 70.4259 235.469 70.4259 235.25C70.4259 235.031 70.5128 234.822 70.6673 234.667C70.8218 234.513 71.0314 234.426 71.25 234.426C71.4685 234.426 71.678 234.513 71.8325 234.667C71.987 234.822 72.0738 235.031 72.0738 235.25C72.0738 235.468 71.987 235.678 71.8325 235.832C71.678 235.987 71.4685 236.074 71.25 236.074V236.074Z" fill="#E4E4E7"/>
<path d="M68 322C67.2044 322 66.4413 321.684 65.8787 321.121C65.3161 320.559 65 319.796 65 319C65 318.204 65.3161 317.441 65.8787 316.879C66.4413 316.316 67.2044 316 68 316C68.7956 316 69.5587 316.316 70.1213 316.879C70.6839 317.441 71 318.204 71 319C71 319.796 70.6839 320.559 70.1213 321.121C69.5587 321.684 68.7956 322 68 322ZM68 323C69.0609 323 70.0783 322.579 70.8284 321.828C71.5786 321.078 72 320.061 72 319C72 317.939 71.5786 316.922 70.8284 316.172C70.0783 315.421 69.0609 315 68 315C66.9391 315 65.9217 315.421 65.1716 316.172C64.4214 316.922 64 317.939 64 319C64 320.061 64.4214 321.078 65.1716 321.828C65.9217 322.579 66.9391 323 68 323ZM68 311C68.1326 311 68.2598 311.053 68.3536 311.146C68.4473 311.24 68.5 311.367 68.5 311.5V313.5C68.5 313.633 68.4473 313.76 68.3536 313.854C68.2598 313.947 68.1326 314 68 314C67.8674 314 67.7402 313.947 67.6464 313.854C67.5527 313.76 67.5 313.633 67.5 313.5V311.5C67.5 311.367 67.5527 311.24 67.6464 311.146C67.7402 311.053 67.8674 311 68 311ZM68 324C68.1326 324 68.2598 324.053 68.3536 324.146C68.4473 324.24 68.5 324.367 68.5 324.5V326.5C68.5 326.633 68.4473 326.76 68.3536 326.854C68.2598 326.947 68.1326 327 68 327C67.8674 327 67.7402 326.947 67.6464 326.854C67.5527 326.76 67.5 326.633 67.5 326.5V324.5C67.5 324.367 67.5527 324.24 67.6464 324.146C67.7402 324.053 67.8674 324 68 324ZM76 319C76 319.133 75.9473 319.26 75.8536 319.354C75.7598 319.447 75.6326 319.5 75.5 319.5H73.5C73.3674 319.5 73.2402 319.447 73.1464 319.354C73.0527 319.26 73 319.133 73 319C73 318.867 73.0527 318.74 73.1464 318.646C73.2402 318.553 73.3674 318.5 73.5 318.5H75.5C75.6326 318.5 75.7598 318.553 75.8536 318.646C75.9473 318.74 76 318.867 76 319ZM63 319C63 319.133 62.9473 319.26 62.8536 319.354C62.7598 319.447 62.6326 319.5 62.5 319.5H60.5C60.3674 319.5 60.2402 319.447 60.1464 319.354C60.0527 319.26 60 319.133 60 319C60 318.867 60.0527 318.74 60.1464 318.646C60.2402 318.553 60.3674 318.5 60.5 318.5H62.5C62.6326 318.5 62.7598 318.553 62.8536 318.646C62.9473 318.74 63 318.867 63 319ZM73.657 313.343C73.7507 313.437 73.8034 313.564 73.8034 313.697C73.8034 313.829 73.7507 313.956 73.657 314.05L72.243 315.465C72.1965 315.511 72.1413 315.548 72.0806 315.573C72.0199 315.598 71.9548 315.611 71.8891 315.611C71.7565 315.611 71.6293 315.558 71.5355 315.464C71.4891 315.418 71.4523 315.363 71.4272 315.302C71.4021 315.241 71.3892 315.176 71.3892 315.111C71.3893 314.978 71.4421 314.851 71.536 314.757L72.95 313.343C73.0438 313.249 73.1709 313.197 73.3035 313.197C73.4361 313.197 73.5632 313.249 73.657 313.343ZM64.464 322.536C64.5577 322.63 64.6104 322.757 64.6104 322.889C64.6104 323.022 64.5577 323.149 64.464 323.243L63.05 324.657C62.9557 324.748 62.8294 324.798 62.6983 324.797C62.5672 324.796 62.4418 324.744 62.3491 324.651C62.2564 324.558 62.2038 324.433 62.2027 324.302C62.2015 324.171 62.2519 324.044 62.343 323.95L63.757 322.536C63.8508 322.442 63.9779 322.39 64.1105 322.39C64.2431 322.39 64.3702 322.442 64.464 322.536ZM73.657 324.657C73.5632 324.751 73.4361 324.803 73.3035 324.803C73.1709 324.803 73.0438 324.751 72.95 324.657L71.536 323.243C71.4449 323.149 71.3945 323.022 71.3957 322.891C71.3968 322.76 71.4494 322.635 71.5421 322.542C71.6348 322.449 71.7602 322.397 71.8913 322.396C72.0224 322.395 72.1487 322.445 72.243 322.536L73.657 323.95C73.7507 324.044 73.8034 324.171 73.8034 324.304C73.8034 324.436 73.7507 324.563 73.657 324.657ZM64.464 315.465C64.3702 315.559 64.2431 315.611 64.1105 315.611C63.9779 315.611 63.8508 315.559 63.757 315.465L62.343 314.05C62.2952 314.004 62.2572 313.949 62.2309 313.888C62.2047 313.827 62.191 313.761 62.1904 313.695C62.1898 313.628 62.2024 313.562 62.2276 313.501C62.2527 313.44 62.2899 313.384 62.3368 313.337C62.3837 313.29 62.4396 313.253 62.501 313.228C62.5625 313.202 62.6283 313.19 62.6947 313.19C62.7611 313.191 62.8267 313.205 62.8877 313.231C62.9487 313.257 63.0039 313.295 63.05 313.343L64.464 314.757C64.5106 314.803 64.5475 314.859 64.5727 314.919C64.5979 314.98 64.6109 315.045 64.6109 315.111C64.6109 315.177 64.5979 315.242 64.5727 315.303C64.5475 315.363 64.5106 315.419 64.464 315.465Z" fill="#E4E4E7"/>
<path fill-rule="evenodd" clip-rule="evenodd" d="M76.501 46.4698C76.2836 46.2566 75.9887 46.1368 75.6812 46.1368H60.3188C60.0113 46.1368 59.7164 46.2566 59.499 46.4698C59.2816 46.683 59.1594 46.9722 59.1594 47.2737V58.4442L61.4782 56.1705C61.913 55.7441 62.5027 55.5045 63.1177 55.5043H75.6812C75.9887 55.5043 76.2836 55.3846 76.501 55.1714C76.7184 54.9582 76.8406 54.669 76.8406 54.3675V47.2737C76.8406 46.9722 76.7184 46.683 76.501 46.4698ZM58.6792 45.6659C59.114 45.2395 59.7038 45 60.3188 45H75.6812C76.2962 45 76.886 45.2395 77.3208 45.6659C77.7557 46.0923 78 46.6706 78 47.2737V54.3675C78 54.9705 77.7557 55.5488 77.3208 55.9752C76.886 56.4016 76.2962 56.6411 75.6812 56.6411H63.1177C62.8102 56.6412 62.5153 56.761 62.2979 56.9742L58.9901 60.2176C58.9091 60.2973 58.8059 60.3515 58.6934 60.3736C58.5809 60.3956 58.4643 60.3845 58.3583 60.3415C58.2523 60.2986 58.1616 60.2257 58.0979 60.1322C58.0341 60.0387 58 59.9288 58 59.8163V47.2737C58 46.6706 58.2443 46.0923 58.6792 45.6659ZM61.3846 49C61.1297 49 60.9231 49.2066 60.9231 49.4615V52.2308C60.9231 52.4857 61.1297 52.6923 61.3846 52.6923H64.1538C64.4087 52.6923 64.6154 52.4857 64.6154 52.2308V49.4615C64.6154 49.2066 64.4087 49 64.1538 49H61.3846ZM66.6154 49C66.3605 49 66.1538 49.2066 66.1538 49.4615V52.2308C66.1538 52.4857 66.3605 52.6923 66.6154 52.6923H69.3846C69.6395 52.6923 69.8462 52.4857 69.8462 52.2308V49.4615C69.8462 49.2066 69.6395 49 69.3846 49H66.6154ZM71.3846 49.4615C71.3846 49.2066 71.5913 49 71.8462 49H74.6154C74.8703 49 75.0769 49.2066 75.0769 49.4615V52.2308C75.0769 52.4857 74.8703 52.6923 74.6154 52.6923H71.8462C71.5913 52.6923 71.3846 52.4857 71.3846 52.2308V49.4615Z" fill="#E4E4E7"/>
<mask id="path-21-inside-2_300_1440" fill="white">
<path d="M83 34H246V338H83V34Z"/>
</mask>
<path d="M245.5 34V338H246.5V34H245.5Z" fill="#D4D4D8" mask="url(#path-21-inside-2_300_1440)"/>
<g filter="url(#filter5_d_300_1440)">
<rect x="90" y="71" width="150" height="15" fill="#F1F5F9"/>
</g>
<rect x="96" y="78" width="93" height="1" fill="#A1A1AA"/>
<path d="M111.412 256H108.183C99.2452 256 92 263.245 92 272.183V275.412C92 284.349 99.2452 291.594 108.183 291.594H111.412C120.349 291.594 127.594 284.349 127.594 275.412V272.183C127.594 263.245 120.349 256 111.412 256Z" fill="white"/>
<path d="M96.4028 285.997C96.4028 285.997 102.245 283.601 107.88 283.564C113.515 283.527 122.783 286.432 122.783 286.432C122.783 286.432 117.636 292.646 107.88 291.594C99.7435 290.718 96.4028 285.997 96.4028 285.997Z" fill="#455A64"/>
<path d="M101.294 261.922C99.9665 262.692 99.6479 264.434 99.4991 265.964C99.3504 267.493 99.1274 269.219 97.9058 270.117C96.8808 270.855 95.2503 270.956 94.8201 272.146C94.7127 272.429 94.6975 272.739 94.7764 273.031C94.8554 273.324 95.0246 273.584 95.26 273.774C95.4954 273.965 95.7849 274.076 96.0874 274.093C96.3898 274.11 96.6898 274.03 96.9445 273.866C96.6721 274.312 96.5466 274.833 96.5856 275.354C96.6247 275.875 96.8264 276.371 97.1623 276.771C97.8952 277.515 99.3664 277.414 99.8178 276.474C99.7418 276.632 99.6995 276.805 99.6935 276.98C99.6875 277.155 99.7179 277.33 99.7829 277.493C99.8479 277.656 99.9459 277.804 100.071 277.927C100.196 278.051 100.345 278.147 100.509 278.209C100.673 278.272 100.848 278.3 101.024 278.291C101.199 278.283 101.371 278.238 101.528 278.16C101.685 278.082 101.824 277.972 101.937 277.837C102.049 277.702 102.132 277.546 102.181 277.377" fill="#263238"/>
<path d="M117.126 275.321C117.162 275.523 117.239 275.714 117.35 275.885C117.462 276.057 117.607 276.203 117.777 276.317C117.947 276.431 118.138 276.51 118.338 276.548C118.539 276.587 118.745 276.585 118.945 276.542C119.145 276.499 119.334 276.417 119.502 276.3C119.669 276.182 119.811 276.032 119.919 275.859C120.028 275.686 120.1 275.492 120.132 275.291C120.164 275.089 120.155 274.882 120.106 274.684C119.952 274.063 119.41 273.537 119.468 272.9C119.537 272.129 120.408 271.736 121.157 271.535C121.906 271.333 122.788 271.051 123 270.308C123.213 269.564 122.66 268.9 122.204 268.311C121.747 267.721 121.354 266.861 121.811 266.271C122.044 265.974 122.443 265.847 122.729 265.597C123.018 265.287 123.178 264.879 123.178 264.455C123.178 264.031 123.018 263.624 122.729 263.313C122.428 263.015 122.068 262.782 121.672 262.63C121.276 262.478 120.853 262.411 120.43 262.432C119.584 262.476 118.742 262.569 117.907 262.708C116.516 262.846 115.111 262.694 113.781 262.26C112.452 261.827 111.227 261.122 110.185 260.19" fill="#263238"/>
<path d="M101.3 267.891L101.894 285.189C101.916 285.914 102.082 286.627 102.381 287.287C102.68 287.947 103.107 288.542 103.638 289.035C104.168 289.529 104.792 289.913 105.471 290.165C106.151 290.416 106.874 290.53 107.598 290.5C108.969 290.444 110.269 289.877 111.243 288.911C112.216 287.945 112.794 286.65 112.862 285.28C112.931 283.761 112.989 282.507 112.989 282.507C112.989 282.507 117.371 281.976 117.594 277.648C117.705 275.523 117.594 271.195 117.419 267.259C117.337 265.218 116.488 263.282 115.042 261.839C113.596 260.395 111.658 259.551 109.617 259.474H109.197C108.121 259.494 107.061 259.729 106.078 260.166C105.094 260.603 104.209 261.232 103.472 262.016C102.736 262.801 102.165 263.725 101.792 264.734C101.418 265.743 101.251 266.817 101.3 267.891Z" fill="#EB996E"/>
<path d="M113 282.428C110.988 282.384 109.034 281.744 107.386 280.59C107.386 280.59 108.602 283.777 112.962 283.554L113 282.428Z" fill="#AA6550"/>
<path d="M115.57 270.117C115.566 270.28 115.498 270.434 115.381 270.548C115.264 270.661 115.107 270.724 114.944 270.722C114.864 270.724 114.785 270.711 114.711 270.682C114.637 270.654 114.57 270.611 114.513 270.556C114.455 270.501 114.409 270.435 114.378 270.363C114.346 270.29 114.329 270.212 114.327 270.133C114.332 269.971 114.399 269.818 114.515 269.705C114.632 269.593 114.787 269.531 114.949 269.532C115.028 269.529 115.108 269.541 115.182 269.569C115.257 269.597 115.325 269.639 115.383 269.693C115.441 269.748 115.487 269.813 115.519 269.886C115.552 269.959 115.569 270.037 115.57 270.117Z" fill="#263238"/>
<path d="M116.399 269.357C116.314 269.432 115.868 269.065 115.188 269.044C114.508 269.023 114.019 269.331 113.945 269.246C113.871 269.161 113.998 269.065 114.216 268.922C114.513 268.73 114.862 268.637 115.214 268.656C115.563 268.665 115.899 268.788 116.17 269.007C116.372 269.161 116.436 269.309 116.399 269.357Z" fill="#263238"/>
<path d="M109.123 269.936C109.116 270.098 109.047 270.25 108.93 270.362C108.813 270.474 108.658 270.536 108.496 270.536C108.417 270.54 108.338 270.527 108.263 270.5C108.189 270.472 108.121 270.43 108.064 270.375C108.006 270.321 107.96 270.255 107.929 270.182C107.897 270.11 107.881 270.031 107.88 269.952C107.887 269.792 107.955 269.641 108.071 269.53C108.187 269.419 108.341 269.357 108.501 269.357C108.58 269.354 108.659 269.367 108.733 269.395C108.807 269.422 108.874 269.464 108.932 269.518C108.99 269.572 109.036 269.636 109.069 269.708C109.102 269.78 109.12 269.857 109.123 269.936Z" fill="#263238"/>
<path d="M109.813 269.208C109.733 269.288 109.282 268.922 108.607 268.895C107.933 268.869 107.434 269.187 107.365 269.102C107.296 269.017 107.412 268.922 107.636 268.773C107.934 268.586 108.282 268.493 108.634 268.507C108.981 268.522 109.316 268.644 109.59 268.858C109.792 269.028 109.856 269.177 109.813 269.208Z" fill="#263238"/>
<path d="M112.049 274.27C112.405 274.169 112.773 274.117 113.143 274.116C113.313 274.116 113.478 274.079 113.51 273.962C113.533 273.779 113.5 273.594 113.414 273.431L112.963 272.108C112.537 270.988 112.201 269.835 111.959 268.661C112.477 269.743 112.905 270.866 113.239 272.018C113.387 272.485 113.531 272.926 113.669 273.346C113.769 273.556 113.791 273.795 113.733 274.02C113.705 274.08 113.664 274.132 113.614 274.173C113.563 274.214 113.504 274.244 113.441 274.259C113.345 274.282 113.247 274.292 113.148 274.291C112.782 274.328 112.413 274.321 112.049 274.27Z" fill="#263238"/>
<path d="M110.057 274.668C110.169 274.668 110.142 275.396 110.743 275.932C111.343 276.469 112.118 276.426 112.123 276.527C112.129 276.628 111.943 276.66 111.619 276.655C111.192 276.645 110.782 276.485 110.461 276.203C110.154 275.931 109.964 275.55 109.93 275.141C109.919 274.822 110.01 274.668 110.057 274.668Z" fill="#263238"/>
<path d="M110.089 266.595C110.015 266.776 109.351 266.659 108.565 266.723C107.779 266.787 107.131 266.978 107.036 266.808C106.993 266.728 107.11 266.564 107.37 266.399C107.719 266.192 108.112 266.072 108.517 266.048C108.921 266.013 109.328 266.077 109.702 266.234C109.983 266.362 110.148 266.51 110.089 266.595Z" fill="#263238"/>
<path d="M116.229 267.397C116.101 267.546 115.65 267.371 115.092 267.339C114.535 267.307 114.067 267.403 113.966 267.238C113.919 267.158 113.998 267.01 114.211 266.877C114.493 266.716 114.817 266.642 115.141 266.665C115.465 266.688 115.775 266.806 116.032 267.004C116.223 267.169 116.282 267.328 116.229 267.397Z" fill="#263238"/>
<path d="M106.218 263.308C105.504 263.827 105.017 264.601 104.858 265.47V265.56C104.64 266.792 104.619 268.061 104.391 269.278C104.221 270.53 103.636 271.69 102.728 272.57C102.335 272.91 101.666 273.101 101.363 272.698C101.267 272.522 101.221 272.324 101.231 272.124C101.119 269.118 100.407 266.426 100.535 263.287C100.548 262.864 100.662 262.451 100.867 262.082C101.072 261.712 101.362 261.397 101.714 261.162C102.394 260.716 103.212 260.259 103.929 260.631C104.646 261.003 105.522 262.41 106.053 263.011" fill="#263238"/>
<path d="M102.712 269.92C102.638 269.888 99.7541 268.916 99.7329 271.901C99.7116 274.886 102.707 274.286 102.712 274.201C102.718 274.116 102.712 269.92 102.712 269.92Z" fill="#EB996E"/>
<path d="M101.788 273.075C101.788 273.075 101.735 273.112 101.65 273.149C101.589 273.176 101.523 273.19 101.456 273.19C101.389 273.19 101.323 273.176 101.262 273.149C101.071 273.027 100.915 272.856 100.811 272.653C100.708 272.451 100.66 272.224 100.673 271.997C100.666 271.74 100.719 271.486 100.827 271.253C100.855 271.16 100.905 271.074 100.974 271.005C101.042 270.936 101.127 270.884 101.22 270.855C101.28 270.84 101.343 270.846 101.399 270.874C101.454 270.901 101.498 270.947 101.523 271.004C101.565 271.083 101.523 271.142 101.56 271.147C101.597 271.152 101.624 271.099 101.602 270.977C101.587 270.903 101.546 270.837 101.485 270.791C101.404 270.728 101.301 270.699 101.199 270.712C101.079 270.738 100.969 270.794 100.876 270.873C100.783 270.953 100.712 271.054 100.668 271.168C100.541 271.426 100.477 271.71 100.482 271.997C100.465 272.263 100.528 272.527 100.661 272.758C100.794 272.988 100.992 273.174 101.231 273.293C101.311 273.316 101.395 273.321 101.478 273.308C101.56 273.296 101.639 273.265 101.709 273.218C101.783 273.139 101.799 273.075 101.788 273.075Z" fill="#AA6550"/>
<path d="M103.774 261.141C103.084 259.925 105.161 258.295 106.648 257.886C108.135 257.477 110.041 258.273 111.486 258.82C112.399 259.16 113.297 259.622 114.274 259.622C114.925 259.583 115.566 259.445 116.176 259.213C116.79 258.986 117.444 258.885 118.098 258.916C118.425 258.937 118.74 259.046 119.009 259.234C119.278 259.421 119.49 259.679 119.622 259.978C119.679 260.129 119.702 260.29 119.69 260.451C119.679 260.612 119.633 260.768 119.556 260.909C119.479 261.051 119.373 261.174 119.244 261.271C119.115 261.368 118.967 261.436 118.81 261.471C119.021 261.366 119.254 261.314 119.489 261.32C119.725 261.325 119.956 261.387 120.162 261.5C120.368 261.614 120.544 261.776 120.674 261.972C120.804 262.168 120.885 262.393 120.91 262.627C120.934 262.861 120.902 263.098 120.816 263.317C120.729 263.536 120.591 263.73 120.413 263.884C120.235 264.038 120.022 264.147 119.793 264.201C119.564 264.255 119.325 264.253 119.097 264.195C119.532 263.892 120.159 264.445 120.085 264.97C120.012 265.223 119.877 265.453 119.691 265.639C119.505 265.825 119.275 265.961 119.022 266.033C117.716 266.45 116.302 266.372 115.05 265.815C113.786 265.332 112.617 264.609 111.364 264.094C110.11 263.579 108.007 262.666 106.711 263.064C105.755 263.356 105.06 264.466 104.534 264.195C104.288 264.052 104.08 263.852 103.926 263.613C103.772 263.374 103.676 263.102 103.647 262.82C103.597 262.252 103.64 261.679 103.774 261.125" fill="#263238"/>
<path d="M117.27 260.955C117.394 260.915 117.526 260.905 117.655 260.928C117.783 260.95 117.905 261.003 118.008 261.083C118.264 261.253 118.46 261.497 118.571 261.784C118.655 261.972 118.698 262.175 118.698 262.381C118.698 262.587 118.655 262.791 118.571 262.979C118.183 263.834 117.036 264.344 115.878 264.216C114.631 264.026 113.454 263.516 112.463 262.735C111.505 261.975 110.471 261.317 109.378 260.769C108.9 260.554 108.391 260.419 107.869 260.371C107.415 260.343 106.959 260.401 106.526 260.541C105.886 260.727 105.334 261.136 104.969 261.694C104.856 261.912 104.757 262.137 104.672 262.368C104.672 262.368 104.672 262.299 104.672 262.172C104.707 261.986 104.77 261.807 104.858 261.64C105.209 261.027 105.777 260.568 106.451 260.355C106.906 260.195 107.387 260.121 107.869 260.137C108.419 260.179 108.958 260.313 109.463 260.536C110.579 261.076 111.633 261.737 112.607 262.506C113.559 263.259 114.686 263.76 115.884 263.961C116.946 264.094 118.008 263.637 118.38 262.899C118.461 262.735 118.506 262.556 118.515 262.373C118.523 262.19 118.493 262.008 118.428 261.837C118.337 261.571 118.168 261.338 117.944 261.168C117.743 261.036 117.51 260.963 117.27 260.955Z" fill="#455A64"/>
<path d="M109.197 259.128C109.197 259.171 108.799 259.033 108.172 258.99C107.353 258.93 106.534 259.101 105.809 259.484C105.093 259.885 104.502 260.477 104.104 261.194C103.801 261.725 103.711 262.139 103.663 262.129C103.663 261.77 103.755 261.418 103.928 261.104C104.294 260.313 104.904 259.66 105.67 259.244C106.435 258.828 107.315 258.67 108.177 258.794C108.541 258.814 108.892 258.929 109.197 259.128Z" fill="#455A64"/>
<path d="M100.975 266.521C100.944 266.521 100.79 266.24 100.752 265.709C100.715 265.009 100.913 264.317 101.315 263.743C101.727 263.177 102.319 262.767 102.994 262.58C103.264 262.48 103.557 262.459 103.838 262.522C103.838 262.57 103.519 262.591 103.057 262.766C102.447 262.982 101.916 263.379 101.537 263.903C101.157 264.428 100.947 265.056 100.933 265.703C100.933 266.202 101.018 266.51 100.975 266.521Z" fill="#455A64"/>
<rect x="135" y="263" width="103" height="0.8" fill="#A1A1AA"/>
<rect x="135" y="269" width="86" height="0.8" fill="#A1A1AA"/>
<rect x="135" y="277" width="34" height="0.8" fill="#A1A1AA"/>
<rect x="135" y="285" width="34" height="0.8" fill="#A1A1AA"/>
<rect x="173" y="277" width="34" height="0.8" fill="#A1A1AA"/>
<rect x="174" y="285" width="56" height="0.8" fill="#A1A1AA"/>
<path d="M111.412 156H108.183C99.2452 156 92 163.245 92 172.183V175.412C92 184.349 99.2452 191.594 108.183 191.594H111.412C120.349 191.594 127.594 184.349 127.594 175.412V172.183C127.594 163.245 120.349 156 111.412 156Z" fill="white"/>
<path d="M99.5 174.5C99.1954 176.247 100.103 176.577 102 177L117 171.5C118 172 120.104 170.578 119 169.5C120.128 168.838 120.501 168.324 119.5 166.5C120.843 165.671 120.267 164.958 119.5 163.5C120.012 161.856 119.836 160.411 117.5 160.5C117.5 158.5 116.172 157.385 114 158.5C114 157 111.5 155 110 157C109 155.5 105.5 155.5 105 158.5C101.92 157.47 101 159 101.5 160.5C99.5 160 98.0623 161.701 99 164C97.5 164.5 97.15 166.073 98.5 167.5C96.9591 168.792 97.144 169.568 98.5 171C96.9857 172.76 97.2548 173.518 99.5 174.5Z" fill="#27272A"/>
<path d="M96.4028 185.997C96.4028 185.997 102.245 183.601 107.88 183.564C113.515 183.527 122.783 186.432 122.783 186.432C122.783 186.432 117.636 192.646 107.88 191.594C99.7435 190.718 96.4028 185.997 96.4028 185.997Z" fill="#EF4444"/>
<path d="M101.3 167.891L101.894 185.189C101.916 185.914 102.082 186.627 102.381 187.287C102.68 187.947 103.107 188.542 103.638 189.035C104.168 189.529 104.792 189.913 105.471 190.165C106.151 190.416 106.874 190.53 107.598 190.5C108.969 190.444 110.269 189.877 111.243 188.911C112.216 187.945 112.794 186.65 112.862 185.28C112.931 183.761 112.989 182.507 112.989 182.507C112.989 182.507 117.371 181.976 117.594 177.648C117.705 175.523 117.594 171.195 117.419 167.259C117.337 165.218 116.488 163.282 115.042 161.839C113.596 160.395 111.658 159.551 109.617 159.474H109.197C108.121 159.494 107.061 159.729 106.078 160.166C105.094 160.603 104.209 161.232 103.472 162.016C102.736 162.801 102.165 163.725 101.792 164.734C101.418 165.743 101.251 166.817 101.3 167.891Z" fill="#DDB29C"/>
<path d="M113 182.428C110.988 182.384 109.034 181.744 107.386 180.59C107.386 180.59 108.602 183.777 112.962 183.554L113 182.428Z" fill="#AA6550"/>
<path d="M115.57 170.117C115.566 170.28 115.498 170.434 115.381 170.548C115.264 170.661 115.107 170.724 114.944 170.722C114.864 170.724 114.785 170.711 114.711 170.682C114.637 170.654 114.57 170.611 114.513 170.556C114.455 170.501 114.409 170.435 114.378 170.363C114.346 170.29 114.329 170.212 114.327 170.133C114.332 169.971 114.399 169.818 114.515 169.705C114.632 169.593 114.787 169.531 114.949 169.532C115.028 169.529 115.108 169.541 115.182 169.569C115.257 169.597 115.325 169.639 115.383 169.693C115.441 169.748 115.487 169.813 115.519 169.886C115.552 169.959 115.569 170.037 115.57 170.117Z" fill="#263238"/>
<path d="M116.399 169.357C116.314 169.432 115.868 169.065 115.188 169.044C114.508 169.023 114.019 169.331 113.945 169.246C113.871 169.161 113.998 169.065 114.216 168.922C114.513 168.73 114.862 168.637 115.214 168.656C115.563 168.665 115.899 168.788 116.17 169.007C116.372 169.161 116.436 169.309 116.399 169.357Z" fill="#263238"/>
<path d="M109.123 169.936C109.116 170.098 109.047 170.25 108.93 170.362C108.813 170.474 108.658 170.536 108.496 170.536C108.417 170.54 108.338 170.527 108.263 170.5C108.189 170.472 108.121 170.43 108.064 170.375C108.006 170.321 107.96 170.255 107.929 170.182C107.897 170.11 107.881 170.031 107.88 169.952C107.887 169.792 107.955 169.641 108.071 169.53C108.187 169.419 108.341 169.357 108.501 169.357C108.58 169.354 108.659 169.367 108.733 169.395C108.807 169.422 108.874 169.464 108.932 169.518C108.99 169.572 109.036 169.636 109.069 169.708C109.102 169.78 109.12 169.857 109.123 169.936Z" fill="#263238"/>
<path d="M109.813 169.208C109.733 169.288 109.282 168.922 108.607 168.895C107.933 168.869 107.434 169.187 107.365 169.102C107.296 169.017 107.412 168.922 107.636 168.773C107.934 168.586 108.282 168.493 108.634 168.507C108.981 168.522 109.316 168.644 109.59 168.858C109.792 169.028 109.856 169.177 109.813 169.208Z" fill="#263238"/>
<path d="M112.049 174.27C112.405 174.169 112.773 174.117 113.143 174.116C113.313 174.116 113.478 174.079 113.51 173.962C113.533 173.779 113.5 173.594 113.414 173.431L112.963 172.108C112.537 170.988 112.201 169.835 111.959 168.661C112.477 169.743 112.905 170.866 113.239 172.018C113.387 172.485 113.531 172.926 113.669 173.346C113.769 173.556 113.791 173.795 113.733 174.02C113.705 174.08 113.664 174.132 113.614 174.173C113.563 174.214 113.504 174.244 113.441 174.259C113.345 174.282 113.247 174.292 113.148 174.291C112.782 174.328 112.413 174.321 112.049 174.27Z" fill="#263238"/>
<path d="M110.057 174.668C110.169 174.668 110.142 175.396 110.743 175.932C111.343 176.469 112.118 176.426 112.123 176.527C112.129 176.628 111.943 176.66 111.619 176.655C111.192 176.645 110.782 176.485 110.461 176.203C110.154 175.931 109.964 175.55 109.93 175.141C109.919 174.822 110.01 174.668 110.057 174.668Z" fill="#263238"/>
<path d="M110.089 166.595C110.015 166.776 109.351 166.659 108.565 166.723C107.779 166.787 107.131 166.978 107.036 166.808C106.993 166.728 107.11 166.564 107.37 166.399C107.719 166.192 108.112 166.072 108.517 166.048C108.921 166.013 109.328 166.077 109.702 166.234C109.983 166.362 110.148 166.51 110.089 166.595Z" fill="#263238"/>
<path d="M116.229 167.397C116.101 167.546 115.65 167.371 115.092 167.339C114.535 167.307 114.067 167.403 113.966 167.238C113.919 167.158 113.998 167.01 114.211 166.877C114.493 166.716 114.817 166.642 115.141 166.665C115.465 166.688 115.775 166.806 116.032 167.004C116.223 167.169 116.282 167.328 116.229 167.397Z" fill="#263238"/>
<path d="M102.712 169.92C102.638 169.888 99.7541 168.916 99.7329 171.901C99.7116 174.886 102.707 174.286 102.712 174.201C102.718 174.116 102.712 169.92 102.712 169.92Z" fill="#DDB29C"/>
<path d="M106.5 159H113L116.5 162L117 165L116 164C112.233 162.388 110 162.5 106.5 163C105.617 163.126 104.613 164.279 104.5 165.5L103 172H102.5C102.302 170.651 102.192 169.892 101.59 169.724L101 169.802L101 164L106.5 159Z" fill="#27272A"/>
<rect x="135" y="163" width="103" height="0.8" fill="#A1A1AA"/>
<rect x="135" y="169" width="86" height="0.8" fill="#A1A1AA"/>
<rect x="135" y="177" width="34" height="0.8" fill="#A1A1AA"/>
<rect x="135" y="185" width="34" height="0.8" fill="#A1A1AA"/>
<rect x="173" y="177" width="34" height="0.8" fill="#A1A1AA"/>
<rect x="174" y="185" width="56" height="0.8" fill="#A1A1AA"/>
<path d="M117.642 232.696C117.036 232.659 116.44 232.533 115.871 232.322L115.917 235.419C117.92 235.785 119.876 236.376 121.747 237.18C123.993 235.177 125.696 232.638 126.696 229.799C124.887 230.608 123.047 231.338 121.173 231.99C120.051 232.446 118.853 232.686 117.642 232.696Z" fill="white"/>
<path d="M109.852 206C107.507 206 105.185 206.462 103.019 207.359C100.853 208.257 98.8847 209.572 97.2269 211.231C95.5692 212.889 94.2543 214.857 93.3574 217.024C92.4606 219.19 91.9993 221.512 92 223.857C91.9977 226.583 92.6213 229.274 93.8228 231.721C95.0243 234.169 96.7715 236.307 98.9299 237.973C101.146 236.783 103.534 235.946 106.008 235.491V233.556C105.86 233.556 105.717 233.556 105.568 233.556C102.85 233.408 100.117 232.839 97.4201 233.213C96.9991 233.324 96.554 233.303 96.1457 233.152C95.9287 232.989 95.7489 232.782 95.6183 232.545C95.4877 232.308 95.4092 232.045 95.3882 231.775C95.1425 230.598 95.0095 229.216 95.8488 228.341C96.4118 227.762 97.3843 227.476 97.5634 226.687C97.7425 225.899 97.1079 225.285 96.7292 224.64C96.3925 224.021 96.2547 223.313 96.3343 222.612C96.414 221.912 96.7073 221.253 97.1744 220.725C97.8142 220.029 98.7457 219.604 99.2217 218.78C99.6977 217.956 99.5851 217.091 99.6925 216.221C99.7561 215.525 99.9725 214.852 100.326 214.249C100.68 213.647 101.163 213.13 101.74 212.735C102.476 212.303 103.346 212.161 104.181 212.336C105.394 210.704 107.974 211.64 109.269 211.584C110.963 211.507 112.749 211.461 114.243 212.249C114.196 211.54 114.408 210.837 114.842 210.274C115.185 209.857 115.627 209.533 116.128 209.332C116.629 209.132 117.173 209.061 117.708 209.127C118.003 209.148 118.291 209.228 118.554 209.361C118.818 209.495 119.052 209.68 119.244 209.905C119.45 210.218 119.577 210.576 119.614 210.949C119.65 211.322 119.595 211.698 119.454 212.045C119.262 212.606 118.915 213.103 118.453 213.476C117.991 213.849 117.433 214.084 116.843 214.153H116.813V214.215C116.844 214.342 116.864 214.472 116.874 214.604C117.156 215.115 117.386 215.678 117.657 216.2C117.988 216.928 118.562 217.517 119.28 217.869C119.791 218.079 120.385 218.084 120.897 218.319C121.798 218.729 122.253 219.742 122.468 220.709C122.546 221.162 122.661 221.607 122.811 222.04C122.89 222.256 123.012 222.454 123.169 222.622C123.327 222.79 123.517 222.925 123.727 223.018C124.126 223.161 124.577 223.084 124.986 223.187C125.493 223.334 125.921 223.674 126.179 224.134C126.436 224.586 126.63 225.072 126.757 225.577C126.947 226.191 127.131 226.805 127.32 227.419C127.555 226.255 127.673 225.07 127.673 223.883C127.68 219.148 125.807 214.605 122.465 211.252C119.123 207.899 114.586 206.009 109.852 206Z" fill="white"/>
<path d="M103.905 240.706C102.138 240.029 100.47 239.119 98.9453 237.999C100.443 239.16 102.118 240.074 103.905 240.706Z" fill="white"/>
<path d="M115.927 235.931C115.914 237.246 115.379 238.502 114.44 239.423C113.501 240.344 112.234 240.854 110.919 240.842C109.604 240.829 108.347 240.294 107.427 239.355C106.506 238.415 105.995 237.149 106.008 235.834V235.506C103.534 235.961 101.146 236.798 98.9299 237.988C100.624 239.217 101.156 239.938 103.843 240.788C105.782 241.4 107.803 241.712 109.837 241.714C114.227 241.72 118.464 240.101 121.731 237.169C119.86 236.366 117.905 235.775 115.902 235.409L115.927 235.931Z" fill="#2DD4BF"/>
<path d="M110.968 240.803C112.267 240.802 113.514 240.292 114.441 239.382C115.368 238.472 115.902 237.235 115.927 235.936V235.424L115.881 232.328C115.408 232.153 114.947 231.945 114.504 231.703C113.878 231.357 113.354 230.854 112.983 230.242C112.612 229.631 112.408 228.933 112.391 228.218C112.391 227.762 112.391 227.235 112.416 226.636L113.046 222.516C111.126 221.815 110.569 218.934 110.569 218.934C109.885 219.298 109.141 219.537 108.373 219.64C107.989 219.686 107.6 219.63 107.245 219.477C106.89 219.324 106.581 219.08 106.351 218.77C105.952 218.13 106.044 217.311 106.172 216.569C106.299 215.913 106.165 215.234 105.798 214.675C105.684 214.492 105.529 214.337 105.345 214.224C105.161 214.111 104.953 214.042 104.737 214.022C104.522 214.003 104.305 214.034 104.104 214.113C103.903 214.191 103.722 214.315 103.577 214.476C102.489 215.733 101.845 217.314 101.745 218.974C101.555 222.01 101.438 225.725 101.801 227.993C102.523 232.548 106.019 233.111 106.019 233.111C108.164 233.141 110.276 232.576 112.119 231.478C112.119 231.478 110.64 234.61 106.08 234.186L106.019 233.111V235.823C106.016 236.475 106.142 237.122 106.389 237.725C106.637 238.329 107.001 238.877 107.46 239.34C107.92 239.802 108.466 240.17 109.068 240.421C109.67 240.672 110.316 240.802 110.968 240.803ZM108.813 221.15C109.083 220.947 109.412 220.839 109.75 220.843C110.08 220.837 110.404 220.936 110.676 221.124C110.881 221.272 110.952 221.411 110.922 221.447C110.891 221.482 110.41 221.196 109.76 221.206C109.11 221.216 108.69 221.528 108.619 221.457C108.547 221.385 108.624 221.293 108.813 221.145V221.15ZM110.425 223.75C110.42 223.766 110.411 223.781 110.399 223.794C110.387 223.807 110.373 223.817 110.357 223.824C110.341 223.831 110.324 223.835 110.307 223.836C110.29 223.836 110.272 223.833 110.256 223.826C110.24 223.82 110.225 223.811 110.212 223.799C110.199 223.786 110.189 223.771 110.182 223.755C110.176 223.739 110.172 223.721 110.173 223.704C110.173 223.686 110.177 223.668 110.185 223.652C110.198 223.621 110.223 223.595 110.254 223.582C110.286 223.568 110.322 223.568 110.354 223.581C110.385 223.594 110.411 223.619 110.424 223.65C110.438 223.682 110.438 223.718 110.425 223.75ZM108.424 220.044C108.782 219.915 109.164 219.869 109.542 219.911C109.92 219.953 110.283 220.081 110.604 220.285C110.845 220.448 110.947 220.612 110.901 220.684C110.804 220.837 110.21 220.622 109.468 220.546C108.726 220.469 108.107 220.546 108.04 220.367C108.015 220.285 108.153 220.146 108.424 220.039V220.044ZM102.692 219.891C102.94 219.712 103.236 219.612 103.541 219.603C103.847 219.594 104.148 219.676 104.406 219.839C104.601 219.972 104.667 220.116 104.626 220.193C104.585 220.269 104.084 220.193 103.562 220.244C103.04 220.295 102.605 220.397 102.497 220.244C102.446 220.182 102.507 220.034 102.692 219.885V219.891ZM103.68 222.588C103.527 222.583 103.383 222.518 103.278 222.408C103.173 222.298 103.115 222.151 103.117 221.999C103.13 221.852 103.2 221.715 103.313 221.619C103.426 221.523 103.573 221.476 103.72 221.487C103.872 221.494 104.015 221.559 104.12 221.669C104.225 221.778 104.284 221.924 104.283 222.076C104.269 222.223 104.198 222.358 104.085 222.453C103.972 222.547 103.826 222.594 103.68 222.583V222.588ZM104.703 221.462C104.637 221.539 104.191 221.211 103.546 221.221C102.902 221.232 102.477 221.544 102.405 221.472C102.333 221.4 102.405 221.298 102.625 221.15C102.89 220.958 103.209 220.856 103.536 220.858C103.867 220.853 104.191 220.951 104.463 221.139C104.672 221.283 104.744 221.421 104.708 221.457L104.703 221.462ZM105.399 226.196C105.308 226.195 105.217 226.183 105.128 226.16C105.069 226.142 105.015 226.112 104.969 226.071C104.924 226.031 104.887 225.981 104.862 225.925C104.815 225.711 104.846 225.488 104.949 225.295L105.399 224.062C105.756 222.994 106.199 221.956 106.725 220.96C106.451 222.053 106.093 223.122 105.655 224.159C105.491 224.584 105.333 224.993 105.179 225.382C105.096 225.526 105.06 225.693 105.077 225.858C105.102 225.966 105.256 225.997 105.415 226.017C105.763 226.032 106.107 226.094 106.438 226.201C106.094 226.238 105.747 226.235 105.404 226.191L105.399 226.196ZM108.588 228.243C108.501 228.44 108.357 228.605 108.174 228.716C107.991 228.828 107.778 228.881 107.564 228.868C107.401 228.857 107.243 228.812 107.099 228.735C106.955 228.658 106.829 228.552 106.73 228.423C106.423 228.423 106.254 228.32 106.264 228.279C106.274 228.238 106.397 228.228 106.587 228.192H106.622C106.596 228.099 106.595 228 106.62 227.905C106.644 227.811 106.694 227.725 106.762 227.656C106.831 227.588 106.917 227.538 107.011 227.514C107.105 227.489 107.204 227.49 107.298 227.517C107.291 227.407 107.32 227.298 107.38 227.206C107.44 227.113 107.528 227.043 107.631 227.005C107.783 226.959 107.945 226.968 108.091 227.03C108.189 226.79 108.214 226.611 108.265 226.616C108.317 226.621 108.388 226.78 108.363 227.066C108.363 227.102 108.363 227.148 108.337 227.189C108.483 227.321 108.585 227.493 108.631 227.684C108.676 227.875 108.663 228.075 108.593 228.259L108.588 228.243ZM109.192 221.979C109.205 221.831 109.275 221.695 109.389 221.599C109.502 221.503 109.648 221.456 109.796 221.467C109.948 221.472 110.092 221.537 110.197 221.647C110.302 221.757 110.36 221.903 110.359 222.056C110.346 222.203 110.275 222.34 110.162 222.436C110.049 222.531 109.902 222.579 109.755 222.567C109.606 222.561 109.466 222.498 109.362 222.391C109.258 222.285 109.199 222.143 109.197 221.994L109.192 221.979Z" fill="#FFBE9D"/>
<path d="M103.721 221.467C103.573 221.456 103.427 221.503 103.313 221.599C103.2 221.695 103.13 221.831 103.117 221.979C103.115 222.131 103.173 222.278 103.278 222.388C103.384 222.498 103.528 222.562 103.68 222.567C103.827 222.579 103.974 222.531 104.087 222.436C104.2 222.34 104.271 222.203 104.284 222.056C104.284 221.904 104.225 221.758 104.12 221.648C104.015 221.538 103.872 221.474 103.721 221.467Z" fill="#263238"/>
<path d="M104.468 221.134C104.196 220.946 103.872 220.848 103.541 220.853C103.214 220.851 102.895 220.953 102.63 221.145C102.436 221.293 102.374 221.431 102.41 221.467C102.446 221.503 102.922 221.211 103.552 221.216C104.181 221.221 104.642 221.534 104.708 221.457C104.775 221.38 104.672 221.283 104.468 221.134Z" fill="#263238"/>
<path d="M109.75 222.583C109.897 222.594 110.044 222.547 110.157 222.451C110.27 222.355 110.341 222.219 110.354 222.071C110.355 221.919 110.297 221.772 110.192 221.662C110.087 221.552 109.943 221.488 109.791 221.482C109.643 221.471 109.497 221.519 109.383 221.614C109.27 221.71 109.2 221.847 109.187 221.994C109.185 222.146 109.243 222.293 109.348 222.403C109.454 222.513 109.598 222.578 109.75 222.583Z" fill="#263238"/>
<path d="M108.593 221.467C108.665 221.539 109.105 221.211 109.734 221.216C110.364 221.221 110.824 221.534 110.896 221.457C110.968 221.38 110.855 221.283 110.65 221.134C110.387 220.947 110.073 220.846 109.75 220.843C109.423 220.84 109.103 220.943 108.839 221.134C108.624 221.293 108.557 221.431 108.593 221.467Z" fill="#263238"/>
<path d="M105.42 226.012C105.261 226.012 105.108 225.961 105.082 225.853C105.065 225.688 105.101 225.521 105.184 225.377C105.338 224.988 105.497 224.579 105.66 224.154C106.099 223.117 106.456 222.047 106.73 220.955C106.204 221.951 105.761 222.988 105.404 224.057L104.954 225.29C104.851 225.483 104.82 225.706 104.867 225.92C104.892 225.976 104.929 226.026 104.975 226.066C105.021 226.107 105.075 226.137 105.133 226.155C105.222 226.178 105.313 226.19 105.404 226.191C105.744 226.231 106.088 226.231 106.428 226.191C106.101 226.087 105.762 226.026 105.42 226.012Z" fill="#263238"/>
<path d="M106.07 234.196C110.63 234.621 112.109 231.488 112.109 231.488C110.266 232.588 108.154 233.155 106.008 233.126L106.07 234.196Z" fill="#EB996E"/>
<path d="M108.363 227.204C108.295 227.538 108.114 227.838 107.851 228.054C107.541 228.307 107.151 228.443 106.75 228.438C106.85 228.567 106.976 228.674 107.12 228.75C107.263 228.827 107.422 228.872 107.585 228.883C107.799 228.896 108.012 228.843 108.195 228.732C108.378 228.62 108.522 228.455 108.608 228.259C108.677 228.078 108.69 227.882 108.646 227.694C108.602 227.506 108.504 227.336 108.363 227.204Z" fill="#EB996E"/>
<path d="M108.117 227.046C107.971 226.984 107.808 226.975 107.656 227.02C107.553 227.058 107.465 227.129 107.405 227.221C107.346 227.313 107.317 227.422 107.324 227.532C107.23 227.505 107.131 227.505 107.037 227.529C106.943 227.554 106.857 227.603 106.788 227.672C106.719 227.741 106.67 227.826 106.645 227.921C106.621 228.015 106.622 228.114 106.648 228.207C106.998 228.156 107.329 228.013 107.605 227.793C107.839 227.593 108.015 227.336 108.117 227.046Z" fill="#EB996E"/>
<path d="M107.856 228.054C108.119 227.838 108.3 227.538 108.368 227.204C108.368 227.163 108.368 227.117 108.393 227.082C108.393 226.795 108.342 226.626 108.296 226.631C108.25 226.636 108.219 226.805 108.122 227.046C108.02 227.334 107.843 227.59 107.61 227.788C107.334 228.008 107.003 228.151 106.653 228.202H106.617C106.428 228.238 106.295 228.249 106.295 228.289C106.295 228.33 106.454 228.423 106.761 228.433C107.159 228.438 107.546 228.304 107.856 228.054Z" fill="#263238"/>
<path d="M109.468 220.541C110.21 220.618 110.804 220.832 110.901 220.679C110.947 220.607 110.845 220.443 110.604 220.28C110.284 220.076 109.92 219.948 109.542 219.906C109.164 219.864 108.782 219.91 108.424 220.039C108.153 220.147 108.015 220.285 108.04 220.362C108.107 220.536 108.726 220.454 109.468 220.541Z" fill="#263238"/>
<path d="M103.562 220.239C104.074 220.213 104.524 220.336 104.626 220.187C104.729 220.039 104.626 219.967 104.406 219.834C104.148 219.671 103.847 219.589 103.541 219.598C103.236 219.607 102.94 219.707 102.692 219.885C102.507 220.034 102.446 220.182 102.497 220.249C102.584 220.392 103.04 220.244 103.562 220.239Z" fill="#263238"/>
<path d="M126.215 224.123C125.957 223.663 125.528 223.323 125.022 223.176C124.613 223.074 124.162 223.151 123.763 223.007C123.552 222.915 123.363 222.78 123.205 222.612C123.048 222.444 122.926 222.246 122.847 222.03C122.697 221.596 122.582 221.151 122.504 220.699C122.289 219.732 121.834 218.718 120.933 218.309C120.421 218.074 119.832 218.068 119.315 217.859C118.598 217.507 118.024 216.917 117.693 216.19C117.417 215.678 117.181 215.115 116.91 214.593C116.91 214.711 116.91 214.788 116.91 214.788C116.91 214.788 116.833 214.609 116.731 214.337C116.733 214.375 116.733 214.412 116.731 214.45C116.683 215.08 116.45 215.682 116.06 216.18C115.139 217.511 112.641 218.309 110.369 217.321C109.813 217.068 109.36 216.633 109.084 216.088C108.875 215.59 108.704 215.076 108.573 214.552C108.313 213.695 107.724 212.975 106.935 212.551C106.406 212.255 105.811 212.094 105.205 212.085C104.775 212.085 104.539 212.147 104.534 212.126C104.529 212.106 104.591 212.096 104.703 212.065C104.871 212.025 105.043 212.001 105.215 211.993C106.002 211.962 106.778 212.189 107.424 212.639C108.071 213.088 108.553 213.737 108.798 214.486C108.931 215.009 109.102 215.522 109.31 216.021C109.562 216.517 109.978 216.911 110.487 217.137C110.997 217.375 111.547 217.512 112.109 217.541C112.637 217.583 113.168 217.549 113.686 217.439C114.567 217.27 115.362 216.802 115.937 216.113C116.32 215.645 116.566 215.08 116.649 214.481C116.649 214.373 116.649 214.276 116.649 214.194C116.492 213.817 116.27 213.471 115.994 213.17C115.536 212.725 115.005 212.363 114.423 212.101C114.621 212.08 114.821 212.116 115.001 212.203C115.439 212.372 115.832 212.64 116.151 212.985C116.47 213.33 116.705 213.744 116.838 214.194H116.869C117.459 214.125 118.017 213.89 118.479 213.517C118.94 213.143 119.287 212.647 119.479 212.085C119.621 211.739 119.676 211.362 119.639 210.99C119.603 210.617 119.476 210.259 119.269 209.946C119.078 209.721 118.844 209.536 118.58 209.402C118.316 209.269 118.029 209.189 117.734 209.168C117.198 209.102 116.655 209.173 116.154 209.373C115.653 209.574 115.21 209.897 114.868 210.314C114.434 210.878 114.221 211.581 114.269 212.29C112.774 211.502 110.988 211.548 109.294 211.625C107.999 211.681 105.42 210.744 104.207 212.377C103.372 212.202 102.501 212.344 101.765 212.776C101.189 213.171 100.706 213.688 100.352 214.29C99.9981 214.893 99.7817 215.566 99.7182 216.262C99.6107 217.127 99.6772 218.058 99.2473 218.821C98.8174 219.583 97.85 220.07 97.2 220.766C96.7329 221.294 96.4396 221.953 96.36 222.653C96.2803 223.354 96.4181 224.062 96.7548 224.681C97.1335 225.346 97.7784 226.007 97.589 226.728C97.3996 227.45 96.4374 227.803 95.8744 228.381C95.0351 229.246 95.1681 230.639 95.4138 231.816C95.4348 232.086 95.5133 232.348 95.6439 232.586C95.7745 232.823 95.9543 233.03 96.1713 233.193C96.5796 233.344 97.0247 233.365 97.4457 233.254C100.143 232.88 102.876 233.448 105.594 233.597C105.742 233.597 105.885 233.597 106.034 233.597V233.126C106.034 233.126 102.538 232.543 101.817 228.008C101.453 225.741 101.571 222.025 101.76 218.99C101.86 217.33 102.504 215.748 103.593 214.491C103.738 214.331 103.918 214.206 104.119 214.128C104.321 214.049 104.538 214.018 104.753 214.038C104.968 214.057 105.176 214.126 105.36 214.239C105.544 214.353 105.7 214.507 105.814 214.69C106.181 215.249 106.315 215.928 106.187 216.584C106.06 217.326 105.967 218.145 106.367 218.785C106.597 219.096 106.905 219.34 107.26 219.492C107.615 219.645 108.004 219.701 108.388 219.655C109.156 219.553 109.9 219.313 110.584 218.949C110.584 218.949 111.142 221.835 113.061 222.531L112.432 226.652C112.401 227.25 112.396 227.778 112.406 228.233C112.423 228.948 112.627 229.646 112.998 230.258C113.369 230.869 113.894 231.373 114.52 231.718C114.963 231.96 115.423 232.169 115.897 232.343C116.465 232.554 117.062 232.68 117.667 232.717C118.879 232.706 120.077 232.467 121.199 232.01C123.072 231.362 124.913 230.632 126.721 229.82C126.997 229.039 127.218 228.241 127.382 227.429C127.192 226.815 127.008 226.201 126.819 225.587C126.685 225.074 126.482 224.581 126.215 224.123Z" fill="#263238"/>
<path d="M110.185 223.647C110.177 223.663 110.173 223.681 110.173 223.699C110.172 223.716 110.176 223.734 110.182 223.75C110.189 223.766 110.199 223.781 110.212 223.794C110.225 223.806 110.24 223.815 110.256 223.821C110.272 223.828 110.29 223.831 110.307 223.831C110.324 223.83 110.342 223.826 110.357 223.819C110.373 223.812 110.387 223.802 110.399 223.789C110.411 223.776 110.42 223.761 110.425 223.745C110.438 223.713 110.438 223.677 110.424 223.645C110.411 223.614 110.386 223.589 110.354 223.576C110.322 223.563 110.286 223.563 110.254 223.577C110.223 223.59 110.198 223.616 110.185 223.647Z" fill="#263238"/>
<path d="M114.991 212.142C114.811 212.054 114.611 212.019 114.412 212.039C114.994 212.302 115.526 212.664 115.984 213.109C116.26 213.409 116.482 213.756 116.639 214.133C116.639 213.887 116.639 213.749 116.639 213.749C116.639 213.749 116.664 213.805 116.685 213.918C116.694 214.049 116.694 214.181 116.685 214.312C116.787 214.583 116.833 214.773 116.864 214.762C116.895 214.752 116.889 214.686 116.864 214.568C116.854 214.437 116.833 214.307 116.802 214.179V214.117C116.669 213.667 116.434 213.254 116.115 212.908C115.797 212.563 115.403 212.296 114.965 212.126L114.991 212.142Z" fill="#2DD4BF"/>
<path d="M116.69 213.943C116.669 213.831 116.654 213.775 116.644 213.775C116.644 213.775 116.644 213.913 116.644 214.158C116.644 214.24 116.644 214.338 116.644 214.445C116.561 215.044 116.315 215.609 115.932 216.078C115.357 216.766 114.562 217.235 113.68 217.403C113.163 217.513 112.632 217.548 112.104 217.506C111.542 217.476 110.991 217.339 110.482 217.101C109.973 216.876 109.557 216.482 109.304 215.986C109.097 215.487 108.926 214.974 108.793 214.45C108.548 213.701 108.066 213.053 107.419 212.603C106.773 212.153 105.997 211.927 105.21 211.958C105.037 211.965 104.866 211.989 104.698 212.029C104.585 212.06 104.529 212.08 104.529 212.091C104.529 212.091 104.77 212.05 105.2 212.05C105.806 212.059 106.401 212.219 106.93 212.516C107.719 212.939 108.308 213.659 108.567 214.517C108.699 215.041 108.87 215.554 109.079 216.052C109.355 216.597 109.808 217.032 110.364 217.286C112.636 218.273 115.134 217.475 116.055 216.144C116.445 215.647 116.678 215.045 116.726 214.414C116.728 214.377 116.728 214.339 116.726 214.302C116.722 214.182 116.71 214.062 116.69 213.943Z" fill="#455A64"/>
<rect x="135" y="213" width="103" height="0.8" fill="#A1A1AA"/>
<rect x="135" y="219" width="86" height="0.8" fill="#A1A1AA"/>
<rect x="135" y="227" width="34" height="0.8" fill="#A1A1AA"/>
<rect x="135" y="235" width="34" height="0.8" fill="#A1A1AA"/>
<rect x="173" y="227" width="34" height="0.8" fill="#A1A1AA"/>
<rect x="174" y="235" width="56" height="0.8" fill="#A1A1AA"/>
<g filter="url(#filter6_d_300_1440)">
<rect x="86" y="99" width="158" height="50" fill="#2DD4BF"/>
</g>
<rect x="135" y="113" width="103" height="0.8" fill="#E4E4E7"/>
<rect x="135" y="119" width="86" height="0.8" fill="#E4E4E7"/>
<rect x="135" y="127" width="34" height="0.8" fill="#E4E4E7"/>
<rect x="135" y="135" width="34" height="0.8" fill="#E4E4E7"/>
<rect x="173" y="127" width="34" height="0.8" fill="#E4E4E7"/>
<rect x="174" y="135" width="56" height="0.8" fill="#E4E4E7"/>
<path d="M111.413 106H108.183C99.2452 106 92 113.245 92 122.183V125.413C92 134.35 99.2452 141.595 108.183 141.595H111.413C120.35 141.595 127.595 134.35 127.595 125.413V122.183C127.595 113.245 120.35 106 111.413 106Z" fill="white"/>
<path d="M96.7568 136.375C96.7568 136.375 102.897 133.884 108.535 133.62C118.253 133.118 123.23 135.984 123.23 135.984C123.23 135.984 118.694 142.246 108.546 141.678C100.378 141.198 96.7568 136.375 96.7568 136.375Z" fill="#263238"/>
<path d="M110.95 140.752C109.651 140.726 108.41 140.206 107.481 139.298C106.552 138.39 106.005 137.161 105.95 135.863C105.868 133.895 105.802 132.082 105.802 132.082C105.802 132.082 101.673 131.646 101.425 127.557C101.177 123.467 101.425 114.025 101.425 114.025C103.704 112.912 106.239 112.427 108.768 112.621C111.297 112.815 113.728 113.68 115.811 115.128L116.439 115.563L116.142 135.725C116.132 136.397 115.991 137.06 115.724 137.676C115.458 138.293 115.073 138.85 114.59 139.317C114.108 139.784 113.538 140.152 112.913 140.398C112.288 140.644 111.621 140.764 110.95 140.752Z" fill="#FFBE9D"/>
<path d="M105.791 132.027C107.682 131.969 109.514 131.351 111.054 130.252C111.054 130.252 109.952 133.256 105.835 133.085L105.791 132.027Z" fill="#EB996E"/>
<path d="M116.147 119.835C116.213 119.802 118.903 118.865 118.964 121.67C119.024 124.476 116.208 123.941 116.18 123.875C116.153 123.809 116.147 119.835 116.147 119.835Z" fill="#FFBE9D"/>
<path d="M117.018 122.784C117.018 122.784 117.068 122.817 117.156 122.855C117.273 122.9 117.403 122.9 117.52 122.855C117.701 122.737 117.848 122.573 117.945 122.379C118.042 122.185 118.085 121.969 118.071 121.753C118.073 121.511 118.022 121.272 117.922 121.053C117.895 120.965 117.847 120.885 117.781 120.821C117.716 120.756 117.635 120.709 117.547 120.684C117.491 120.669 117.431 120.675 117.379 120.7C117.326 120.726 117.285 120.768 117.261 120.821C117.227 120.904 117.261 120.959 117.261 120.965C117.261 120.97 117.194 120.915 117.216 120.799C117.232 120.73 117.271 120.667 117.327 120.623C117.404 120.565 117.5 120.537 117.597 120.546C117.712 120.567 117.82 120.618 117.91 120.693C118 120.768 118.068 120.866 118.109 120.976C118.234 121.215 118.296 121.483 118.291 121.753C118.31 122.002 118.255 122.251 118.133 122.469C118.01 122.687 117.825 122.864 117.602 122.976C117.527 122.998 117.449 123.003 117.372 122.991C117.295 122.98 117.221 122.952 117.156 122.91C117.029 122.833 117.012 122.789 117.018 122.784Z" fill="#EB996E"/>
<path d="M103.387 120.777C103.386 120.928 103.442 121.073 103.545 121.183C103.647 121.292 103.788 121.358 103.938 121.367C104.015 121.374 104.092 121.365 104.165 121.34C104.237 121.316 104.304 121.276 104.361 121.224C104.417 121.172 104.462 121.109 104.493 121.039C104.524 120.969 104.54 120.893 104.539 120.816C104.54 120.665 104.483 120.52 104.381 120.41C104.279 120.299 104.138 120.232 103.988 120.221C103.911 120.214 103.834 120.223 103.761 120.248C103.687 120.273 103.62 120.313 103.564 120.365C103.507 120.418 103.462 120.481 103.432 120.552C103.401 120.623 103.386 120.7 103.387 120.777Z" fill="#263238"/>
<path d="M102.676 119.631C102.748 119.708 103.194 119.377 103.823 119.383C104.451 119.388 104.925 119.697 104.98 119.62C105.035 119.542 104.942 119.449 104.743 119.3C104.469 119.112 104.144 119.014 103.812 119.019C103.485 119.015 103.166 119.118 102.902 119.311C102.704 119.46 102.643 119.598 102.676 119.631Z" fill="#263238"/>
<path d="M109.439 120.849C109.436 121 109.492 121.146 109.595 121.256C109.698 121.366 109.84 121.432 109.99 121.439C110.065 121.445 110.139 121.437 110.21 121.414C110.281 121.391 110.347 121.354 110.403 121.305C110.459 121.256 110.505 121.197 110.537 121.129C110.569 121.062 110.588 120.989 110.591 120.915C110.593 120.764 110.537 120.618 110.434 120.508C110.332 120.397 110.191 120.33 110.04 120.32C109.965 120.313 109.89 120.321 109.819 120.345C109.748 120.368 109.682 120.406 109.626 120.455C109.57 120.505 109.524 120.565 109.492 120.633C109.46 120.7 109.442 120.774 109.439 120.849Z" fill="#263238"/>
<path d="M108.866 119.752C108.943 119.824 109.384 119.498 110.013 119.498C110.641 119.498 111.115 119.818 111.176 119.741C111.236 119.664 111.137 119.564 110.933 119.421C110.662 119.232 110.338 119.132 110.007 119.135C109.679 119.13 109.357 119.233 109.092 119.427C108.899 119.575 108.833 119.713 108.866 119.752Z" fill="#263238"/>
<path d="M106.584 124.421C106.251 124.318 105.907 124.257 105.559 124.239C105.399 124.239 105.245 124.189 105.217 124.079C105.205 123.912 105.244 123.745 105.328 123.599L105.802 122.376C106.245 121.339 106.602 120.268 106.871 119.173C106.347 120.172 105.905 121.212 105.548 122.282L105.091 123.517C104.99 123.71 104.961 123.932 105.008 124.145C105.031 124.202 105.067 124.253 105.113 124.294C105.158 124.335 105.213 124.365 105.272 124.382C105.362 124.407 105.455 124.42 105.548 124.421C105.892 124.466 106.24 124.466 106.584 124.421Z" fill="#263238"/>
<path d="M108.436 124.856C108.331 124.856 108.331 125.534 107.747 126.019C107.163 126.504 106.435 126.432 106.43 126.526C106.424 126.62 106.59 126.658 106.898 126.664C107.299 126.672 107.69 126.537 108.001 126.283C108.304 126.042 108.501 125.692 108.552 125.308C108.557 125.038 108.48 124.85 108.436 124.856Z" fill="#263238"/>
<path d="M108.706 117.283C108.767 117.454 109.395 117.371 110.134 117.459C110.873 117.547 111.473 117.751 111.573 117.597C111.617 117.525 111.512 117.36 111.269 117.194C110.944 116.989 110.577 116.861 110.195 116.82C109.812 116.779 109.426 116.826 109.065 116.957C108.817 117.062 108.679 117.2 108.706 117.283Z" fill="#263238"/>
<path d="M102.908 117.806C103.018 117.95 103.459 117.806 103.977 117.806C104.495 117.806 104.936 117.906 105.041 117.751C105.085 117.68 105.041 117.536 104.82 117.404C104.564 117.235 104.261 117.152 103.955 117.167C103.649 117.173 103.353 117.273 103.106 117.454C102.919 117.591 102.858 117.74 102.908 117.806Z" fill="#263238"/>
<path d="M99.3417 111.324C99.3111 111.07 99.3456 110.812 99.442 110.575C99.5385 110.338 99.6936 110.129 99.8929 109.968C100.101 109.823 100.353 109.755 100.606 109.774C100.859 109.793 101.098 109.899 101.282 110.073C101.244 109.9 101.242 109.721 101.279 109.548C101.315 109.374 101.387 109.21 101.492 109.067C101.596 108.924 101.729 108.804 101.883 108.716C102.037 108.628 102.208 108.574 102.384 108.557C103.051 108.513 103.619 109.02 104.269 109.197C104.914 109.33 105.584 109.253 106.182 108.976C106.788 108.728 107.356 108.392 107.968 108.166C109.266 107.698 110.695 107.761 111.948 108.339C113.2 108.918 114.174 109.967 114.659 111.258C115.116 111.146 115.596 111.175 116.035 111.342C116.475 111.508 116.854 111.804 117.123 112.19C117.647 112.982 117.855 113.941 117.707 114.879C117.623 115.509 117.465 116.127 117.239 116.72C117.239 116.776 117.239 116.825 117.239 116.88C117.194 119.129 116.941 121.78 115.982 121.791C114.328 121.791 114.703 118.661 114.703 118.661C112.647 117.867 113.413 114.802 112.901 114.317C112.388 113.832 111.308 112.763 107.003 114.962C105.4 115.678 103.612 115.871 101.894 115.513H101.783H101.745C101.355 115.417 100.982 115.259 100.642 115.045C100.223 114.813 99.89 114.452 99.6944 114.014C99.6045 113.801 99.5785 113.566 99.6196 113.338C99.6607 113.11 99.7671 112.899 99.9259 112.73C99.5985 112.328 99.3955 111.84 99.3417 111.324Z" fill="#263238"/>
<rect x="95" y="51" width="58" height="1" fill="#A1A1AA"/>
<rect x="237" y="48" width="1" height="5" fill="#A1A1AA"/>
<rect x="52.75" y="0.75" width="561.5" height="33.5" fill="#E4E4E7" stroke="#E4E4E7" stroke-width="0.5"/>
<circle cx="599" cy="17" r="5.5" fill="#F87171" stroke="#E4E4E7"/>
<circle cx="584" cy="17" r="5.5" fill="#4ADE80" stroke="#E4E4E7"/>
<circle cx="569" cy="17" r="5.5" fill="#FACC15" stroke="#E4E4E7"/>
<mask id="path-127-inside-3_300_1440" fill="white">
<path d="M246 34H614V64H246V34Z"/>
</mask>
<path d="M614 63.5H246V64.5H614V63.5Z" fill="#CBD5E1" mask="url(#path-127-inside-3_300_1440)"/>
<rect x="276" y="49" width="80" height="1.2" fill="#A1A1AA"/>
<rect x="276" y="54" width="28" height="1" fill="#A1A1AA"/>
<path d="M263.871 39H262.062C257.057 39 253 43.0573 253 48.0623V49.871C253 54.876 257.057 58.9333 262.062 58.9333H263.871C268.876 58.9333 272.933 54.876 272.933 49.871V48.0623C272.933 43.0573 268.876 39 263.871 39Z" fill="white"/>
<path d="M255.664 56.0103C255.664 56.0103 259.102 54.6151 262.26 54.467C267.702 54.1861 270.489 55.7911 270.489 55.7911C270.489 55.7911 267.948 59.2975 262.266 58.9796C257.692 58.711 255.664 56.0103 255.664 56.0103Z" fill="#263238"/>
<path d="M263.612 58.4611C262.884 58.4468 262.19 58.1556 261.67 57.6469C261.149 57.1381 260.843 56.4502 260.812 55.7232C260.766 54.6213 260.729 53.6058 260.729 53.6058C260.729 53.6058 258.417 53.362 258.278 51.0717C258.139 48.7815 258.278 43.4941 258.278 43.4941C259.554 42.8706 260.974 42.5991 262.39 42.7077C263.806 42.8162 265.168 43.3008 266.334 44.1114L266.686 44.3553L266.519 55.6461C266.514 56.0221 266.435 56.3933 266.286 56.7386C266.137 57.0838 265.921 57.3961 265.651 57.6577C265.38 57.9193 265.061 58.1249 264.711 58.2627C264.361 58.4006 263.988 58.468 263.612 58.4611Z" fill="#FFBE9D"/>
<path d="M260.723 53.5749C261.782 53.5426 262.808 53.1967 263.67 52.5811C263.67 52.5811 263.053 54.2633 260.747 54.1676L260.723 53.5749Z" fill="#EB996E"/>
<path d="M266.522 46.7474C266.559 46.7289 268.066 46.2042 268.1 47.7753C268.134 49.3464 266.556 49.0469 266.541 49.0099C266.526 48.9729 266.522 46.7474 266.522 46.7474Z" fill="#FFBE9D"/>
<path d="M267.01 48.3988C267.01 48.3988 267.038 48.4173 267.087 48.4389C267.153 48.4641 267.225 48.4641 267.291 48.4389C267.393 48.3728 267.475 48.2807 267.529 48.1722C267.583 48.0637 267.608 47.9427 267.6 47.8216C267.601 47.6864 267.572 47.5526 267.516 47.4296C267.501 47.3804 267.474 47.3357 267.438 47.2995C267.401 47.2634 267.356 47.237 267.306 47.2228C267.275 47.2148 267.241 47.2182 267.212 47.2323C267.183 47.2464 267.159 47.2703 267.146 47.3C267.127 47.3463 267.146 47.3771 267.146 47.3802C267.146 47.3833 267.109 47.3524 267.121 47.2876C267.13 47.2486 267.152 47.2138 267.183 47.1889C267.226 47.1562 267.28 47.1408 267.334 47.1456C267.399 47.1575 267.459 47.1859 267.509 47.2281C267.56 47.2703 267.598 47.3249 267.621 47.3864C267.691 47.5207 267.726 47.6703 267.723 47.8216C267.734 47.9612 267.703 48.1008 267.634 48.2228C267.566 48.3448 267.462 48.4437 267.337 48.5068C267.295 48.5186 267.251 48.5215 267.208 48.5151C267.165 48.5087 267.124 48.4933 267.087 48.4698C267.016 48.4266 267.007 48.4019 267.01 48.3988Z" fill="#EB996E"/>
<path d="M259.377 47.2753C259.376 47.3595 259.408 47.4408 259.465 47.5023C259.522 47.5638 259.601 47.6008 259.686 47.6056C259.728 47.6094 259.771 47.6043 259.812 47.5905C259.853 47.5768 259.89 47.5546 259.922 47.5256C259.954 47.4965 259.979 47.4612 259.996 47.4218C260.013 47.3824 260.022 47.3399 260.022 47.2969C260.022 47.2126 259.99 47.1313 259.933 47.0695C259.876 47.0076 259.797 46.9698 259.713 46.9635C259.67 46.9596 259.627 46.9648 259.586 46.9788C259.545 46.9927 259.507 47.0151 259.476 47.0445C259.444 47.0739 259.419 47.1097 259.402 47.1494C259.385 47.1892 259.376 47.232 259.377 47.2753Z" fill="#263238"/>
<path d="M258.979 46.6331C259.019 46.6763 259.269 46.4911 259.621 46.4942C259.973 46.4973 260.238 46.6701 260.269 46.6269C260.3 46.5837 260.247 46.5312 260.136 46.4479C259.983 46.3429 259.8 46.2879 259.615 46.2905C259.432 46.2885 259.253 46.3459 259.105 46.4541C258.994 46.5374 258.96 46.6146 258.979 46.6331Z" fill="#263238"/>
<path d="M262.766 47.3154C262.764 47.3998 262.796 47.4816 262.853 47.5432C262.911 47.6049 262.99 47.6417 263.075 47.6457C263.116 47.6495 263.158 47.6448 263.198 47.632C263.237 47.6191 263.274 47.5984 263.306 47.571C263.337 47.5436 263.363 47.5101 263.381 47.4725C263.399 47.435 263.409 47.3941 263.411 47.3524C263.412 47.2679 263.381 47.1863 263.323 47.1243C263.266 47.0623 263.187 47.0246 263.102 47.0191C263.061 47.0153 263.019 47.02 262.979 47.0331C262.939 47.0461 262.902 47.0671 262.87 47.0948C262.839 47.1226 262.813 47.1564 262.796 47.1944C262.778 47.2323 262.768 47.2735 262.766 47.3154Z" fill="#263238"/>
<path d="M262.445 46.701C262.488 46.7411 262.735 46.559 263.087 46.559C263.439 46.559 263.704 46.738 263.738 46.6948C263.772 46.6516 263.717 46.5961 263.603 46.5158C263.451 46.4097 263.269 46.3536 263.084 46.3553C262.9 46.3528 262.72 46.4103 262.572 46.5189C262.464 46.6022 262.427 46.6794 262.445 46.701Z" fill="#263238"/>
<path d="M261.167 49.3155C260.981 49.2583 260.788 49.2241 260.593 49.2137C260.504 49.2137 260.417 49.1859 260.402 49.1242C260.395 49.0305 260.416 48.9369 260.463 48.8556L260.729 48.1704C260.977 47.5899 261.177 46.9901 261.328 46.3771C261.035 46.9366 260.787 47.5187 260.587 48.1179L260.331 48.8093C260.274 48.9175 260.258 49.0421 260.284 49.1612C260.297 49.1932 260.317 49.2218 260.343 49.2448C260.369 49.2678 260.399 49.2846 260.433 49.2939C260.483 49.3078 260.535 49.3151 260.587 49.3155C260.779 49.3408 260.975 49.3408 261.167 49.3155Z" fill="#263238"/>
<path d="M262.204 49.5593C262.146 49.5593 262.146 49.9389 261.818 50.2105C261.491 50.4822 261.084 50.442 261.081 50.4945C261.078 50.547 261.17 50.5686 261.343 50.5717C261.568 50.5761 261.786 50.5006 261.96 50.3587C262.13 50.2233 262.241 50.0275 262.269 49.8124C262.272 49.6611 262.229 49.5562 262.204 49.5593Z" fill="#263238"/>
<path d="M262.356 45.3183C262.39 45.414 262.741 45.3677 263.155 45.4171C263.569 45.4665 263.905 45.5807 263.961 45.4943C263.985 45.4542 263.927 45.3616 263.791 45.269C263.609 45.1539 263.403 45.0821 263.189 45.0591C262.975 45.0361 262.758 45.0625 262.556 45.1362C262.417 45.1949 262.34 45.272 262.356 45.3183Z" fill="#263238"/>
<path d="M259.108 45.6116C259.17 45.6918 259.417 45.6116 259.707 45.6116C259.997 45.6116 260.244 45.6671 260.303 45.5807C260.328 45.5406 260.303 45.4603 260.179 45.3862C260.036 45.2917 259.866 45.2452 259.695 45.2535C259.524 45.2569 259.358 45.313 259.22 45.414C259.115 45.4912 259.081 45.5745 259.108 45.6116Z" fill="#263238"/>
<path d="M257.111 41.9816C257.094 41.8392 257.114 41.6949 257.168 41.562C257.222 41.4292 257.308 41.3123 257.42 41.2223C257.537 41.141 257.678 41.1025 257.819 41.1132C257.961 41.1239 258.095 41.1831 258.198 41.2809C258.176 41.184 258.176 41.0837 258.196 40.9866C258.216 40.8894 258.257 40.7977 258.315 40.7175C258.374 40.6372 258.448 40.5703 258.535 40.5211C258.621 40.4719 258.716 40.4416 258.815 40.4321C259.189 40.4074 259.507 40.6914 259.871 40.7902C260.232 40.8649 260.607 40.8216 260.942 40.6667C261.281 40.5278 261.599 40.3395 261.942 40.213C262.669 39.951 263.469 39.9859 264.171 40.31C264.872 40.6341 265.417 41.2213 265.689 41.9445C265.945 41.8818 266.213 41.8981 266.46 41.9912C266.706 42.0844 266.918 42.25 267.069 42.4662C267.362 42.9097 267.479 43.4471 267.396 43.9725C267.349 44.3251 267.261 44.671 267.134 45.0034C267.134 45.0342 267.134 45.062 267.134 45.0929C267.109 46.3522 266.967 47.8369 266.43 47.8431C265.504 47.8431 265.714 46.0899 265.714 46.0899C264.562 45.6454 264.991 43.9292 264.704 43.6576C264.417 43.386 263.812 42.7872 261.402 44.0187C260.504 44.4199 259.503 44.5279 258.54 44.3274H258.479H258.457C258.239 44.2737 258.03 44.1851 257.84 44.065C257.605 43.9355 257.418 43.7328 257.309 43.4879C257.258 43.3683 257.244 43.2367 257.267 43.109C257.29 42.9814 257.35 42.8631 257.438 42.7687C257.255 42.5437 257.141 42.2702 257.111 41.9816Z" fill="#263238"/>
<rect x="599" y="48" width="1" height="5" fill="#A1A1AA"/>
<g filter="url(#filter7_d_300_1440)">
<rect x="255" y="71" width="156" height="15" fill="#AAAAAA" fill-opacity="0.1" shape-rendering="crispEdges"/>
</g>
<rect x="266" y="78" width="129" height="1" fill="#A1A1AA"/>
<g filter="url(#filter8_d_300_1440)">
<rect x="255" y="91" width="249" height="25" fill="#AAAAAA" fill-opacity="0.1" shape-rendering="crispEdges"/>
</g>
<rect x="266" y="110" width="120" height="1" fill="#A1A1AA"/>
<rect x="266" y="104" width="224" height="1" fill="#A1A1AA"/>
<rect x="266" y="98" width="224" height="1" fill="#A1A1AA"/>
<g filter="url(#filter9_d_300_1440)">
<rect x="255" y="259" width="156" height="15" fill="#AAAAAA" fill-opacity="0.1" shape-rendering="crispEdges"/>
</g>
<rect x="266" y="266" width="129" height="1" fill="#A1A1AA"/>
<g filter="url(#filter10_d_300_1440)">
<rect x="255" y="279" width="249" height="20" fill="#AAAAAA" fill-opacity="0.1" shape-rendering="crispEdges"/>
</g>
<rect x="266" y="286" width="217" height="1" fill="#A1A1AA"/>
<rect x="266" y="286" width="217" height="1" fill="#A1A1AA"/>
<rect x="266" y="292" width="117" height="1" fill="#A1A1AA"/>
<rect x="266" y="292" width="117" height="1" fill="#A1A1AA"/>
<g filter="url(#filter11_d_300_1440)">
<rect x="350" y="163" width="156" height="15" fill="#2DD4BF"/>
</g>
<rect x="361" y="170" width="129" height="0.6" fill="#E4E4E7"/>
<g filter="url(#filter12_d_300_1440)">
<rect x="350" y="132" width="249" height="25" fill="#2DD4BF"/>
</g>
<rect x="361" y="139" width="218" height="0.6" fill="#E4E4E7"/>
<rect x="361" y="144" width="205" height="0.6" fill="#E4E4E7"/>
<rect x="361" y="149" width="63" height="0.6" fill="#E4E4E7"/>
<g filter="url(#filter13_d_300_1440)">
<rect x="350" y="184" width="249" height="65" fill="#2DD4BF"/>
</g>
<rect x="361" y="191" width="224" height="0.6" fill="#E4E4E7"/>
<rect x="361" y="198" width="218" height="0.6" fill="#E4E4E7"/>
<rect x="361" y="205" width="218" height="0.6" fill="#E4E4E7"/>
<rect x="361" y="212" width="224" height="0.6" fill="#E4E4E7"/>
<rect x="361" y="219" width="220" height="0.6" fill="#E4E4E7"/>
<rect x="361" y="226" width="224" height="0.6" fill="#E4E4E7"/>
<rect x="361" y="233" width="218" height="0.6" fill="#E4E4E7"/>
<rect x="361" y="240" width="111" height="0.6" fill="#E4E4E7"/>
<defs>
<filter id="filter0_f_300_1440" x="0" y="344" width="667" height="31" filterUnits="userSpaceOnUse" color-interpolation-filters="sRGB">
<feFlood flood-opacity="0" result="BackgroundImageFix"/>
<feBlend mode="normal" in="SourceGraphic" in2="BackgroundImageFix" result="shape"/>
<feGaussianBlur stdDeviation="1.5" result="effect1_foregroundBlur_300_1440"/>
</filter>
<filter id="filter1_d_300_1440" x="253" y="312" width="273" height="24" filterUnits="userSpaceOnUse" color-interpolation-filters="sRGB">
<feFlood flood-opacity="0" result="BackgroundImageFix"/>
<feColorMatrix in="SourceAlpha" type="matrix" values="0 0 0 0 0 0 0 0 0 0 0 0 0 0 0 0 0 0 127 0" result="hardAlpha"/>
<feOffset/>
<feGaussianBlur stdDeviation="1"/>
<feComposite in2="hardAlpha" operator="out"/>
<feColorMatrix type="matrix" values="0 0 0 0 0 0 0 0 0 0 0 0 0 0 0 0 0 0 0.25 0"/>
<feBlend mode="normal" in2="BackgroundImageFix" result="effect1_dropShadow_300_1440"/>
<feBlend mode="normal" in="SourceGraphic" in2="effect1_dropShadow_300_1440" result="shape"/>
</filter>
<filter id="filter2_d_300_1440" x="577" y="312" width="24" height="24" filterUnits="userSpaceOnUse" color-interpolation-filters="sRGB">
<feFlood flood-opacity="0" result="BackgroundImageFix"/>
<feColorMatrix in="SourceAlpha" type="matrix" values="0 0 0 0 0 0 0 0 0 0 0 0 0 0 0 0 0 0 127 0" result="hardAlpha"/>
<feOffset/>
<feGaussianBlur stdDeviation="1"/>
<feComposite in2="hardAlpha" operator="out"/>
<feColorMatrix type="matrix" values="0 0 0 0 0 0 0 0 0 0 0 0 0 0 0 0 0 0 0.25 0"/>
<feBlend mode="normal" in2="BackgroundImageFix" result="effect1_dropShadow_300_1440"/>
<feBlend mode="normal" in="SourceGraphic" in2="effect1_dropShadow_300_1440" result="shape"/>
</filter>
<filter id="filter3_d_300_1440" x="552" y="312" width="24" height="24" filterUnits="userSpaceOnUse" color-interpolation-filters="sRGB">
<feFlood flood-opacity="0" result="BackgroundImageFix"/>
<feColorMatrix in="SourceAlpha" type="matrix" values="0 0 0 0 0 0 0 0 0 0 0 0 0 0 0 0 0 0 127 0" result="hardAlpha"/>
<feOffset/>
<feGaussianBlur stdDeviation="1"/>
<feComposite in2="hardAlpha" operator="out"/>
<feColorMatrix type="matrix" values="0 0 0 0 0 0 0 0 0 0 0 0 0 0 0 0 0 0 0.25 0"/>
<feBlend mode="normal" in2="BackgroundImageFix" result="effect1_dropShadow_300_1440"/>
<feBlend mode="normal" in="SourceGraphic" in2="effect1_dropShadow_300_1440" result="shape"/>
</filter>
<filter id="filter4_d_300_1440" x="527" y="312" width="24" height="24" filterUnits="userSpaceOnUse" color-interpolation-filters="sRGB">
<feFlood flood-opacity="0" result="BackgroundImageFix"/>
<feColorMatrix in="SourceAlpha" type="matrix" values="0 0 0 0 0 0 0 0 0 0 0 0 0 0 0 0 0 0 127 0" result="hardAlpha"/>
<feOffset/>
<feGaussianBlur stdDeviation="1"/>
<feComposite in2="hardAlpha" operator="out"/>
<feColorMatrix type="matrix" values="0 0 0 0 0 0 0 0 0 0 0 0 0 0 0 0 0 0 0.25 0"/>
<feBlend mode="normal" in2="BackgroundImageFix" result="effect1_dropShadow_300_1440"/>
<feBlend mode="normal" in="SourceGraphic" in2="effect1_dropShadow_300_1440" result="shape"/>
</filter>
<filter id="filter5_d_300_1440" x="88" y="69" width="154" height="19" filterUnits="userSpaceOnUse" color-interpolation-filters="sRGB">
<feFlood flood-opacity="0" result="BackgroundImageFix"/>
<feColorMatrix in="SourceAlpha" type="matrix" values="0 0 0 0 0 0 0 0 0 0 0 0 0 0 0 0 0 0 127 0" result="hardAlpha"/>
<feOffset/>
<feGaussianBlur stdDeviation="1"/>
<feComposite in2="hardAlpha" operator="out"/>
<feColorMatrix type="matrix" values="0 0 0 0 0 0 0 0 0 0 0 0 0 0 0 0 0 0 0.25 0"/>
<feBlend mode="normal" in2="BackgroundImageFix" result="effect1_dropShadow_300_1440"/>
<feBlend mode="normal" in="SourceGraphic" in2="effect1_dropShadow_300_1440" result="shape"/>
</filter>
<filter id="filter6_d_300_1440" x="84" y="97" width="162" height="54" filterUnits="userSpaceOnUse" color-interpolation-filters="sRGB">
<feFlood flood-opacity="0" result="BackgroundImageFix"/>
<feColorMatrix in="SourceAlpha" type="matrix" values="0 0 0 0 0 0 0 0 0 0 0 0 0 0 0 0 0 0 127 0" result="hardAlpha"/>
<feOffset/>
<feGaussianBlur stdDeviation="1"/>
<feComposite in2="hardAlpha" operator="out"/>
<feColorMatrix type="matrix" values="0 0 0 0 0 0 0 0 0 0 0 0 0 0 0 0 0 0 0.25 0"/>
<feBlend mode="normal" in2="BackgroundImageFix" result="effect1_dropShadow_300_1440"/>
<feBlend mode="normal" in="SourceGraphic" in2="effect1_dropShadow_300_1440" result="shape"/>
</filter>
<filter id="filter7_d_300_1440" x="253" y="69" width="160" height="19" filterUnits="userSpaceOnUse" color-interpolation-filters="sRGB">
<feFlood flood-opacity="0" result="BackgroundImageFix"/>
<feColorMatrix in="SourceAlpha" type="matrix" values="0 0 0 0 0 0 0 0 0 0 0 0 0 0 0 0 0 0 127 0" result="hardAlpha"/>
<feOffset/>
<feGaussianBlur stdDeviation="1"/>
<feComposite in2="hardAlpha" operator="out"/>
<feColorMatrix type="matrix" values="0 0 0 0 0 0 0 0 0 0 0 0 0 0 0 0 0 0 0.25 0"/>
<feBlend mode="normal" in2="BackgroundImageFix" result="effect1_dropShadow_300_1440"/>
<feBlend mode="normal" in="SourceGraphic" in2="effect1_dropShadow_300_1440" result="shape"/>
</filter>
<filter id="filter8_d_300_1440" x="253" y="89" width="253" height="29" filterUnits="userSpaceOnUse" color-interpolation-filters="sRGB">
<feFlood flood-opacity="0" result="BackgroundImageFix"/>
<feColorMatrix in="SourceAlpha" type="matrix" values="0 0 0 0 0 0 0 0 0 0 0 0 0 0 0 0 0 0 127 0" result="hardAlpha"/>
<feOffset/>
<feGaussianBlur stdDeviation="1"/>
<feComposite in2="hardAlpha" operator="out"/>
<feColorMatrix type="matrix" values="0 0 0 0 0 0 0 0 0 0 0 0 0 0 0 0 0 0 0.25 0"/>
<feBlend mode="normal" in2="BackgroundImageFix" result="effect1_dropShadow_300_1440"/>
<feBlend mode="normal" in="SourceGraphic" in2="effect1_dropShadow_300_1440" result="shape"/>
</filter>
<filter id="filter9_d_300_1440" x="253" y="257" width="160" height="19" filterUnits="userSpaceOnUse" color-interpolation-filters="sRGB">
<feFlood flood-opacity="0" result="BackgroundImageFix"/>
<feColorMatrix in="SourceAlpha" type="matrix" values="0 0 0 0 0 0 0 0 0 0 0 0 0 0 0 0 0 0 127 0" result="hardAlpha"/>
<feOffset/>
<feGaussianBlur stdDeviation="1"/>
<feComposite in2="hardAlpha" operator="out"/>
<feColorMatrix type="matrix" values="0 0 0 0 0 0 0 0 0 0 0 0 0 0 0 0 0 0 0.25 0"/>
<feBlend mode="normal" in2="BackgroundImageFix" result="effect1_dropShadow_300_1440"/>
<feBlend mode="normal" in="SourceGraphic" in2="effect1_dropShadow_300_1440" result="shape"/>
</filter>
<filter id="filter10_d_300_1440" x="253" y="277" width="253" height="24" filterUnits="userSpaceOnUse" color-interpolation-filters="sRGB">
<feFlood flood-opacity="0" result="BackgroundImageFix"/>
<feColorMatrix in="SourceAlpha" type="matrix" values="0 0 0 0 0 0 0 0 0 0 0 0 0 0 0 0 0 0 127 0" result="hardAlpha"/>
<feOffset/>
<feGaussianBlur stdDeviation="1"/>
<feComposite in2="hardAlpha" operator="out"/>
<feColorMatrix type="matrix" values="0 0 0 0 0 0 0 0 0 0 0 0 0 0 0 0 0 0 0.25 0"/>
<feBlend mode="normal" in2="BackgroundImageFix" result="effect1_dropShadow_300_1440"/>
<feBlend mode="normal" in="SourceGraphic" in2="effect1_dropShadow_300_1440" result="shape"/>
</filter>
<filter id="filter11_d_300_1440" x="348" y="161" width="160" height="19" filterUnits="userSpaceOnUse" color-interpolation-filters="sRGB">
<feFlood flood-opacity="0" result="BackgroundImageFix"/>
<feColorMatrix in="SourceAlpha" type="matrix" values="0 0 0 0 0 0 0 0 0 0 0 0 0 0 0 0 0 0 127 0" result="hardAlpha"/>
<feOffset/>
<feGaussianBlur stdDeviation="1"/>
<feComposite in2="hardAlpha" operator="out"/>
<feColorMatrix type="matrix" values="0 0 0 0 0 0 0 0 0 0 0 0 0 0 0 0 0 0 0.25 0"/>
<feBlend mode="normal" in2="BackgroundImageFix" result="effect1_dropShadow_300_1440"/>
<feBlend mode="normal" in="SourceGraphic" in2="effect1_dropShadow_300_1440" result="shape"/>
</filter>
<filter id="filter12_d_300_1440" x="348" y="130" width="253" height="29" filterUnits="userSpaceOnUse" color-interpolation-filters="sRGB">
<feFlood flood-opacity="0" result="BackgroundImageFix"/>
<feColorMatrix in="SourceAlpha" type="matrix" values="0 0 0 0 0 0 0 0 0 0 0 0 0 0 0 0 0 0 127 0" result="hardAlpha"/>
<feOffset/>
<feGaussianBlur stdDeviation="1"/>
<feComposite in2="hardAlpha" operator="out"/>
<feColorMatrix type="matrix" values="0 0 0 0 0 0 0 0 0 0 0 0 0 0 0 0 0 0 0.25 0"/>
<feBlend mode="normal" in2="BackgroundImageFix" result="effect1_dropShadow_300_1440"/>
<feBlend mode="normal" in="SourceGraphic" in2="effect1_dropShadow_300_1440" result="shape"/>
</filter>
<filter id="filter13_d_300_1440" x="348" y="182" width="253" height="69" filterUnits="userSpaceOnUse" color-interpolation-filters="sRGB">
<feFlood flood-opacity="0" result="BackgroundImageFix"/>
<feColorMatrix in="SourceAlpha" type="matrix" values="0 0 0 0 0 0 0 0 0 0 0 0 0 0 0 0 0 0 127 0" result="hardAlpha"/>
<feOffset/>
<feGaussianBlur stdDeviation="1"/>
<feComposite in2="hardAlpha" operator="out"/>
<feColorMatrix type="matrix" values="0 0 0 0 0 0 0 0 0 0 0 0 0 0 0 0 0 0 0.25 0"/>
<feBlend mode="normal" in2="BackgroundImageFix" result="effect1_dropShadow_300_1440"/>
<feBlend mode="normal" in="SourceGraphic" in2="effect1_dropShadow_300_1440" result="shape"/>
</filter>
</defs>
</svg>
