<svg width="449" height="400" viewBox="0 0 449 400" fill="none" xmlns="http://www.w3.org/2000/svg">
<path d="M38.4474 49.2435C70.7221 -19.4787 185.325 -9.7801 229.552 38.5393C273.779 86.8585 288.148 117.839 328.04 99.8055C367.933 81.7723 418.807 86.581 421.731 143.917C424.656 201.253 377.874 269.051 303.719 289.107C229.564 309.163 229.552 380.151 131.364 365.828C77.8312 358.025 76.6059 300.1 84.166 252.197C91.7257 204.293 1.02879 128.936 38.4474 49.2435Z" fill="#CCFBF1"/>
<path d="M224.13 399.918C347.915 399.918 448.261 394.059 448.261 386.832C448.261 379.606 347.915 373.747 224.13 373.747C100.347 373.747 0 379.606 0 386.832C0 394.059 100.347 399.918 224.13 399.918Z" fill="#D4D4D8"/>
<g filter="url(#filter0_d_275_135)">
<path d="M307.303 82.3271H100.489C95.815 82.3271 92.0269 86.1161 92.0269 90.7888V334.305C92.0269 338.979 95.815 342.767 100.489 342.767H307.303C311.975 342.767 315.764 338.979 315.764 334.305V90.7888C315.764 86.1161 311.975 82.3271 307.303 82.3271Z" fill="#99F6E4"/>
</g>
<path opacity="0.2" d="M279.524 291.825H128.277V317.719H279.524V291.825Z" fill="black"/>
<path d="M279.524 290.242H128.277V316.135H279.524V290.242Z" fill="#2DD4BF"/>
<path d="M181.93 304.832H182.819C182.772 305.258 182.651 305.639 182.453 305.976C182.255 306.313 181.976 306.58 181.614 306.778C181.253 306.972 180.802 307.07 180.262 307.07C179.866 307.07 179.507 306.995 179.183 306.847C178.862 306.699 178.585 306.489 178.353 306.217C178.122 305.942 177.943 305.613 177.817 305.231C177.693 304.844 177.631 304.415 177.631 303.943V303.271C177.631 302.799 177.693 302.372 177.817 301.988C177.943 301.602 178.123 301.272 178.358 300.997C178.596 300.722 178.881 300.511 179.215 300.362C179.549 300.214 179.924 300.14 180.341 300.14C180.85 300.14 181.281 300.236 181.633 300.428C181.985 300.619 182.259 300.885 182.453 301.224C182.651 301.56 182.772 301.951 182.819 302.396H181.93C181.886 302.081 181.806 301.811 181.689 301.585C181.572 301.356 181.405 301.181 181.188 301.057C180.972 300.934 180.689 300.872 180.341 300.872C180.041 300.872 179.777 300.929 179.549 301.043C179.323 301.157 179.134 301.319 178.979 301.53C178.828 301.74 178.713 301.991 178.636 302.285C178.559 302.578 178.52 302.904 178.52 303.262V303.943C178.52 304.273 178.554 304.583 178.622 304.874C178.693 305.164 178.8 305.419 178.942 305.638C179.084 305.858 179.265 306.03 179.484 306.157C179.703 306.281 179.962 306.342 180.262 306.342C180.642 306.342 180.945 306.282 181.17 306.161C181.395 306.041 181.565 305.868 181.679 305.643C181.797 305.417 181.88 305.147 181.93 304.832ZM189.229 303.392V303.818C189.229 304.324 189.166 304.778 189.04 305.179C188.913 305.581 188.73 305.922 188.493 306.203C188.255 306.485 187.969 306.699 187.636 306.847C187.305 306.995 186.935 307.07 186.524 307.07C186.126 307.07 185.76 306.995 185.426 306.847C185.096 306.699 184.809 306.485 184.565 306.203C184.324 305.922 184.138 305.581 184.005 305.179C183.872 304.778 183.806 304.324 183.806 303.818V303.392C183.806 302.885 183.87 302.433 184 302.035C184.133 301.633 184.319 301.292 184.56 301.011C184.801 300.726 185.087 300.511 185.417 300.362C185.751 300.214 186.117 300.14 186.515 300.14C186.926 300.14 187.296 300.214 187.627 300.362C187.961 300.511 188.246 300.726 188.484 301.011C188.724 301.292 188.908 301.633 189.035 302.035C189.164 302.433 189.229 302.885 189.229 303.392ZM188.345 303.818V303.383C188.345 302.981 188.303 302.626 188.22 302.317C188.139 302.009 188.021 301.749 187.862 301.539C187.705 301.329 187.512 301.17 187.284 301.062C187.059 300.954 186.802 300.9 186.515 300.9C186.237 300.9 185.985 300.954 185.76 301.062C185.538 301.17 185.346 301.329 185.186 301.539C185.028 301.749 184.906 302.009 184.82 302.317C184.734 302.626 184.69 302.981 184.69 303.383V303.818C184.69 304.222 184.734 304.58 184.82 304.892C184.906 305.202 185.029 305.462 185.191 305.675C185.354 305.885 185.547 306.044 185.769 306.153C185.994 306.26 186.247 306.315 186.524 306.315C186.814 306.315 187.072 306.26 187.298 306.153C187.523 306.044 187.713 305.885 187.867 305.675C188.025 305.462 188.144 305.202 188.225 304.892C188.304 304.58 188.345 304.222 188.345 303.818ZM195.756 300.232V306.977H194.857L191.462 301.775V306.977H190.568V300.232H191.462L194.871 305.448V300.232H195.756ZM198.234 300.232V306.977H197.34V300.232H198.234ZM201.059 303.266V303.998H198.04V303.266H201.059ZM201.518 300.232V300.964H198.04V300.232H201.518ZM203.542 300.232V306.977H202.648V300.232H203.542ZM205.168 300.232H207.4C207.907 300.232 208.334 300.31 208.683 300.464C209.036 300.619 209.303 300.847 209.485 301.15C209.67 301.449 209.763 301.818 209.763 302.257C209.763 302.566 209.7 302.848 209.572 303.104C209.449 303.358 209.27 303.574 209.036 303.753C208.804 303.929 208.526 304.06 208.202 304.147L207.952 304.244H205.853L205.844 303.517H207.428C207.749 303.517 208.017 303.461 208.229 303.35C208.443 303.236 208.603 303.083 208.711 302.892C208.819 302.7 208.874 302.489 208.874 302.257C208.874 301.998 208.822 301.771 208.72 301.576C208.618 301.382 208.458 301.232 208.239 301.126C208.022 301.019 207.743 300.964 207.4 300.964H206.062V306.977H205.168V300.232ZM209.109 306.977L207.47 303.919L208.401 303.915L210.063 306.921V306.977H209.109ZM211.296 300.232H212.162L214.372 305.731L216.576 300.232H217.447L214.705 306.977H214.028L211.296 300.232ZM211.013 300.232H211.777L211.903 304.346V306.977H211.013V300.232ZM216.96 300.232H217.725V306.977H216.836V304.346L216.96 300.232ZM221.875 300.83L219.643 306.977H218.73L221.3 300.232H221.889L221.875 300.83ZM223.746 306.977L221.509 300.83L221.495 300.232H222.084L224.663 306.977H223.746ZM223.631 304.48V305.212H219.842V304.48H223.631ZM225.567 300.232H227.799C228.306 300.232 228.734 300.31 229.082 300.464C229.434 300.619 229.701 300.847 229.884 301.15C230.069 301.449 230.161 301.818 230.161 302.257C230.161 302.566 230.098 302.848 229.972 303.104C229.848 303.358 229.669 303.574 229.434 303.753C229.202 303.929 228.925 304.06 228.601 304.147L228.35 304.244H226.252L226.243 303.517H227.827C228.148 303.517 228.415 303.461 228.628 303.35C228.841 303.236 229.002 303.083 229.11 302.892C229.218 302.7 229.272 302.489 229.272 302.257C229.272 301.998 229.221 301.771 229.119 301.576C229.017 301.382 228.857 301.232 228.638 301.126C228.421 301.019 228.142 300.964 227.799 300.964H226.461V306.977H225.567V300.232ZM229.508 306.977L227.869 303.919L228.8 303.915L230.462 306.921V306.977H229.508Z" fill="white"/>
<path d="M279.31 244.526H128.063V270.42H279.31V244.526Z" fill="white"/>
<path d="M138.021 259.595C138.534 259.595 138.932 259.503 139.217 259.319C139.501 259.13 139.643 258.826 139.643 258.409C139.643 258.168 139.596 257.969 139.501 257.811C139.413 257.647 139.292 257.511 139.141 257.403C138.989 257.289 138.815 257.195 138.619 257.119C138.423 257.036 138.217 256.951 138.002 256.862C137.73 256.755 137.487 256.644 137.272 256.53C137.057 256.417 136.874 256.29 136.722 256.151C136.57 256.006 136.453 255.841 136.371 255.658C136.295 255.474 136.257 255.259 136.257 255.013C136.257 254.45 136.443 254.023 136.817 253.732C137.19 253.441 137.708 253.296 138.372 253.296C138.549 253.296 138.723 253.308 138.894 253.334C139.065 253.359 139.223 253.394 139.368 253.438C139.52 253.476 139.656 253.52 139.776 253.571C139.903 253.621 140.007 253.675 140.089 253.732L139.862 254.273C139.678 254.146 139.454 254.045 139.188 253.969C138.929 253.893 138.647 253.855 138.344 253.855C138.135 253.855 137.942 253.878 137.765 253.922C137.594 253.96 137.446 254.026 137.319 254.121C137.193 254.21 137.092 254.323 137.016 254.462C136.946 254.602 136.911 254.769 136.911 254.965C136.911 255.168 136.949 255.338 137.025 255.478C137.101 255.617 137.206 255.737 137.338 255.838C137.477 255.939 137.639 256.031 137.822 256.113C138.006 256.195 138.205 256.281 138.42 256.369C138.679 256.477 138.923 256.584 139.15 256.692C139.384 256.799 139.587 256.926 139.757 257.071C139.928 257.217 140.064 257.394 140.165 257.602C140.266 257.811 140.317 258.067 140.317 258.371C140.317 258.965 140.108 259.411 139.691 259.708C139.28 260.006 138.72 260.154 138.012 260.154C137.759 260.154 137.528 260.138 137.319 260.107C137.111 260.075 136.924 260.037 136.76 259.993C136.595 259.942 136.456 259.892 136.342 259.841C136.228 259.791 136.14 259.746 136.077 259.708L136.285 259.149C136.349 259.187 136.434 259.231 136.541 259.281C136.649 259.332 136.775 259.383 136.921 259.433C137.066 259.478 137.231 259.515 137.414 259.547C137.598 259.579 137.8 259.595 138.021 259.595ZM141.176 257.555C141.176 257.125 141.236 256.752 141.357 256.436C141.483 256.113 141.644 255.844 141.84 255.629C142.043 255.414 142.27 255.256 142.523 255.155C142.783 255.047 143.048 254.994 143.32 254.994C143.921 254.994 144.398 255.19 144.753 255.582C145.113 255.974 145.293 256.578 145.293 257.394C145.293 257.444 145.29 257.495 145.284 257.546C145.284 257.596 145.281 257.644 145.274 257.688H141.831C141.85 258.289 141.998 258.75 142.277 259.073C142.555 259.395 142.998 259.557 143.605 259.557C143.94 259.557 144.206 259.525 144.402 259.462C144.598 259.398 144.74 259.345 144.828 259.3L144.942 259.832C144.854 259.882 144.686 259.942 144.44 260.012C144.199 260.081 143.915 260.116 143.586 260.116C143.156 260.116 142.789 260.053 142.485 259.927C142.182 259.8 141.932 259.623 141.736 259.395C141.54 259.168 141.398 258.899 141.309 258.589C141.221 258.273 141.176 257.928 141.176 257.555ZM144.658 257.166C144.645 256.654 144.525 256.255 144.297 255.971C144.07 255.686 143.747 255.544 143.33 255.544C143.108 255.544 142.909 255.588 142.732 255.677C142.561 255.765 142.409 255.885 142.277 256.037C142.15 256.183 142.049 256.353 141.973 256.549C141.904 256.746 141.862 256.951 141.85 257.166H144.658ZM146.667 255.278C146.851 255.228 147.097 255.171 147.407 255.108C147.717 255.044 148.096 255.013 148.545 255.013C148.919 255.013 149.228 255.066 149.475 255.174C149.728 255.281 149.927 255.436 150.073 255.639C150.224 255.835 150.332 256.072 150.395 256.35C150.458 256.628 150.49 256.935 150.49 257.27V260.012H149.874V257.47C149.874 257.122 149.848 256.828 149.798 256.587C149.753 256.347 149.674 256.151 149.56 255.999C149.453 255.847 149.307 255.74 149.124 255.677C148.947 255.607 148.723 255.572 148.451 255.572C148.16 255.572 147.907 255.588 147.692 255.62C147.483 255.651 147.347 255.68 147.284 255.705V260.012H146.667V255.278ZM152.068 260.012V252.764L152.685 252.651V255.25C152.887 255.174 153.092 255.117 153.301 255.079C153.51 255.035 153.719 255.013 153.927 255.013C154.307 255.013 154.623 255.066 154.876 255.174C155.129 255.281 155.331 255.436 155.483 255.639C155.635 255.835 155.739 256.072 155.796 256.35C155.859 256.628 155.891 256.935 155.891 257.27V260.012H155.274V257.47C155.274 257.122 155.249 256.828 155.198 256.587C155.154 256.347 155.075 256.151 154.961 255.999C154.854 255.847 154.708 255.74 154.525 255.677C154.341 255.607 154.111 255.572 153.832 255.572C153.725 255.572 153.608 255.582 153.481 255.601C153.361 255.62 153.247 255.642 153.14 255.667C153.032 255.686 152.934 255.708 152.846 255.734C152.764 255.759 152.71 255.778 152.685 255.791V260.012H152.068ZM159.015 259.566C159.255 259.566 159.464 259.56 159.641 259.547C159.824 259.528 159.979 259.506 160.106 259.481V257.754C160.036 257.723 159.926 257.691 159.774 257.659C159.622 257.621 159.413 257.602 159.148 257.602C158.996 257.602 158.838 257.615 158.674 257.64C158.509 257.659 158.357 257.707 158.218 257.783C158.079 257.852 157.965 257.95 157.877 258.077C157.788 258.203 157.744 258.371 157.744 258.579C157.744 258.763 157.772 258.918 157.829 259.044C157.892 259.171 157.978 259.272 158.085 259.348C158.199 259.424 158.332 259.481 158.484 259.519C158.642 259.55 158.819 259.566 159.015 259.566ZM158.958 254.994C159.281 254.994 159.553 255.041 159.774 255.136C160.002 255.225 160.185 255.351 160.324 255.515C160.463 255.674 160.564 255.863 160.628 256.085C160.691 256.306 160.723 256.546 160.723 256.806V259.898C160.659 259.917 160.568 259.939 160.447 259.964C160.327 259.983 160.188 260.006 160.03 260.031C159.872 260.056 159.695 260.075 159.499 260.088C159.309 260.107 159.113 260.116 158.911 260.116C158.651 260.116 158.411 260.088 158.19 260.031C157.975 259.974 157.785 259.885 157.621 259.765C157.462 259.639 157.336 259.481 157.241 259.291C157.153 259.095 157.108 258.858 157.108 258.579C157.108 258.314 157.159 258.086 157.26 257.896C157.361 257.707 157.504 257.552 157.687 257.432C157.87 257.305 158.089 257.213 158.341 257.157C158.594 257.1 158.87 257.071 159.167 257.071C159.255 257.071 159.347 257.078 159.442 257.09C159.543 257.096 159.638 257.109 159.726 257.128C159.821 257.141 159.9 257.157 159.964 257.176C160.033 257.188 160.081 257.201 160.106 257.213V256.91C160.106 256.739 160.093 256.575 160.068 256.417C160.043 256.252 159.986 256.107 159.897 255.98C159.815 255.847 159.695 255.743 159.537 255.667C159.385 255.585 159.183 255.544 158.93 255.544C158.569 255.544 158.3 255.569 158.123 255.62C157.946 255.67 157.817 255.712 157.734 255.743L157.649 255.202C157.757 255.152 157.921 255.104 158.142 255.06C158.37 255.016 158.642 254.994 158.958 254.994Z" fill="black" fill-opacity="0.3"/>
<path d="M279.31 208.953H128.063V234.847H279.31V208.953Z" fill="white"/>
<path d="M136.608 224.439V217.865H140.402V218.424H137.253V220.711H140.061V221.261H137.253V223.879H140.649V224.439H136.608ZM141.281 221.394H143.425V221.991H141.281V221.394ZM144.509 219.705C144.692 219.654 144.93 219.598 145.221 219.534C145.518 219.471 145.9 219.439 146.368 219.439C146.988 219.439 147.437 219.62 147.715 219.98C147.747 219.955 147.807 219.914 147.896 219.857C147.991 219.794 148.108 219.73 148.247 219.667C148.386 219.604 148.547 219.55 148.73 219.506C148.92 219.462 149.129 219.439 149.357 219.439C149.73 219.439 150.03 219.496 150.258 219.61C150.492 219.718 150.672 219.873 150.798 220.075C150.925 220.271 151.01 220.508 151.055 220.786C151.099 221.065 151.121 221.368 151.121 221.697V224.439H150.504V221.896C150.504 221.574 150.489 221.296 150.457 221.062C150.432 220.821 150.375 220.625 150.286 220.473C150.204 220.315 150.084 220.198 149.926 220.122C149.768 220.04 149.562 219.999 149.309 219.999C149.119 219.999 148.945 220.018 148.787 220.056C148.636 220.088 148.503 220.129 148.389 220.179C148.275 220.23 148.18 220.281 148.104 220.331C148.035 220.382 147.984 220.42 147.953 220.445C148.009 220.609 148.051 220.796 148.076 221.005C148.108 221.207 148.123 221.422 148.123 221.65V224.439H147.507V221.896C147.507 221.574 147.491 221.296 147.459 221.062C147.434 220.821 147.377 220.625 147.289 220.473C147.2 220.315 147.074 220.198 146.909 220.122C146.751 220.04 146.539 219.999 146.274 219.999C145.976 219.999 145.723 220.015 145.515 220.047C145.312 220.078 145.183 220.107 145.126 220.132V224.439H144.509V219.705ZM154.244 223.993C154.485 223.993 154.693 223.986 154.87 223.974C155.054 223.955 155.209 223.933 155.335 223.907V222.181C155.266 222.149 155.155 222.118 155.003 222.086C154.851 222.048 154.643 222.029 154.377 222.029C154.225 222.029 154.067 222.042 153.903 222.067C153.738 222.086 153.587 222.134 153.447 222.209C153.308 222.279 153.194 222.377 153.106 222.503C153.017 222.63 152.973 222.798 152.973 223.006C152.973 223.19 153.002 223.345 153.059 223.471C153.122 223.598 153.207 223.699 153.315 223.775C153.428 223.851 153.561 223.907 153.713 223.945C153.871 223.977 154.048 223.993 154.244 223.993ZM154.187 219.42C154.51 219.42 154.782 219.468 155.003 219.563C155.231 219.651 155.414 219.778 155.553 219.942C155.692 220.1 155.794 220.29 155.857 220.511C155.92 220.733 155.952 220.973 155.952 221.232V224.325C155.889 224.344 155.797 224.366 155.677 224.391C155.557 224.41 155.417 224.432 155.259 224.458C155.101 224.483 154.924 224.502 154.728 224.515C154.538 224.534 154.342 224.543 154.14 224.543C153.881 224.543 153.64 224.515 153.419 224.458C153.204 224.401 153.014 224.312 152.85 224.192C152.692 224.066 152.565 223.907 152.47 223.718C152.382 223.522 152.338 223.285 152.338 223.006C152.338 222.741 152.388 222.513 152.489 222.323C152.591 222.134 152.733 221.979 152.916 221.858C153.1 221.732 153.318 221.64 153.571 221.583C153.824 221.526 154.099 221.498 154.396 221.498C154.485 221.498 154.576 221.504 154.671 221.517C154.772 221.523 154.867 221.536 154.956 221.555C155.051 221.568 155.13 221.583 155.193 221.602C155.262 221.615 155.31 221.628 155.335 221.64V221.337C155.335 221.166 155.323 221.002 155.297 220.843C155.272 220.679 155.215 220.534 155.126 220.407C155.044 220.274 154.924 220.17 154.766 220.094C154.614 220.012 154.412 219.971 154.159 219.971C153.798 219.971 153.53 219.996 153.353 220.047C153.175 220.097 153.046 220.138 152.964 220.17L152.878 219.629C152.986 219.579 153.15 219.531 153.372 219.487C153.599 219.443 153.871 219.42 154.187 219.42ZM158.141 224.439H157.525V219.534H158.141V224.439ZM158.284 218.054C158.284 218.2 158.24 218.317 158.151 218.405C158.062 218.488 157.955 218.529 157.828 218.529C157.702 218.529 157.594 218.488 157.506 218.405C157.417 218.317 157.373 218.2 157.373 218.054C157.373 217.909 157.417 217.795 157.506 217.713C157.594 217.624 157.702 217.58 157.828 217.58C157.955 217.58 158.062 217.624 158.151 217.713C158.24 217.795 158.284 217.909 158.284 218.054ZM161.018 224.524C160.809 224.518 160.626 224.489 160.468 224.439C160.316 224.394 160.187 224.325 160.079 224.23C159.978 224.129 159.899 224.002 159.842 223.851C159.791 223.692 159.766 223.496 159.766 223.262V217.191L160.383 217.077V223.243C160.383 223.395 160.395 223.519 160.421 223.613C160.452 223.702 160.496 223.775 160.553 223.832C160.61 223.882 160.683 223.92 160.772 223.945C160.866 223.971 160.977 223.993 161.104 224.012L161.018 224.524Z" fill="black" fill-opacity="0.3"/>
<path d="M279.31 173.38H128.063V199.273H279.31V173.38Z" fill="white"/>
<path d="M138.021 188.448C138.534 188.448 138.932 188.357 139.217 188.173C139.501 187.983 139.643 187.68 139.643 187.262C139.643 187.022 139.596 186.823 139.501 186.665C139.413 186.5 139.292 186.364 139.141 186.257C138.989 186.143 138.815 186.048 138.619 185.972C138.423 185.89 138.217 185.805 138.002 185.716C137.73 185.609 137.487 185.498 137.272 185.384C137.057 185.27 136.874 185.144 136.722 185.005C136.57 184.859 136.453 184.695 136.371 184.512C136.295 184.328 136.257 184.113 136.257 183.866C136.257 183.304 136.443 182.877 136.817 182.586C137.19 182.295 137.708 182.149 138.372 182.149C138.549 182.149 138.723 182.162 138.894 182.187C139.065 182.213 139.223 182.247 139.368 182.292C139.52 182.33 139.656 182.374 139.776 182.425C139.903 182.475 140.007 182.529 140.089 182.586L139.862 183.127C139.678 183 139.454 182.899 139.188 182.823C138.929 182.747 138.647 182.709 138.344 182.709C138.135 182.709 137.942 182.731 137.765 182.776C137.594 182.813 137.446 182.88 137.319 182.975C137.193 183.063 137.092 183.177 137.016 183.316C136.946 183.455 136.911 183.623 136.911 183.819C136.911 184.021 136.949 184.192 137.025 184.331C137.101 184.47 137.206 184.591 137.338 184.692C137.477 184.793 137.639 184.885 137.822 184.967C138.006 185.049 138.205 185.134 138.42 185.223C138.679 185.33 138.923 185.438 139.15 185.546C139.384 185.653 139.587 185.78 139.757 185.925C139.928 186.07 140.064 186.247 140.165 186.456C140.266 186.665 140.317 186.921 140.317 187.225C140.317 187.819 140.108 188.265 139.691 188.562C139.28 188.859 138.72 189.008 138.012 189.008C137.759 189.008 137.528 188.992 137.319 188.961C137.111 188.929 136.924 188.891 136.76 188.847C136.595 188.796 136.456 188.746 136.342 188.695C136.228 188.644 136.14 188.6 136.077 188.562L136.285 188.002C136.349 188.04 136.434 188.085 136.541 188.135C136.649 188.186 136.775 188.236 136.921 188.287C137.066 188.331 137.231 188.369 137.414 188.401C137.598 188.432 137.8 188.448 138.021 188.448ZM145.654 186.418C145.654 186.804 145.597 187.155 145.483 187.471C145.375 187.787 145.221 188.056 145.018 188.278C144.822 188.499 144.588 188.673 144.316 188.799C144.044 188.919 143.744 188.98 143.415 188.98C143.086 188.98 142.786 188.919 142.514 188.799C142.242 188.673 142.005 188.499 141.802 188.278C141.606 188.056 141.451 187.787 141.338 187.471C141.23 187.155 141.176 186.804 141.176 186.418C141.176 186.032 141.23 185.681 141.338 185.365C141.451 185.049 141.606 184.78 141.802 184.559C142.005 184.331 142.242 184.157 142.514 184.037C142.786 183.911 143.086 183.847 143.415 183.847C143.744 183.847 144.044 183.911 144.316 184.037C144.588 184.157 144.822 184.331 145.018 184.559C145.221 184.78 145.375 185.049 145.483 185.365C145.597 185.681 145.654 186.032 145.654 186.418ZM144.999 186.418C144.999 185.805 144.857 185.318 144.572 184.957C144.288 184.591 143.902 184.407 143.415 184.407C142.928 184.407 142.542 184.591 142.258 184.957C141.973 185.318 141.831 185.805 141.831 186.418C141.831 187.032 141.973 187.519 142.258 187.879C142.542 188.24 142.928 188.42 143.415 188.42C143.902 188.42 144.288 188.24 144.572 187.879C144.857 187.519 144.999 187.032 144.999 186.418ZM147.608 184.255C147.715 184.173 147.886 184.088 148.12 183.999C148.36 183.904 148.642 183.857 148.964 183.857C149.319 183.857 149.632 183.92 149.904 184.047C150.182 184.173 150.416 184.35 150.606 184.578C150.795 184.806 150.938 185.078 151.032 185.394C151.134 185.704 151.184 186.045 151.184 186.418C151.184 186.817 151.124 187.174 151.004 187.49C150.89 187.806 150.726 188.075 150.511 188.296C150.302 188.518 150.049 188.689 149.752 188.809C149.461 188.923 149.135 188.98 148.775 188.98C148.338 188.98 147.978 188.951 147.693 188.894C147.409 188.837 147.175 188.777 146.991 188.714V181.618L147.608 181.504V184.255ZM147.608 188.287C147.703 188.319 147.842 188.35 148.025 188.382C148.215 188.407 148.462 188.42 148.765 188.42C149.296 188.42 149.723 188.249 150.046 187.908C150.368 187.56 150.53 187.063 150.53 186.418C150.53 186.146 150.501 185.89 150.444 185.65C150.387 185.403 150.296 185.191 150.169 185.014C150.043 184.831 149.875 184.685 149.666 184.578C149.464 184.47 149.211 184.417 148.907 184.417C148.762 184.417 148.623 184.432 148.49 184.464C148.357 184.489 148.234 184.524 148.12 184.568C148.006 184.613 147.905 184.66 147.817 184.711C147.734 184.761 147.665 184.809 147.608 184.853V188.287ZM154.191 183.866C154.394 183.866 154.583 183.882 154.76 183.914C154.944 183.946 155.07 183.977 155.14 184.009L155.017 184.54C154.966 184.515 154.862 184.489 154.704 184.464C154.552 184.432 154.349 184.417 154.096 184.417C153.831 184.417 153.616 184.436 153.451 184.474C153.293 184.512 153.189 184.543 153.138 184.568V188.866H152.522V184.189C152.68 184.119 152.898 184.05 153.176 183.98C153.455 183.904 153.793 183.866 154.191 183.866ZM155.776 186.409C155.776 185.979 155.836 185.606 155.957 185.289C156.083 184.967 156.244 184.698 156.44 184.483C156.643 184.268 156.87 184.11 157.123 184.009C157.383 183.901 157.648 183.847 157.92 183.847C158.521 183.847 158.998 184.044 159.353 184.436C159.713 184.828 159.893 185.432 159.893 186.247C159.893 186.298 159.89 186.349 159.884 186.399C159.884 186.45 159.881 186.497 159.874 186.542H156.431C156.45 187.142 156.598 187.604 156.877 187.927C157.155 188.249 157.598 188.41 158.205 188.41C158.54 188.41 158.806 188.379 159.002 188.315C159.198 188.252 159.34 188.198 159.428 188.154L159.542 188.685C159.454 188.736 159.286 188.796 159.04 188.866C158.799 188.935 158.515 188.97 158.186 188.97C157.756 188.97 157.389 188.907 157.085 188.78C156.782 188.654 156.532 188.477 156.336 188.249C156.14 188.021 155.998 187.753 155.909 187.443C155.821 187.127 155.776 186.782 155.776 186.409ZM159.258 186.02C159.245 185.508 159.125 185.109 158.897 184.825C158.67 184.54 158.347 184.398 157.93 184.398C157.708 184.398 157.509 184.442 157.332 184.53C157.161 184.619 157.009 184.739 156.877 184.891C156.75 185.036 156.649 185.207 156.573 185.403C156.504 185.599 156.462 185.805 156.45 186.02H159.258ZM161.267 184.132C161.451 184.081 161.697 184.025 162.007 183.961C162.317 183.898 162.696 183.866 163.145 183.866C163.519 183.866 163.828 183.92 164.075 184.028C164.328 184.135 164.527 184.29 164.673 184.493C164.824 184.689 164.932 184.926 164.995 185.204C165.058 185.482 165.09 185.789 165.09 186.124V188.866H164.474V186.323C164.474 185.976 164.448 185.681 164.398 185.441C164.353 185.201 164.274 185.005 164.16 184.853C164.053 184.701 163.907 184.594 163.724 184.53C163.547 184.461 163.323 184.426 163.051 184.426C162.76 184.426 162.507 184.442 162.292 184.474C162.083 184.505 161.947 184.534 161.884 184.559V188.866H161.267V184.132ZM170.851 186.418C170.851 186.804 170.794 187.155 170.681 187.471C170.573 187.787 170.418 188.056 170.216 188.278C170.02 188.499 169.786 188.673 169.514 188.799C169.242 188.919 168.941 188.98 168.613 188.98C168.284 188.98 167.983 188.919 167.711 188.799C167.44 188.673 167.202 188.499 167 188.278C166.804 188.056 166.649 187.787 166.535 187.471C166.428 187.155 166.374 186.804 166.374 186.418C166.374 186.032 166.428 185.681 166.535 185.365C166.649 185.049 166.804 184.78 167 184.559C167.202 184.331 167.44 184.157 167.711 184.037C167.983 183.911 168.284 183.847 168.613 183.847C168.941 183.847 169.242 183.911 169.514 184.037C169.786 184.157 170.02 184.331 170.216 184.559C170.418 184.78 170.573 185.049 170.681 185.365C170.794 185.681 170.851 186.032 170.851 186.418ZM170.197 186.418C170.197 185.805 170.055 185.318 169.77 184.957C169.485 184.591 169.1 184.407 168.613 184.407C168.126 184.407 167.74 184.591 167.455 184.957C167.171 185.318 167.028 185.805 167.028 186.418C167.028 187.032 167.171 187.519 167.455 187.879C167.74 188.24 168.126 188.42 168.613 188.42C169.1 188.42 169.485 188.24 169.77 187.879C170.055 187.519 170.197 187.032 170.197 186.418ZM172.189 184.132C172.372 184.081 172.609 184.025 172.9 183.961C173.198 183.898 173.58 183.866 174.048 183.866C174.668 183.866 175.117 184.047 175.395 184.407C175.427 184.382 175.487 184.341 175.575 184.284C175.67 184.221 175.787 184.157 175.926 184.094C176.066 184.031 176.227 183.977 176.41 183.933C176.6 183.889 176.809 183.866 177.036 183.866C177.409 183.866 177.71 183.923 177.938 184.037C178.172 184.145 178.352 184.3 178.478 184.502C178.605 184.698 178.69 184.935 178.734 185.213C178.779 185.492 178.801 185.795 178.801 186.124V188.866H178.184V186.323C178.184 186.001 178.168 185.723 178.137 185.489C178.111 185.248 178.055 185.052 177.966 184.9C177.884 184.742 177.764 184.625 177.606 184.549C177.447 184.467 177.242 184.426 176.989 184.426C176.799 184.426 176.625 184.445 176.467 184.483C176.315 184.515 176.183 184.556 176.069 184.606C175.955 184.657 175.86 184.708 175.784 184.758C175.715 184.809 175.664 184.847 175.632 184.872C175.689 185.036 175.73 185.223 175.756 185.432C175.787 185.634 175.803 185.849 175.803 186.077V188.866H175.187V186.323C175.187 186.001 175.171 185.723 175.139 185.489C175.114 185.248 175.057 185.052 174.968 184.9C174.88 184.742 174.753 184.625 174.589 184.549C174.431 184.467 174.219 184.426 173.953 184.426C173.656 184.426 173.403 184.442 173.194 184.474C172.992 184.505 172.862 184.534 172.806 184.559V188.866H172.189V184.132ZM180.085 186.409C180.085 185.979 180.145 185.606 180.265 185.289C180.391 184.967 180.553 184.698 180.749 184.483C180.951 184.268 181.179 184.11 181.432 184.009C181.691 183.901 181.957 183.847 182.228 183.847C182.829 183.847 183.307 184.044 183.661 184.436C184.021 184.828 184.202 185.432 184.202 186.247C184.202 186.298 184.198 186.349 184.192 186.399C184.192 186.45 184.189 186.497 184.183 186.542H180.739C180.758 187.142 180.907 187.604 181.185 187.927C181.463 188.249 181.906 188.41 182.513 188.41C182.848 188.41 183.114 188.379 183.31 188.315C183.506 188.252 183.648 188.198 183.737 188.154L183.851 188.685C183.762 188.736 183.594 188.796 183.348 188.866C183.107 188.935 182.823 188.97 182.494 188.97C182.064 188.97 181.697 188.907 181.394 188.78C181.09 188.654 180.84 188.477 180.644 188.249C180.448 188.021 180.306 187.753 180.217 187.443C180.129 187.127 180.085 186.782 180.085 186.409ZM183.566 186.02C183.553 185.508 183.433 185.109 183.206 184.825C182.978 184.54 182.655 184.398 182.238 184.398C182.017 184.398 181.817 184.442 181.64 184.53C181.47 184.619 181.318 184.739 181.185 184.891C181.058 185.036 180.957 185.207 180.881 185.403C180.812 185.599 180.771 185.805 180.758 186.02H183.566Z" fill="black" fill-opacity="0.3"/>
<path d="M279.524 138.131H128.277V164.025H279.524V138.131Z" fill="white"/>
<path d="M141.3 153.617C141.179 153.396 141.025 153.137 140.835 152.84C140.651 152.542 140.449 152.226 140.228 151.891C140.006 151.549 139.772 151.202 139.526 150.847C139.279 150.487 139.032 150.139 138.786 149.804C138.545 149.462 138.308 149.143 138.074 148.846C137.847 148.549 137.641 148.292 137.458 148.077V153.617H136.822V147.043H137.334C137.657 147.404 138.002 147.821 138.368 148.296C138.742 148.764 139.105 149.244 139.459 149.738C139.813 150.224 140.142 150.702 140.446 151.17C140.756 151.638 141.009 152.046 141.205 152.394V147.043H141.84V153.617H141.3ZM147.693 151.17C147.693 151.556 147.636 151.907 147.523 152.223C147.415 152.539 147.26 152.808 147.058 153.029C146.862 153.251 146.628 153.424 146.356 153.551C146.084 153.671 145.783 153.731 145.455 153.731C145.126 153.731 144.825 153.671 144.553 153.551C144.281 153.424 144.044 153.251 143.842 153.029C143.646 152.808 143.491 152.539 143.377 152.223C143.27 151.907 143.216 151.556 143.216 151.17C143.216 150.784 143.27 150.433 143.377 150.117C143.491 149.801 143.646 149.532 143.842 149.311C144.044 149.083 144.281 148.909 144.553 148.789C144.825 148.662 145.126 148.599 145.455 148.599C145.783 148.599 146.084 148.662 146.356 148.789C146.628 148.909 146.862 149.083 147.058 149.311C147.26 149.532 147.415 149.801 147.523 150.117C147.636 150.433 147.693 150.784 147.693 151.17ZM147.039 151.17C147.039 150.557 146.896 150.07 146.612 149.709C146.327 149.342 145.942 149.159 145.455 149.159C144.968 149.159 144.582 149.342 144.297 149.709C144.013 150.07 143.87 150.557 143.87 151.17C143.87 151.783 144.013 152.27 144.297 152.631C144.582 152.991 144.968 153.172 145.455 153.172C145.942 153.172 146.327 152.991 146.612 152.631C146.896 152.27 147.039 151.783 147.039 151.17ZM149.031 148.884C149.214 148.833 149.451 148.776 149.742 148.713C150.04 148.65 150.422 148.618 150.89 148.618C151.51 148.618 151.959 148.798 152.237 149.159C152.269 149.134 152.329 149.092 152.417 149.036C152.512 148.972 152.629 148.909 152.768 148.846C152.908 148.783 153.069 148.729 153.252 148.685C153.442 148.64 153.651 148.618 153.878 148.618C154.251 148.618 154.552 148.675 154.779 148.789C155.013 148.896 155.194 149.051 155.32 149.254C155.447 149.45 155.532 149.687 155.576 149.965C155.621 150.243 155.643 150.547 155.643 150.876V153.617H155.026V151.075C155.026 150.753 155.01 150.474 154.979 150.24C154.953 150 154.896 149.804 154.808 149.652C154.726 149.494 154.606 149.377 154.447 149.301C154.289 149.219 154.084 149.178 153.831 149.178C153.641 149.178 153.467 149.197 153.309 149.235C153.157 149.266 153.025 149.307 152.911 149.358C152.797 149.409 152.702 149.459 152.626 149.51C152.557 149.56 152.506 149.598 152.474 149.624C152.531 149.788 152.572 149.975 152.598 150.183C152.629 150.386 152.645 150.601 152.645 150.828V153.617H152.028V151.075C152.028 150.753 152.013 150.474 151.981 150.24C151.956 150 151.899 149.804 151.81 149.652C151.722 149.494 151.595 149.377 151.431 149.301C151.273 149.219 151.061 149.178 150.795 149.178C150.498 149.178 150.245 149.194 150.036 149.225C149.834 149.257 149.704 149.285 149.647 149.311V153.617H149.031V148.884ZM156.926 151.16C156.926 150.73 156.987 150.357 157.107 150.041C157.233 149.719 157.394 149.45 157.591 149.235C157.793 149.02 158.021 148.862 158.274 148.76C158.533 148.653 158.798 148.599 159.07 148.599C159.671 148.599 160.149 148.795 160.503 149.187C160.863 149.579 161.043 150.183 161.043 150.999C161.043 151.05 161.04 151.1 161.034 151.151C161.034 151.202 161.031 151.249 161.025 151.293H157.581C157.6 151.894 157.749 152.356 158.027 152.678C158.305 153.001 158.748 153.162 159.355 153.162C159.69 153.162 159.956 153.13 160.152 153.067C160.348 153.004 160.49 152.95 160.579 152.906L160.692 153.437C160.604 153.488 160.436 153.548 160.19 153.617C159.949 153.687 159.665 153.722 159.336 153.722C158.906 153.722 158.539 153.658 158.236 153.532C157.932 153.406 157.682 153.228 157.486 153.001C157.29 152.773 157.148 152.504 157.059 152.194C156.971 151.878 156.926 151.534 156.926 151.16ZM160.408 150.772C160.395 150.259 160.275 149.861 160.047 149.576C159.82 149.292 159.497 149.149 159.08 149.149C158.859 149.149 158.659 149.194 158.482 149.282C158.311 149.371 158.16 149.491 158.027 149.643C157.9 149.788 157.799 149.959 157.723 150.155C157.654 150.351 157.613 150.557 157.6 150.772H160.408Z" fill="black" fill-opacity="0.3"/>
<path d="M176.433 115.975H177.619C177.556 116.543 177.394 117.051 177.13 117.5C176.867 117.949 176.495 118.305 176.013 118.569C175.531 118.828 174.93 118.958 174.209 118.958C173.682 118.958 173.203 118.859 172.771 118.662C172.342 118.464 171.974 118.184 171.665 117.821C171.356 117.455 171.118 117.017 170.949 116.506C170.784 115.991 170.702 115.419 170.702 114.789V113.894C170.702 113.264 170.784 112.693 170.949 112.183C171.118 111.669 171.358 111.228 171.671 110.862C171.988 110.495 172.369 110.213 172.813 110.015C173.258 109.817 173.759 109.719 174.315 109.719C174.994 109.719 175.568 109.847 176.038 110.102C176.507 110.357 176.871 110.711 177.13 111.164C177.394 111.613 177.556 112.134 177.619 112.726H176.433C176.375 112.307 176.268 111.946 176.111 111.646C175.955 111.342 175.733 111.107 175.445 110.942C175.156 110.777 174.779 110.695 174.315 110.695C173.915 110.695 173.563 110.771 173.258 110.923C172.958 111.076 172.704 111.292 172.499 111.572C172.297 111.851 172.145 112.187 172.042 112.579C171.939 112.969 171.888 113.404 171.888 113.881V114.789C171.888 115.23 171.933 115.643 172.023 116.031C172.118 116.417 172.26 116.757 172.449 117.05C172.639 117.342 172.88 117.572 173.171 117.742C173.464 117.906 173.81 117.988 174.209 117.988C174.716 117.988 175.119 117.908 175.42 117.748C175.72 117.587 175.947 117.357 176.1 117.056C176.256 116.755 176.367 116.395 176.433 115.975ZM183.01 117.692V114.252C183.01 113.988 182.956 113.76 182.85 113.567C182.746 113.369 182.59 113.217 182.38 113.109C182.17 113.002 181.911 112.949 181.602 112.949C181.314 112.949 181.061 112.998 180.843 113.097C180.628 113.196 180.459 113.326 180.336 113.486C180.217 113.647 180.156 113.82 180.156 114.005H179.014C179.014 113.766 179.076 113.53 179.2 113.295C179.323 113.06 179.5 112.848 179.73 112.659C179.965 112.465 180.245 112.313 180.571 112.202C180.9 112.086 181.266 112.028 181.669 112.028C182.156 112.028 182.584 112.111 182.955 112.276C183.329 112.44 183.621 112.689 183.832 113.023C184.046 113.353 184.152 113.766 184.152 114.264V117.377C184.152 117.599 184.171 117.836 184.208 118.087C184.25 118.338 184.309 118.555 184.387 118.736V118.835H183.195C183.137 118.703 183.092 118.528 183.059 118.31C183.027 118.087 183.01 117.881 183.01 117.692ZM183.208 114.783L183.22 115.586H182.065C181.74 115.586 181.45 115.613 181.194 115.666C180.939 115.715 180.725 115.792 180.552 115.895C180.379 115.998 180.247 116.127 180.156 116.284C180.066 116.436 180.021 116.615 180.021 116.821C180.021 117.031 180.068 117.223 180.163 117.395C180.258 117.568 180.4 117.707 180.589 117.81C180.783 117.908 181.02 117.957 181.3 117.957C181.649 117.957 181.958 117.884 182.226 117.735C182.493 117.587 182.705 117.406 182.862 117.192C183.022 116.978 183.109 116.77 183.121 116.568L183.609 117.118C183.58 117.291 183.502 117.482 183.375 117.692C183.247 117.902 183.076 118.104 182.862 118.297C182.652 118.487 182.401 118.645 182.108 118.773C181.82 118.896 181.495 118.958 181.133 118.958C180.68 118.958 180.282 118.87 179.941 118.692C179.603 118.515 179.34 118.279 179.15 117.983C178.965 117.681 178.872 117.346 178.872 116.976C178.872 116.617 178.942 116.303 179.082 116.031C179.222 115.755 179.424 115.526 179.688 115.345C179.951 115.16 180.268 115.02 180.639 114.925C181.009 114.831 181.423 114.783 181.88 114.783H183.208ZM190.162 117.538V109.349H191.311V118.835H190.261L190.162 117.538ZM185.666 115.568V115.438C185.666 114.927 185.727 114.464 185.851 114.048C185.979 113.628 186.158 113.268 186.388 112.968C186.623 112.667 186.901 112.436 187.222 112.276C187.547 112.111 187.91 112.028 188.309 112.028C188.729 112.028 189.096 112.103 189.409 112.251C189.726 112.395 189.993 112.607 190.211 112.887C190.433 113.163 190.609 113.496 190.736 113.888C190.864 114.279 190.952 114.722 191.002 115.216V115.783C190.956 116.274 190.868 116.714 190.736 117.105C190.609 117.496 190.433 117.83 190.211 118.106C189.993 118.382 189.726 118.594 189.409 118.742C189.092 118.886 188.721 118.958 188.296 118.958C187.906 118.958 187.547 118.874 187.222 118.705C186.901 118.536 186.623 118.3 186.388 117.994C186.158 117.69 185.979 117.332 185.851 116.92C185.727 116.504 185.666 116.053 185.666 115.568ZM186.814 115.438V115.568C186.814 115.901 186.847 116.214 186.913 116.506C186.983 116.798 187.09 117.056 187.235 117.278C187.379 117.5 187.562 117.676 187.784 117.803C188.006 117.926 188.272 117.988 188.581 117.988C188.96 117.988 189.27 117.908 189.513 117.748C189.76 117.587 189.958 117.375 190.106 117.111C190.254 116.848 190.37 116.562 190.452 116.253V114.764C190.402 114.538 190.33 114.32 190.235 114.11C190.145 113.896 190.026 113.707 189.877 113.542C189.734 113.373 189.554 113.24 189.341 113.141C189.13 113.042 188.881 112.992 188.593 112.992C188.28 112.992 188.01 113.058 187.784 113.19C187.562 113.318 187.379 113.494 187.235 113.721C187.09 113.943 186.983 114.202 186.913 114.499C186.847 114.791 186.814 115.104 186.814 115.438ZM197.029 117.692V114.252C197.029 113.988 196.975 113.76 196.869 113.567C196.766 113.369 196.609 113.217 196.399 113.109C196.19 113.002 195.93 112.949 195.621 112.949C195.333 112.949 195.08 112.998 194.862 113.097C194.647 113.196 194.479 113.326 194.355 113.486C194.235 113.647 194.176 113.82 194.176 114.005H193.034C193.034 113.766 193.096 113.53 193.219 113.295C193.342 113.06 193.519 112.848 193.75 112.659C193.985 112.465 194.265 112.313 194.59 112.202C194.919 112.086 195.285 112.028 195.689 112.028C196.175 112.028 196.603 112.111 196.974 112.276C197.349 112.44 197.641 112.689 197.851 113.023C198.065 113.353 198.172 113.766 198.172 114.264V117.377C198.172 117.599 198.19 117.836 198.228 118.087C198.269 118.338 198.328 118.555 198.406 118.736V118.835H197.215C197.157 118.703 197.111 118.528 197.079 118.31C197.046 118.087 197.029 117.881 197.029 117.692ZM197.227 114.783L197.239 115.586H196.085C195.759 115.586 195.469 115.613 195.213 115.666C194.958 115.715 194.745 115.792 194.571 115.895C194.398 115.998 194.266 116.127 194.176 116.284C194.085 116.436 194.04 116.615 194.04 116.821C194.04 117.031 194.088 117.223 194.183 117.395C194.277 117.568 194.419 117.707 194.609 117.81C194.801 117.908 195.039 117.957 195.319 117.957C195.669 117.957 195.977 117.884 196.245 117.735C196.513 117.587 196.725 117.406 196.881 117.192C197.042 116.978 197.128 116.77 197.141 116.568L197.628 117.118C197.6 117.291 197.522 117.482 197.394 117.692C197.266 117.902 197.096 118.104 196.881 118.297C196.671 118.487 196.42 118.645 196.128 118.773C195.839 118.896 195.515 118.958 195.152 118.958C194.699 118.958 194.302 118.87 193.96 118.692C193.622 118.515 193.359 118.279 193.169 117.983C192.984 117.681 192.892 117.346 192.892 116.976C192.892 116.617 192.961 116.303 193.101 116.031C193.242 115.755 193.443 115.526 193.707 115.345C193.97 115.16 194.287 115.02 194.658 114.925C195.028 114.831 195.442 114.783 195.899 114.783H197.227ZM203.86 117.062C203.86 116.897 203.823 116.745 203.749 116.605C203.679 116.461 203.533 116.331 203.311 116.216C203.092 116.096 202.763 115.994 202.322 115.908C201.952 115.829 201.616 115.736 201.315 115.629C201.019 115.523 200.766 115.393 200.556 115.24C200.35 115.088 200.191 114.909 200.081 114.703C199.969 114.497 199.914 114.256 199.914 113.98C199.914 113.717 199.971 113.468 200.086 113.233C200.205 112.998 200.372 112.791 200.586 112.61C200.805 112.428 201.066 112.286 201.371 112.183C201.676 112.08 202.015 112.028 202.39 112.028C202.926 112.028 203.383 112.123 203.761 112.313C204.14 112.502 204.43 112.756 204.632 113.073C204.834 113.385 204.934 113.734 204.934 114.116H203.792C203.792 113.931 203.737 113.752 203.625 113.579C203.519 113.402 203.36 113.255 203.149 113.141C202.944 113.025 202.691 112.968 202.39 112.968C202.073 112.968 201.816 113.017 201.618 113.115C201.424 113.21 201.282 113.332 201.192 113.48C201.105 113.628 201.062 113.785 201.062 113.949C201.062 114.073 201.083 114.184 201.124 114.283C201.169 114.378 201.247 114.466 201.359 114.549C201.469 114.627 201.626 114.701 201.828 114.771C202.03 114.841 202.287 114.911 202.6 114.981C203.148 115.104 203.598 115.252 203.952 115.425C204.307 115.598 204.57 115.81 204.743 116.062C204.916 116.313 205.002 116.617 205.002 116.976C205.002 117.268 204.941 117.535 204.817 117.779C204.698 118.021 204.522 118.232 204.292 118.409C204.066 118.581 203.794 118.717 203.477 118.816C203.164 118.911 202.812 118.958 202.42 118.958C201.832 118.958 201.334 118.853 200.926 118.643C200.518 118.433 200.21 118.161 200 117.828C199.79 117.494 199.685 117.142 199.685 116.772H200.834C200.851 117.085 200.941 117.334 201.105 117.519C201.27 117.7 201.472 117.83 201.711 117.908C201.949 117.983 202.186 118.019 202.42 118.019C202.734 118.019 202.995 117.978 203.205 117.896C203.42 117.813 203.582 117.7 203.693 117.556C203.804 117.412 203.86 117.247 203.86 117.062ZM209.301 112.153V113.029H205.688V112.153H209.301ZM206.911 110.528H208.054V117.179C208.054 117.406 208.088 117.577 208.158 117.692C208.228 117.807 208.319 117.884 208.43 117.92C208.541 117.957 208.661 117.976 208.788 117.976C208.883 117.976 208.982 117.968 209.085 117.951C209.192 117.93 209.272 117.915 209.326 117.902L209.332 118.835C209.241 118.863 209.122 118.89 208.974 118.915C208.829 118.944 208.654 118.958 208.449 118.958C208.168 118.958 207.911 118.903 207.677 118.791C207.442 118.68 207.254 118.495 207.115 118.236C206.979 117.972 206.911 117.618 206.911 117.173V110.528ZM211.783 113.202V118.835H210.641V112.153H211.752L211.783 113.202ZM213.871 112.115L213.865 113.177C213.77 113.157 213.68 113.145 213.593 113.141C213.511 113.132 213.416 113.128 213.309 113.128C213.046 113.128 212.813 113.169 212.611 113.251C212.409 113.334 212.239 113.449 212.099 113.598C211.959 113.745 211.847 113.923 211.765 114.129C211.687 114.33 211.635 114.553 211.611 114.795L211.289 114.981C211.289 114.577 211.329 114.198 211.407 113.844C211.489 113.49 211.615 113.177 211.783 112.906C211.952 112.63 212.167 112.416 212.426 112.263C212.689 112.107 213.002 112.028 213.364 112.028C213.447 112.028 213.541 112.039 213.649 112.059C213.756 112.076 213.83 112.095 213.871 112.115ZM217.576 118.958C217.111 118.958 216.689 118.88 216.311 118.723C215.936 118.563 215.613 118.338 215.341 118.05C215.073 117.762 214.867 117.421 214.723 117.025C214.579 116.63 214.507 116.198 214.507 115.728V115.469C214.507 114.925 214.587 114.441 214.748 114.017C214.908 113.589 215.126 113.227 215.402 112.93C215.678 112.634 215.991 112.41 216.341 112.257C216.692 112.105 217.054 112.028 217.428 112.028C217.906 112.028 218.318 112.111 218.663 112.276C219.013 112.44 219.3 112.671 219.522 112.968C219.745 113.26 219.909 113.606 220.016 114.005C220.123 114.4 220.176 114.832 220.176 115.302V115.814H215.186V114.882H219.034V114.795C219.017 114.499 218.956 114.211 218.849 113.931C218.746 113.651 218.581 113.421 218.355 113.24C218.128 113.058 217.82 112.968 217.428 112.968C217.169 112.968 216.93 113.023 216.712 113.134C216.494 113.241 216.307 113.402 216.15 113.616C215.994 113.83 215.872 114.092 215.786 114.4C215.699 114.709 215.656 115.065 215.656 115.469V115.728C215.656 116.045 215.699 116.344 215.786 116.624C215.876 116.9 216.005 117.142 216.175 117.353C216.348 117.562 216.556 117.727 216.798 117.847C217.045 117.966 217.326 118.025 217.638 118.025C218.042 118.025 218.383 117.943 218.663 117.779C218.944 117.613 219.188 117.394 219.398 117.118L220.09 117.667C219.946 117.885 219.763 118.093 219.541 118.291C219.318 118.489 219.044 118.649 218.719 118.773C218.398 118.896 218.017 118.958 217.576 118.958ZM223.888 114.542V115.481H220.874V114.542H223.888ZM228.897 117.062C228.897 116.897 228.86 116.745 228.786 116.605C228.716 116.461 228.57 116.331 228.347 116.216C228.129 116.096 227.8 115.994 227.359 115.908C226.989 115.829 226.653 115.736 226.352 115.629C226.056 115.523 225.803 115.393 225.593 115.24C225.387 115.088 225.228 114.909 225.117 114.703C225.006 114.497 224.95 114.256 224.95 113.98C224.95 113.717 225.008 113.468 225.123 113.233C225.243 112.998 225.409 112.791 225.624 112.61C225.842 112.428 226.103 112.286 226.408 112.183C226.713 112.08 227.052 112.028 227.427 112.028C227.962 112.028 228.42 112.123 228.798 112.313C229.177 112.502 229.467 112.756 229.669 113.073C229.87 113.385 229.971 113.734 229.971 114.116H228.829C228.829 113.931 228.773 113.752 228.662 113.579C228.555 113.402 228.397 113.255 228.186 113.141C227.981 113.025 227.728 112.968 227.427 112.968C227.11 112.968 226.853 113.017 226.655 113.115C226.462 113.21 226.319 113.332 226.229 113.48C226.142 113.628 226.1 113.785 226.1 113.949C226.1 114.073 226.12 114.184 226.161 114.283C226.206 114.378 226.285 114.466 226.396 114.549C226.507 114.627 226.663 114.701 226.865 114.771C227.067 114.841 227.324 114.911 227.637 114.981C228.185 115.104 228.635 115.252 228.99 115.425C229.344 115.598 229.607 115.81 229.78 116.062C229.953 116.313 230.039 116.617 230.039 116.976C230.039 117.268 229.978 117.535 229.854 117.779C229.735 118.021 229.56 118.232 229.33 118.409C229.103 118.581 228.831 118.717 228.514 118.816C228.201 118.911 227.849 118.958 227.458 118.958C226.869 118.958 226.371 118.853 225.964 118.643C225.556 118.433 225.247 118.161 225.037 117.828C224.827 117.494 224.722 117.142 224.722 116.772H225.871C225.887 117.085 225.978 117.334 226.142 117.519C226.307 117.7 226.509 117.83 226.748 117.908C226.986 117.983 227.224 118.019 227.458 118.019C227.771 118.019 228.032 117.978 228.243 117.896C228.456 117.813 228.619 117.7 228.73 117.556C228.841 117.412 228.897 117.247 228.897 117.062ZM234.313 118.958C233.848 118.958 233.426 118.88 233.047 118.723C232.673 118.563 232.349 118.338 232.077 118.05C231.81 117.762 231.604 117.421 231.46 117.025C231.316 116.63 231.243 116.198 231.243 115.728V115.469C231.243 114.925 231.324 114.441 231.485 114.017C231.645 113.589 231.863 113.227 232.139 112.93C232.415 112.634 232.728 112.41 233.078 112.257C233.428 112.105 233.79 112.028 234.165 112.028C234.643 112.028 235.054 112.111 235.4 112.276C235.75 112.44 236.036 112.671 236.258 112.968C236.481 113.26 236.646 113.606 236.752 114.005C236.86 114.4 236.913 114.832 236.913 115.302V115.814H231.923V114.882H235.771V114.795C235.754 114.499 235.692 114.211 235.586 113.931C235.482 113.651 235.318 113.421 235.092 113.24C234.865 113.058 234.556 112.968 234.165 112.968C233.906 112.968 233.667 113.023 233.448 113.134C233.23 113.241 233.043 113.402 232.887 113.616C232.73 113.83 232.609 114.092 232.522 114.4C232.435 114.709 232.393 115.065 232.393 115.469V115.728C232.393 116.045 232.435 116.344 232.522 116.624C232.613 116.9 232.742 117.142 232.911 117.353C233.085 117.562 233.292 117.727 233.535 117.847C233.782 117.966 234.062 118.025 234.375 118.025C234.779 118.025 235.12 117.943 235.4 117.779C235.68 117.613 235.925 117.394 236.135 117.118L236.827 117.667C236.683 117.885 236.5 118.093 236.277 118.291C236.054 118.489 235.781 118.649 235.456 118.773C235.134 118.896 234.754 118.958 234.313 118.958Z" fill="#5B7D7D"/>
<path d="M395.93 20.4714H362.719C360.01 20.4714 357.41 21.5481 355.494 23.4645C353.578 25.3808 352.501 27.98 352.501 30.6902V59.5894C352.5 60.9323 352.763 62.2623 353.275 63.5035C353.788 64.7446 354.541 65.8725 355.49 66.8227C356.439 67.7728 357.566 68.5264 358.806 69.0408C360.047 69.555 361.377 69.8197 362.719 69.8197H372.418L370.106 78.9403L379.354 69.8197H395.988C398.702 69.8197 401.304 68.7419 403.222 66.8233C405.141 64.9048 406.219 62.3027 406.219 59.5894V30.6902C406.219 29.3424 405.952 28.0079 405.434 26.7636C404.916 25.5192 404.157 24.3896 403.201 23.4398C402.245 22.49 401.11 21.7388 399.862 21.2293C398.614 20.7199 397.278 20.4623 395.93 20.4714Z" fill="#2DD4BF"/>
<path opacity="0.7" d="M395.93 20.4714H362.719C360.01 20.4714 357.41 21.5481 355.494 23.4645C353.578 25.3808 352.501 27.98 352.501 30.6902V59.5894C352.5 60.9323 352.763 62.2623 353.275 63.5035C353.788 64.7446 354.541 65.8725 355.49 66.8227C356.439 67.7728 357.566 68.5264 358.806 69.0408C360.047 69.555 361.377 69.8197 362.719 69.8197H372.418L370.106 78.9403L379.354 69.8197H395.988C398.702 69.8197 401.304 68.7419 403.222 66.8233C405.141 64.9048 406.219 62.3027 406.219 59.5894V30.6902C406.219 29.3424 405.952 28.0079 405.434 26.7636C404.916 25.5192 404.157 24.3896 403.201 23.4398C402.245 22.49 401.11 21.7388 399.862 21.2293C398.614 20.7199 397.278 20.4623 395.93 20.4714Z" fill="white"/>
<path d="M379.33 57.9134C386.449 57.9134 392.22 52.1428 392.22 45.0243C392.22 37.9059 386.449 32.1353 379.33 32.1353C372.213 32.1353 366.442 37.9059 366.442 45.0243C366.442 52.1428 372.213 57.9134 379.33 57.9134Z" fill="white"/>
<path d="M379.33 28.54C376.07 28.54 372.884 29.5068 370.172 31.3181C367.462 33.1294 365.349 35.7038 364.101 38.7159C362.854 41.728 362.527 45.0424 363.164 48.24C363.799 51.4376 365.369 54.3748 367.675 56.6801C369.98 58.9855 372.917 60.5555 376.115 61.1915C379.312 61.8276 382.627 61.5011 385.639 60.2534C388.651 59.0058 391.225 56.893 393.037 54.1822C394.848 51.4714 395.815 48.2844 395.815 45.0242C395.817 42.8589 395.391 40.7147 394.563 38.7141C393.735 36.7135 392.521 34.8957 390.991 33.3647C389.459 31.8337 387.641 30.6196 385.641 29.7917C383.64 28.9638 381.496 28.5385 379.33 28.54ZM388.682 40.0997L378.753 51.7981C378.612 51.9672 378.435 52.1026 378.235 52.1946C378.035 52.2865 377.817 52.3328 377.597 52.3299C377.377 52.3312 377.16 52.2842 376.96 52.1924C376.76 52.1004 376.583 51.9659 376.441 51.7981L369.979 44.1803C369.843 44.0296 369.738 43.8531 369.671 43.6611C369.604 43.4691 369.576 43.2656 369.59 43.0627C369.603 42.8599 369.658 42.6619 369.749 42.4804C369.841 42.2989 369.968 42.1378 370.123 42.0066C370.279 41.8754 370.459 41.7768 370.653 41.7166C370.847 41.6566 371.051 41.6362 371.254 41.6566C371.456 41.6772 371.652 41.7383 371.83 41.8362C372.009 41.9341 372.165 42.0669 372.291 42.2267L377.597 48.4804L386.371 38.1461C386.634 37.8553 387.001 37.6782 387.392 37.6521C387.783 37.6261 388.17 37.7531 388.47 38.0064C388.77 38.2598 388.96 38.6196 388.999 39.0102C389.039 39.4006 388.925 39.7913 388.682 40.0997Z" fill="#2DD4BF"/>
<path d="M390.174 198.779C390.174 198.779 370.048 196.236 339.554 204.559C339.554 204.559 334.653 150.067 335.231 142.576C335.809 135.085 382.313 137.282 382.313 137.282C382.313 137.282 383.47 159.095 386.498 172.25C389.527 185.405 391.746 196.247 390.174 198.779Z" fill="#2DD4BF"/>
<path opacity="0.2" d="M390.174 198.779C390.174 198.779 370.048 196.236 339.554 204.559C339.554 204.559 334.653 150.067 335.231 142.576C335.809 135.085 382.313 137.282 382.313 137.282C382.313 137.282 383.47 159.095 386.498 172.25C389.527 185.405 391.746 196.247 390.174 198.779Z" fill="black"/>
<path d="M324.85 379.179L333.058 381.504L335.011 368.73L336.062 361.898L327.855 359.575L326.457 368.73L324.85 379.179Z" fill="#E4897B"/>
<path d="M372.036 379.851L380.498 380.972L380.579 368.73L380.637 361.123L372.164 360.013L372.106 368.73L372.036 379.851Z" fill="#E4897B"/>
<path opacity="0.2" d="M372.164 360.013L372.106 368.73H380.579L380.637 361.123L372.164 360.013Z" fill="black"/>
<path opacity="0.2" d="M326.457 368.73H335.011L336.063 361.898L327.855 359.575L326.457 368.73Z" fill="black"/>
<path d="M288.414 147.05L280.264 144.646L281.756 153.951C281.756 153.951 289.154 155.65 289.847 151.801L288.414 147.05Z" fill="#E4897B"/>
<path d="M272.126 146.807L276.126 154.367L281.756 153.951L280.264 144.646L272.126 146.807Z" fill="#E4897B"/>
<path d="M299.662 149.431L286.275 146.437L285.062 152.934L297.211 155.893L299.662 149.431Z" fill="#E4897B"/>
<path d="M340.155 143.559L339.369 144.496C337.681 146.472 333.589 151.247 329.323 155.361C325.855 158.714 322.387 161.639 320.076 162.228C313.522 163.915 289.697 156.899 289.697 156.899L292.159 147.235C292.159 147.235 314.354 150.183 316.076 150.183C317.383 150.183 330.884 130.624 334.156 129.017L340.155 143.559Z" fill="#2DD4BF"/>
<path opacity="0.2" d="M339.369 144.496C337.681 146.472 333.589 151.247 329.323 155.361C330.179 148.587 332.664 142.368 335.936 138.438C336.241 138.059 336.59 137.717 336.976 137.421L339.369 144.496Z" fill="black"/>
<path d="M324.954 377.896L334.271 377.654C334.439 377.648 334.604 377.7 334.738 377.802C334.873 377.902 334.969 378.046 335.011 378.209L336.976 385.711C337.023 385.89 337.029 386.078 336.994 386.261C336.958 386.443 336.882 386.615 336.771 386.764C336.66 386.912 336.517 387.034 336.352 387.12C336.187 387.206 336.005 387.254 335.82 387.26C332.456 387.26 327.59 387.26 323.371 387.341C318.423 387.48 315.279 387.237 309.499 387.341C306.031 387.433 304.875 383.942 306.355 383.584C312.979 381.942 317.313 382.266 322.954 378.567C323.549 378.17 324.239 377.939 324.954 377.896Z" fill="#263238"/>
<path d="M324.145 379.099C322.781 379.399 320.353 379.804 319.383 379.006C319.241 378.889 319.129 378.74 319.057 378.572C318.984 378.402 318.953 378.219 318.966 378.036C318.966 377.926 318.994 377.817 319.049 377.722C319.104 377.626 319.183 377.547 319.278 377.493C320.307 376.88 323.787 378.533 324.191 378.718C324.227 378.737 324.256 378.765 324.277 378.799C324.296 378.834 324.308 378.874 324.307 378.914C324.305 378.959 324.288 379.002 324.259 379.035C324.229 379.069 324.189 379.091 324.145 379.099ZM319.521 377.816H319.451C319.413 377.838 319.381 377.87 319.359 377.908C319.337 377.947 319.325 377.991 319.325 378.036C319.315 378.155 319.334 378.275 319.38 378.386C319.427 378.496 319.499 378.595 319.591 378.671C320.134 379.122 321.544 379.168 323.417 378.798C322.064 378.232 320.18 377.573 319.544 377.816H319.521Z" fill="#2DD4BF"/>
<path d="M324.145 379.099H324.006C322.954 378.659 320.851 376.879 320.966 375.92C320.966 375.688 321.151 375.4 321.706 375.33C321.91 375.303 322.116 375.318 322.315 375.371C322.513 375.424 322.699 375.517 322.862 375.643C324.017 376.51 324.284 378.787 324.307 378.879C324.31 378.915 324.304 378.95 324.29 378.983C324.276 379.014 324.254 379.043 324.226 379.064L324.145 379.099ZM321.556 375.781C321.382 375.839 321.371 375.931 321.371 375.966C321.301 376.544 322.734 377.954 323.809 378.556C323.685 377.584 323.257 376.678 322.584 375.966C322.47 375.87 322.337 375.8 322.193 375.76C322.05 375.72 321.899 375.711 321.752 375.735C321.685 375.741 321.618 375.756 321.556 375.781Z" fill="#2DD4BF"/>
<path d="M372.371 377.896L381.688 377.654C381.858 377.648 382.024 377.7 382.161 377.8C382.298 377.901 382.396 378.045 382.44 378.209L384.394 385.711C384.443 385.891 384.451 386.079 384.416 386.262C384.382 386.446 384.306 386.618 384.194 386.768C384.083 386.917 383.938 387.039 383.773 387.124C383.607 387.209 383.424 387.256 383.238 387.26C379.874 387.26 375.007 387.26 370.776 387.341C365.84 387.48 362.685 387.237 356.905 387.341C353.437 387.433 352.281 383.942 353.76 383.584C360.384 381.942 364.707 382.266 370.349 378.567C370.951 378.166 371.65 377.934 372.371 377.896Z" fill="#263238"/>
<path d="M371.574 379.099C370.21 379.399 367.771 379.804 366.812 379.006C366.67 378.889 366.559 378.74 366.486 378.572C366.414 378.402 366.383 378.219 366.395 378.036C366.395 377.926 366.424 377.817 366.478 377.722C366.534 377.626 366.613 377.547 366.708 377.493C367.725 376.88 371.216 378.533 371.609 378.718C371.647 378.733 371.68 378.761 371.7 378.796C371.722 378.832 371.73 378.873 371.725 378.914C371.722 378.957 371.705 378.997 371.678 379.03C371.651 379.063 371.615 379.087 371.574 379.099ZM366.95 377.816H366.881C366.843 377.838 366.812 377.87 366.791 377.909C366.771 377.948 366.762 377.991 366.765 378.036C366.754 378.155 366.772 378.276 366.818 378.387C366.865 378.498 366.938 378.595 367.032 378.671C367.575 379.122 368.973 379.168 370.858 378.798C369.482 378.232 367.598 377.573 366.962 377.816H366.95Z" fill="#2DD4BF"/>
<path d="M371.574 379.099H371.424C370.383 378.659 368.268 376.879 368.395 375.92C368.395 375.688 368.568 375.4 369.123 375.33C369.327 375.303 369.534 375.315 369.733 375.369C369.932 375.423 370.118 375.515 370.28 375.643C371.089 376.543 371.594 377.676 371.724 378.879C371.73 378.915 371.726 378.951 371.711 378.983C371.697 379.017 371.674 379.044 371.643 379.064L371.574 379.099ZM368.973 375.781C368.811 375.839 368.8 375.931 368.8 375.966C368.719 376.544 370.164 377.954 371.239 378.556C371.107 377.586 370.679 376.683 370.013 375.966C369.899 375.871 369.766 375.801 369.622 375.761C369.479 375.721 369.329 375.712 369.181 375.735L368.973 375.781Z" fill="#2DD4BF"/>
<path d="M389.492 193.809C393.977 213.24 386.278 366.118 386.278 366.118H371.413L365.054 238.718L341.647 366.118L325.752 364.961C336.156 266.265 345.322 207.345 345.322 207.345V199.901L389.492 193.809Z" fill="#263238"/>
<path opacity="0.4" d="M325.752 364.961L341.647 366.118L360.073 265.825L365.054 238.718L371.413 366.118H386.278C386.278 366.118 393.977 213.24 389.492 193.809L345.299 199.901V207.345C345.299 207.345 336.144 266.265 325.752 364.961Z" fill="white"/>
<path d="M381.481 121.838C381.025 131.129 381.261 140.441 382.186 149.697C382.81 156.17 383.666 162.285 384.579 167.799C386.718 180.734 389.145 190.433 389.492 193.82L345.299 199.912C329.185 154.829 335.254 128.635 335.254 128.635C338.558 127.271 341.944 126.112 345.391 125.168C346.12 124.971 346.86 124.786 347.623 124.613C353.829 123.391 360.101 122.526 366.407 122.023C367.563 121.919 368.823 121.838 370.002 121.78C376.036 121.48 381.481 121.838 381.481 121.838Z" fill="#263238"/>
<path d="M357.83 101.551C358.153 107.735 358.813 119.342 363.956 122.289C363.956 122.289 360.754 128.381 353.83 129.006C348.594 129.468 348.941 124.3 348.941 124.3C351.969 122.047 351.252 118.221 348.941 113.897L357.83 101.551Z" fill="#E4897B"/>
<path opacity="0.2" d="M354.2 106.591L348.975 113.896C349.525 114.896 349.989 115.94 350.362 117.018C352.79 116.047 355.575 112.394 355.171 109.747C355.044 108.644 354.715 107.574 354.2 106.591Z" fill="black"/>
<path d="M335.289 89.1012C334.283 92.3147 334.838 98.9036 339.311 96.7653C343.785 94.6269 337.022 83.5874 335.289 89.1012Z" fill="#263238"/>
<path d="M358.408 93.4474C358.905 101.69 359.564 106.487 355.968 111.157C350.501 118.174 339.912 115.561 336.953 107.609C334.294 100.441 333.936 88.1652 341.577 84.0031C343.27 83.0822 345.17 82.6055 347.099 82.6182C349.027 82.63 350.92 83.132 352.602 84.0751C354.283 85.019 355.698 86.3739 356.713 88.0126C357.729 89.6522 358.311 91.5217 358.408 93.4474Z" fill="#E4897B"/>
<path d="M352.628 88.9628V79.7146C352.628 79.7146 362.431 78.9864 361.991 84.0031C367.425 86.6964 364.858 95.147 357.564 99.2853C353.564 96.083 354.027 88.3842 354.027 88.3842C353.599 88.6039 353.114 88.7889 352.628 88.9628Z" fill="#263238"/>
<path d="M362.396 99.8752C362.207 100.883 361.818 101.844 361.252 102.699C360.686 103.555 359.955 104.289 359.101 104.857C356.79 106.372 354.79 104.511 354.708 101.909C354.639 99.5977 355.737 95.9447 358.396 95.4823C358.978 95.3914 359.572 95.4467 360.128 95.642C360.683 95.838 361.181 96.1676 361.577 96.6032C361.973 97.038 362.255 97.5653 362.398 98.136C362.541 98.7068 362.541 99.3044 362.396 99.8752Z" fill="#E4897B"/>
<path d="M346.236 97.1234C346.316 97.7938 346.028 98.3716 345.588 98.4183C345.149 98.4641 344.733 97.9677 344.651 97.2625C344.571 96.5574 344.86 96.0135 345.288 95.9677C345.715 95.921 346.154 96.4072 346.236 97.1234Z" fill="#263238"/>
<path d="M338.675 97.9677C338.756 98.638 338.467 99.2159 338.028 99.2625C337.589 99.3084 337.172 98.8111 337.092 98.106C337.011 97.4009 337.3 96.8578 337.739 96.8119C338.179 96.7653 338.571 97.2973 338.675 97.9677Z" fill="#263238"/>
<path d="M341.115 98.0254C340.53 100.093 339.662 102.069 338.537 103.898C339.036 104.154 339.583 104.302 340.142 104.332C340.702 104.362 341.262 104.273 341.785 104.071L341.115 98.0254Z" fill="#DE5753"/>
<path d="M345.681 106.221C345.395 106.294 345.106 106.348 344.813 106.383C344.761 106.383 344.711 106.362 344.674 106.326C344.638 106.288 344.617 106.239 344.617 106.187C344.617 106.134 344.638 106.085 344.674 106.047C344.711 106.011 344.761 105.99 344.813 105.99C345.644 105.915 346.444 105.645 347.151 105.203C347.858 104.762 348.451 104.16 348.882 103.447C348.893 103.424 348.907 103.402 348.926 103.385C348.944 103.368 348.966 103.354 348.99 103.345C349.013 103.337 349.039 103.333 349.064 103.334C349.089 103.336 349.115 103.343 349.137 103.354C349.16 103.365 349.182 103.381 349.199 103.401C349.217 103.42 349.231 103.443 349.24 103.468C349.247 103.492 349.251 103.519 349.25 103.545C349.248 103.571 349.241 103.597 349.229 103.62C348.851 104.277 348.341 104.847 347.73 105.295C347.119 105.743 346.421 106.058 345.681 106.221Z" fill="#263238"/>
<path d="M348.27 94.4301C348.2 94.4467 348.127 94.4444 348.058 94.4246C347.989 94.4041 347.926 94.3661 347.877 94.3147C347.542 93.9479 347.126 93.6641 346.663 93.4855C346.199 93.3068 345.701 93.2388 345.206 93.2863C345.156 93.2981 345.103 93.2989 345.051 93.2894C345 93.2799 344.951 93.2602 344.907 93.2301C344.864 93.2009 344.827 93.1637 344.799 93.1195C344.771 93.0752 344.753 93.0254 344.744 92.974C344.734 92.9234 344.734 92.8705 344.745 92.8199C344.755 92.7693 344.775 92.7211 344.804 92.6776C344.833 92.6349 344.87 92.5977 344.914 92.5693C344.956 92.5408 345.005 92.5211 345.056 92.5116C345.681 92.4373 346.313 92.5131 346.902 92.7321C347.491 92.9511 348.02 93.3076 348.443 93.7716C348.481 93.8072 348.511 93.8499 348.532 93.8981C348.553 93.9456 348.563 93.9969 348.563 94.0491C348.563 94.1013 348.553 94.1527 348.532 94.2001C348.511 94.2475 348.481 94.291 348.443 94.3266C348.394 94.3732 348.334 94.4088 348.27 94.4301Z" fill="#263238"/>
<path d="M335.104 95.7367C335.029 95.7652 334.947 95.7652 334.872 95.7367C334.775 95.7019 334.694 95.6308 334.648 95.5375C334.603 95.445 334.596 95.3375 334.629 95.2395C334.821 94.6442 335.153 94.1043 335.598 93.6656C336.042 93.2268 336.587 92.9019 337.184 92.7193C337.285 92.6932 337.393 92.7082 337.483 92.7612C337.572 92.815 337.638 92.9011 337.664 93.0023C337.69 93.1035 337.675 93.211 337.621 93.3011C337.568 93.3912 337.482 93.4561 337.381 93.4821C336.908 93.6276 336.478 93.8877 336.13 94.2379C335.781 94.5889 335.524 95.0197 335.381 95.4932C335.359 95.5541 335.322 95.6078 335.273 95.6505C335.224 95.6932 335.166 95.7225 335.104 95.7367Z" fill="#263238"/>
<path d="M356.975 92.3841C356.975 92.3841 351.194 90.2687 348.559 86.9161C348.559 86.9161 343.311 88.2924 342.235 90.3841C341.745 89.9644 341.428 89.3778 341.345 88.7367C341.262 88.0964 341.418 87.4482 341.785 86.9161C341.785 86.9161 337.854 87.7486 337.08 90.3841C336.441 90.0806 335.917 89.5794 335.584 88.9549C335.251 88.3312 335.127 87.6165 335.231 86.9161C335.231 86.9161 333.485 87.5754 332.918 90.3841C332.918 90.3841 328.584 81.3446 342.906 78.7554C341.823 78.3876 340.687 78.1963 339.542 78.189C339.542 78.189 349.541 74.1546 357.46 77.8421C365.378 81.5296 364.002 88.6735 356.975 92.3841Z" fill="#263238"/>
<path d="M392.902 201.6L379.03 203.449C379.03 203.449 373.308 163.464 370.788 150.553V122.994L378.036 121.087L383.654 122.994C385.194 128.538 386.38 134.175 387.203 139.871C387.885 144.194 388.497 148.818 389.041 153.5C389.792 159.881 390.417 166.377 390.948 172.458C391.78 182.272 392.335 190.953 392.636 196.259C392.809 199.588 392.902 201.6 392.902 201.6Z" fill="#2DD4BF"/>
<path d="M370.8 150.53C370.8 150.53 371.956 131.074 378.048 121.04C378.048 121.04 377.897 118.174 376.684 117.711C375.47 117.249 370.8 120.023 370.8 120.023C370.8 120.023 367.899 118.035 367.262 118.96C366.627 119.885 365.078 126.034 370.8 150.53Z" fill="#2DD4BF"/>
<path opacity="0.7" d="M370.8 150.53C370.8 150.53 371.956 131.074 378.048 121.04C378.048 121.04 377.897 118.174 376.684 117.711C375.47 117.249 370.8 120.023 370.8 120.023C370.8 120.023 367.899 118.035 367.262 118.96C366.627 119.885 365.078 126.034 370.8 150.53Z" fill="white"/>
<path d="M339.265 206.929L340.848 208.085C340.848 208.085 338.537 195.196 339.485 162.598C339.485 161.025 339.589 159.511 339.647 158.066C340.802 130.484 345.103 125.468 345.426 125.167L341.427 126.531L334.179 129.028C331.994 152.552 339.265 206.929 339.265 206.929Z" fill="#2DD4BF"/>
<path d="M339.889 153.316C339.889 153.316 335.889 134.403 337.081 127.884C338.271 121.365 342.537 124.266 342.537 124.266C342.537 124.266 346.455 121.098 347.623 124.59C347.623 124.59 342.236 128.381 339.889 153.316Z" fill="#2DD4BF"/>
<path opacity="0.7" d="M339.889 153.316C339.889 153.316 335.889 134.403 337.081 127.884C338.271 121.365 342.537 124.266 342.537 124.266C342.537 124.266 346.455 121.098 347.623 124.59C347.623 124.59 342.236 128.381 339.889 153.316Z" fill="white"/>
<path opacity="0.2" d="M389.018 153.454C383.1 150.136 382.313 141.478 382.313 141.478C382.672 141.339 384.868 140.588 387.179 139.825C387.862 144.149 388.474 148.772 389.018 153.454Z" fill="black"/>
<path opacity="0.2" d="M360.073 265.825L365.054 238.718L364.095 224.372C364.095 224.372 357.263 249.249 360.073 265.825Z" fill="black"/>
<path opacity="0.2" d="M392.613 196.213C388.89 195.959 385.677 195.716 385.677 195.716L384.972 180.585C386.132 179.859 387.525 179.602 388.867 179.868C389.782 177.451 390.474 174.955 390.937 172.412C391.745 182.226 392.312 190.919 392.613 196.213Z" fill="black"/>
<path d="M393.885 172.4L386.636 184.041L392.37 187.335L399.179 176.85L393.885 172.4Z" fill="#E4897B"/>
<path d="M383.342 122.81C388.221 123.341 408.958 151.801 409.871 160.378C410.785 168.956 397.688 183.764 397.688 183.764L388.949 178.62C388.949 178.62 397.826 164.968 398.288 161.28C398.751 157.592 382.047 142.692 382.047 142.692C380.784 139.259 380.089 135.644 379.99 131.987C379.759 125.723 383.342 122.81 383.342 122.81Z" fill="#2DD4BF"/>
<path d="M384.96 180.596C384.96 180.596 392.417 182.191 395.422 186.884C395.422 186.884 392.3 196.652 390.07 197.716C387.839 198.779 382.313 198.779 382.313 198.779C382.313 198.779 381.955 187.913 384.96 180.596Z" fill="#2DD4BF"/>
<defs>
<filter id="filter0_d_275_135" x="92.0269" y="82.3271" width="224.737" height="261.439" filterUnits="userSpaceOnUse" color-interpolation-filters="sRGB">
<feFlood flood-opacity="0" result="BackgroundImageFix"/>
<feColorMatrix in="SourceAlpha" type="matrix" values="0 0 0 0 0 0 0 0 0 0 0 0 0 0 0 0 0 0 127 0" result="hardAlpha"/>
<feOffset dx="1" dy="1"/>
<feComposite in2="hardAlpha" operator="out"/>
<feColorMatrix type="matrix" values="0 0 0 0 0.133333 0 0 0 0 0.133333 0 0 0 0 0.133333 0 0 0 0.2 0"/>
<feBlend mode="normal" in2="BackgroundImageFix" result="effect1_dropShadow_275_135"/>
<feBlend mode="normal" in="SourceGraphic" in2="effect1_dropShadow_275_135" result="shape"/>
</filter>
</defs>
</svg>
