<svg width="403" height="278" viewBox="0 0 403 278" fill="none" xmlns="http://www.w3.org/2000/svg">
<path d="M372.645 184.094C359.937 201.293 346.698 221.228 343.467 242.828C343.467 243.161 343.953 243.269 344.034 242.945C345.492 237.059 347.369 231.284 349.65 225.665C358.002 223.37 366.192 221.48 370.584 213.191C375.084 204.677 374.481 193.562 373.635 184.283C373.572 183.788 372.897 183.761 372.645 184.094Z" fill="#99F6E4"/>
<path d="M349.776 225.503C355.482 212.705 362.808 199.844 372.114 189.314C372.177 189.242 372.276 189.314 372.222 189.422C366.12 196.919 361.494 205.082 356.967 213.398C361.17 209.123 365.778 205.298 369.765 200.798C369.846 200.708 369.963 200.843 369.891 200.924C365.94 205.676 361.611 210.824 356.463 214.343C355.077 216.899 353.691 219.455 352.278 222.011C352.62 221.813 352.98 221.642 353.331 221.471C353.394 221.471 353.448 221.534 353.385 221.561C352.998 221.759 352.602 221.966 352.197 222.146C351.531 223.352 350.865 224.567 350.181 225.746C350.028 226.016 349.65 225.773 349.776 225.503Z" fill="#A6A6A6"/>
<path d="M354.015 221.039C357.431 219.127 360.693 216.951 363.771 214.532C363.852 214.46 363.969 214.577 363.888 214.649C360.907 217.222 357.643 219.448 354.159 221.282C353.997 221.363 353.862 221.129 354.015 221.039Z" fill="#A6A6A6"/>
<path d="M342 239.624C342 239.885 342.468 239.885 342.468 239.624C342.531 232.514 342.468 225.377 342.576 218.249C344.376 214.568 348.309 212.543 351.018 209.6C352.973 207.451 354.673 205.083 356.085 202.544C359.363 196.48 361.363 189.809 361.962 182.942C362.718 175.346 359.829 150.272 356.625 151.136C354.969 151.595 349.596 164.015 348.165 168.119C345.856 174.892 344.163 181.859 343.107 188.936C340.515 205.631 340.731 222.803 342 239.624Z" fill="#99F6E4"/>
<path d="M341.946 208.979C342.333 199.979 344.358 190.916 346.257 182.195C348.3 172.799 350.685 163.961 355.518 155.582C355.536 155.55 355.566 155.526 355.601 155.516C355.637 155.506 355.675 155.51 355.707 155.528C355.739 155.546 355.763 155.576 355.773 155.612C355.783 155.647 355.779 155.685 355.761 155.717C352.536 162.232 350.04 169.084 348.318 176.147C348.642 175.643 349.038 175.166 349.371 174.68C349.506 174.491 349.812 174.68 349.686 174.869C349.252 175.627 348.745 176.341 348.174 177.002C348.174 177.002 348.129 177.002 348.111 177.002C346.446 183.716 345.249 190.583 344.232 197.432L344.457 197.162C344.47 197.154 344.484 197.15 344.499 197.151C344.513 197.151 344.528 197.156 344.539 197.165C344.551 197.174 344.56 197.186 344.564 197.2C344.569 197.214 344.569 197.229 344.565 197.243C344.439 197.477 344.295 197.702 344.16 197.927C343.638 201.401 343.161 204.875 342.684 208.313C348.876 203.021 354.159 196.784 357.138 189.098C357.138 189.098 357.21 189.098 357.201 189.098C354.276 197.072 349.677 204.155 342.585 208.988C342.459 209.888 342.324 210.842 342.198 211.769C342.198 211.958 341.865 211.904 341.865 211.724C341.865 210.905 341.865 210.077 341.937 209.258C341.918 209.24 341.904 209.218 341.894 209.194C341.884 209.169 341.879 209.143 341.88 209.117C341.881 209.09 341.887 209.065 341.899 209.041C341.91 209.017 341.926 208.996 341.946 208.979Z" fill="#A6A6A6"/>
<path d="M344.862 195.956C349.596 188.891 354.015 182.033 357.462 174.23C357.462 174.149 357.651 174.23 357.615 174.302C354.699 182.051 350.613 189.908 345.087 196.136C344.988 196.262 344.772 196.1 344.862 195.956Z" fill="#A6A6A6"/>
<path d="M351.153 172.493C353.115 169.019 355.176 165.644 357.021 162.116C357.075 162.017 357.21 162.116 357.174 162.197C355.658 165.874 353.742 169.372 351.459 172.628C351.324 172.844 351.036 172.691 351.153 172.493Z" fill="#A6A6A6"/>
<path d="M350.388 173.996V174.059C350.388 174.059 350.352 173.996 350.388 173.996Z" fill="#A6A6A6"/>
<path d="M337.194 219.077C337.099 223.788 336.544 228.478 335.538 233.081C335.619 233.585 335.691 234.089 335.763 234.611C337.204 229.526 338.035 224.287 338.238 219.005C338.281 218.933 338.303 218.851 338.303 218.767C338.303 218.683 338.281 218.601 338.238 218.528C338.445 211.446 337.92 204.362 336.672 197.387C334.476 184.337 329.67 171.8 320.562 162.017C320.486 161.954 320.397 161.908 320.301 161.884C320.205 161.86 320.105 161.858 320.008 161.877C319.911 161.897 319.82 161.939 319.741 161.999C319.663 162.059 319.599 162.136 319.554 162.224C315.882 171.566 317.16 182.717 320.292 192.032C321.987 197.081 324.413 201.853 327.492 206.198C330.678 210.572 334.638 214.28 337.194 219.077Z" fill="#99F6E4"/>
<path d="M321.678 166.373C330.3 180.377 336.312 196.973 337.041 213.524C337.041 213.821 336.564 213.893 336.519 213.596C336.321 212.111 336.087 210.635 335.853 209.168C332.253 205.748 328.653 202.139 326.061 197.864C326.056 197.848 326.056 197.83 326.061 197.814C326.066 197.797 326.077 197.783 326.091 197.773C326.105 197.763 326.122 197.757 326.139 197.758C326.157 197.758 326.173 197.764 326.187 197.774C329.292 201.32 332.19 204.974 335.7 208.124C335.079 204.461 334.35 200.861 333.477 197.324L332.793 196.523C332.649 196.352 332.901 196.091 333.054 196.271L333.261 196.496C332.047 191.638 330.545 186.857 328.761 182.177C326.565 179.549 324.108 177.29 322.506 174.131C322.461 174.05 322.569 173.996 322.623 174.068C323.91 175.868 325.152 177.668 326.61 179.36C327.195 180.026 327.834 180.656 328.41 181.304C326.417 176.231 324.056 171.31 321.345 166.58C321.326 166.537 321.323 166.488 321.337 166.442C321.351 166.396 321.381 166.357 321.422 166.332C321.462 166.307 321.511 166.297 321.558 166.305C321.605 166.312 321.648 166.337 321.678 166.373Z" fill="#A6A6A6"/>
<path d="M323.415 183.653C326.205 187.406 329.391 190.988 331.983 194.867C332.055 194.975 331.893 195.092 331.803 195.002C328.464 191.879 325.647 187.613 323.235 183.761C323.154 183.635 323.334 183.536 323.415 183.653Z" fill="#A6A6A6"/>
<path d="M332.37 195.731L332.487 195.848C332.568 195.938 332.442 196.064 332.361 195.983L332.244 195.857C332.231 195.84 332.225 195.819 332.226 195.797C332.228 195.775 332.237 195.755 332.253 195.74C332.268 195.724 332.288 195.715 332.31 195.714C332.331 195.712 332.353 195.718 332.37 195.731Z" fill="#A6A6A6"/>
<path d="M308.151 193.328C308.844 200.528 312.651 209.141 317.259 214.694C319.293 217.109 321.81 219.072 324.648 220.454C327.843 222.038 331.191 223.865 334.548 225.161C336.12 229.166 337.287 233.317 338.031 237.554L338.355 236.456C336.231 218.213 324.423 202.625 309.33 192.617C309.212 192.526 309.07 192.473 308.921 192.464C308.772 192.455 308.625 192.492 308.497 192.569C308.369 192.646 308.268 192.759 308.206 192.895C308.145 193.031 308.125 193.182 308.151 193.328Z" fill="#99F6E4"/>
<path d="M313.371 198.728C313.263 198.638 313.371 198.449 313.524 198.53C321.82 204.702 328.436 212.856 332.766 222.245C332.874 222.497 332.532 222.713 332.388 222.461C331.686 221.261 330.972 220.061 330.246 218.861C326.799 218.213 323.532 215.792 320.976 213.461C320.904 213.398 320.976 213.299 321.075 213.353C322.396 214.555 323.862 215.586 325.44 216.422C326.844 217.133 328.356 217.583 329.814 218.159C328.536 216.125 327.213 214.181 325.818 212.3C322.098 210.878 318.608 208.916 315.459 206.477C315.36 206.405 315.459 206.243 315.558 206.306C318.673 208.195 321.888 209.913 325.188 211.454C323.086 208.679 320.817 206.034 318.393 203.534C317.214 202.913 316.026 202.292 314.892 201.626C314.877 201.612 314.866 201.593 314.862 201.572C314.858 201.552 314.861 201.53 314.87 201.511C314.879 201.492 314.894 201.476 314.912 201.466C314.931 201.456 314.952 201.452 314.973 201.455C315.923 201.783 316.829 202.224 317.673 202.769C316.278 201.374 314.838 200.015 313.371 198.728Z" fill="#A6A6A6"/>
<path d="M313.695 205.028C313.898 205.151 314.09 205.289 314.271 205.442C314.28 205.453 314.285 205.467 314.286 205.481C314.287 205.495 314.282 205.509 314.274 205.52C314.266 205.532 314.254 205.54 314.24 205.544C314.227 205.548 314.212 205.547 314.199 205.541C313.99 205.442 313.789 205.327 313.596 205.199C313.575 205.185 313.56 205.164 313.555 205.139C313.549 205.115 313.553 205.089 313.565 205.067C313.578 205.046 313.598 205.03 313.623 205.022C313.647 205.015 313.673 205.017 313.695 205.028Z" fill="#A6A6A6"/>
<path d="M361.872 277.028H320.499L323.838 239.345L324.567 231.038H357.804L358.533 239.345L361.872 277.028Z" fill="#C7C7C7"/>
<path d="M358.533 239.345H323.838L324.567 231.038H357.804L358.533 239.345Z" fill="#A6A6A6"/>
<path d="M359.784 225.224H322.596V233.45H359.784V225.224Z" fill="#C7C7C7"/>
<path d="M155.844 167.525H41.8682V89.5493H155.844V167.525ZM42.7682 166.625H154.944V90.4493H42.7682V166.625Z" fill="#A6A6A6"/>
<path d="M50.7782 94.5712C50.7782 95.0198 50.6452 95.4583 50.396 95.8313C50.1467 96.2042 49.7925 96.4949 49.3781 96.6666C48.9637 96.8382 48.5077 96.8832 48.0677 96.7956C47.6278 96.7081 47.2237 96.4921 46.9065 96.1749C46.5893 95.8578 46.3733 95.4536 46.2858 95.0137C46.1983 94.5737 46.2432 94.1177 46.4148 93.7033C46.5865 93.2889 46.8772 92.9347 47.2502 92.6855C47.6231 92.4362 48.0616 92.3032 48.5102 92.3032C49.1117 92.3032 49.6886 92.5422 50.1139 92.9675C50.5392 93.3928 50.7782 93.9697 50.7782 94.5712Z" fill="#A6A6A6"/>
<path d="M60.0392 94.5712C60.0392 95.0198 59.9062 95.4583 59.6569 95.8313C59.4077 96.2042 59.0535 96.4949 58.6391 96.6666C58.2247 96.8382 57.7687 96.8832 57.3287 96.7956C56.8888 96.7081 56.4846 96.4921 56.1675 96.1749C55.8503 95.8578 55.6343 95.4536 55.5468 95.0137C55.4592 94.5737 55.5042 94.1177 55.6758 93.7033C55.8475 93.2889 56.1382 92.9347 56.5111 92.6855C56.8841 92.4362 57.3226 92.3032 57.7712 92.3032C58.3727 92.3032 58.9496 92.5422 59.3749 92.9675C59.8002 93.3928 60.0392 93.9697 60.0392 94.5712Z" fill="#99F6E4"/>
<path d="M69.3002 94.5712C69.3002 95.0198 69.1671 95.4583 68.9179 95.8313C68.6687 96.2043 68.3145 96.4949 67.9001 96.6666C67.4857 96.8383 67.0296 96.8832 66.5897 96.7957C66.1497 96.7081 65.7456 96.4921 65.4284 96.175C65.1113 95.8578 64.8953 95.4537 64.8077 95.0137C64.7202 94.5738 64.7651 94.1177 64.9368 93.7033C65.1085 93.2889 65.3992 92.9347 65.7721 92.6855C66.1451 92.4363 66.5836 92.3032 67.0322 92.3032C67.3303 92.3021 67.6258 92.3599 67.9015 92.4735C68.1772 92.587 68.4277 92.754 68.6385 92.9649C68.8494 93.1757 69.0164 93.4262 69.1299 93.7019C69.2435 93.9776 69.3014 94.2731 69.3002 94.5712Z" fill="#2DD4BF"/>
<path d="M155.394 98.5674H42.3181V99.4674H155.394V98.5674Z" fill="#A6A6A6"/>
<path d="M326.799 128.933C325.016 130.046 323.065 130.863 321.021 131.354C316.124 132.552 310.955 131.858 306.547 129.413C302.138 126.968 298.813 122.951 297.235 118.163C295.658 113.375 295.943 108.168 298.035 103.581C300.127 98.9937 303.871 95.3641 308.521 93.4158C313.171 91.4676 318.384 91.344 323.121 93.0697C327.858 94.7953 331.77 98.2435 334.077 102.726C336.384 107.209 336.916 112.396 335.567 117.254C334.218 122.111 331.087 126.282 326.799 128.933Z" fill="#A6A6A6"/>
<path d="M322.362 109.628C322.362 110.833 322.005 112.012 321.335 113.013C320.666 114.015 319.714 114.796 318.601 115.258C317.487 115.719 316.262 115.839 315.08 115.604C313.899 115.369 312.813 114.789 311.961 113.937C311.109 113.085 310.528 111.999 310.293 110.817C310.058 109.635 310.179 108.41 310.64 107.297C311.101 106.183 311.882 105.232 312.884 104.562C313.886 103.893 315.064 103.535 316.269 103.535C317.884 103.538 319.433 104.18 320.575 105.323C321.717 106.465 322.36 108.013 322.362 109.628Z" fill="white"/>
<path d="M326.799 126.422V128.933C325.016 130.046 323.065 130.863 321.021 131.354C318.438 131.992 315.753 132.105 313.125 131.688C310.497 131.271 307.98 130.331 305.721 128.924V126.422C305.721 123.63 306.831 120.951 308.805 118.976C310.78 117.002 313.458 115.892 316.251 115.892C319.044 115.892 321.722 117.002 323.697 118.976C325.672 120.951 326.781 123.63 326.781 126.422H326.799Z" fill="white"/>
<path d="M0 277.298L50.364 277.082L100.719 277.001L201.438 276.848L302.157 277.001L352.521 277.082L402.876 277.298L352.521 277.523L302.157 277.595L201.438 277.748L100.719 277.595L50.364 277.523L0 277.298Z" fill="#263238"/>
<path d="M158.265 267.794H43.6047V277.289H158.265V267.794Z" fill="#455A64"/>
<path d="M376.578 267.794H158.256V277.289H376.578V267.794Z" fill="#37474F"/>
<path d="M261.945 267.794H43.6048L13.8418 127.781H232.182L261.945 267.794Z" fill="#263238"/>
<path d="M112.563 258.947H50.5618L24.5608 136.619H86.5618L112.563 258.947Z" fill="white"/>
<path d="M49.2658 182.528C48.8326 182.838 48.3436 183.061 47.8258 183.185C46.3605 183.523 44.8216 183.288 43.5238 182.528C42.1442 181.776 41.0406 180.603 40.3738 179.18C39.0418 176.246 40.2028 173.294 42.9838 172.583C45.7648 171.872 49.0948 173.663 50.4358 176.588C51.5158 178.982 50.9668 181.358 49.2658 182.528Z" fill="#C7C7C7"/>
<path d="M46.9348 177.299C46.9872 177.495 46.9927 177.701 46.9508 177.9C46.909 178.099 46.8211 178.285 46.694 178.444C46.567 178.602 46.4046 178.729 46.2197 178.813C46.0348 178.897 45.8328 178.936 45.6298 178.928C45.1587 178.911 44.7063 178.74 44.3421 178.441C43.9778 178.142 43.722 177.731 43.6138 177.272C43.5567 177.074 43.5475 176.865 43.5869 176.662C43.6264 176.459 43.7134 176.269 43.8408 176.106C43.9682 175.944 44.1323 175.814 44.3197 175.727C44.5071 175.64 44.7124 175.599 44.9188 175.607C45.3938 175.629 45.8485 175.807 46.2128 176.112C46.577 176.418 46.8307 176.835 46.9348 177.299Z" fill="white"/>
<path d="M49.1217 181.88L49.2657 182.564C48.8325 182.874 48.3435 183.097 47.8257 183.221C46.3604 183.559 44.8215 183.324 43.5237 182.564L43.3797 181.88C43.2809 181.537 43.2651 181.176 43.3335 180.825C43.402 180.475 43.5528 180.146 43.7735 179.866C43.9942 179.585 44.2784 179.361 44.6028 179.212C44.9271 179.063 45.2822 178.994 45.6387 179.009C46.4522 179.045 47.2318 179.345 47.8601 179.863C48.4884 180.38 48.9312 181.089 49.1217 181.88Z" fill="white"/>
<path d="M78.9208 174.599H54.0538L53.5948 172.457H78.4618L78.9208 174.599Z" fill="#C7C7C7"/>
<path d="M88.8658 178.532H54.8908L54.6208 177.299H88.6048L88.8658 178.532Z" fill="#C7C7C7"/>
<path d="M89.4327 181.196H55.4487L55.1877 179.963H89.1627L89.4327 181.196Z" fill="#C7C7C7"/>
<path d="M52.9378 199.628C52.5068 199.936 52.0211 200.159 51.5068 200.285C50.0386 200.624 48.4966 200.389 47.1958 199.628C45.8168 198.878 44.7155 197.704 44.0548 196.28C42.7138 193.346 43.8748 190.394 46.6558 189.683C49.4368 188.972 52.7668 190.763 54.1078 193.688C55.1428 196.028 54.5938 198.431 52.9378 199.628Z" fill="#2DD4BF"/>
<path d="M50.5617 194.372C50.6192 194.57 50.6287 194.779 50.5892 194.982C50.5498 195.184 50.4627 195.374 50.3351 195.536C50.2075 195.698 50.0431 195.827 49.8555 195.913C49.668 195.998 49.4627 196.038 49.2567 196.028C48.7861 196.01 48.3344 195.838 47.9705 195.539C47.6065 195.24 47.3503 194.83 47.2407 194.372C47.1836 194.174 47.1744 193.965 47.2139 193.762C47.2533 193.559 47.3403 193.369 47.4677 193.206C47.5951 193.044 47.7593 192.914 47.9467 192.827C48.1341 192.74 48.3394 192.699 48.5457 192.707C49.0172 192.728 49.469 192.901 49.8328 193.202C50.1966 193.502 50.4525 193.913 50.5617 194.372Z" fill="white"/>
<path d="M52.7487 198.953L52.9377 199.628C52.5067 199.936 52.0211 200.159 51.5067 200.285C50.0385 200.624 48.4966 200.389 47.1957 199.628L47.0517 198.944C46.9529 198.601 46.9371 198.24 47.0055 197.89C47.074 197.539 47.2248 197.21 47.4455 196.93C47.6662 196.649 47.9504 196.425 48.2748 196.276C48.5991 196.128 48.9542 196.058 49.3107 196.073C50.1175 196.119 50.8878 196.424 51.5073 196.943C52.1267 197.462 52.5621 198.167 52.7487 198.953Z" fill="white"/>
<path d="M82.5478 191.681H57.6808L57.2218 189.53H82.0978L82.5478 191.681Z" fill="#C7C7C7"/>
<path d="M92.4928 195.605H58.5178L58.2568 194.372H92.2318L92.4928 195.605Z" fill="#C7C7C7"/>
<path d="M93.0598 198.269H59.0848L58.8148 197.036H92.7988L93.0598 198.269Z" fill="#C7C7C7"/>
<path d="M56.5378 216.728C56.1067 217.036 55.6211 217.259 55.1068 217.385C53.6328 217.728 52.0835 217.493 50.7778 216.728C49.3987 215.978 48.2975 214.804 47.6368 213.38C46.2958 210.455 47.4658 207.494 50.2378 206.783C53.0098 206.072 56.3578 207.863 57.6988 210.788C58.7698 213.128 58.2208 215.504 56.5378 216.728Z" fill="#455A64"/>
<path d="M54.1888 211.445C54.2516 211.645 54.2651 211.857 54.2282 212.063C54.1912 212.269 54.1049 212.463 53.9767 212.628C53.8484 212.794 53.682 212.926 53.4917 213.013C53.3014 213.1 53.0928 213.139 52.8838 213.128C52.4132 213.11 51.9615 212.938 51.5975 212.639C51.2336 212.34 50.9773 211.93 50.8678 211.472C50.8104 211.273 50.8013 211.063 50.8412 210.86C50.8811 210.656 50.9689 210.465 51.0974 210.302C51.2258 210.14 51.3912 210.01 51.5797 209.924C51.7683 209.838 51.9747 209.798 52.1818 209.807C52.6485 209.827 53.0963 209.997 53.4581 210.292C53.82 210.587 54.0763 210.992 54.1888 211.445Z" fill="white"/>
<path d="M56.3758 216.026L56.5378 216.728C56.1068 217.036 55.6212 217.259 55.1068 217.385C53.6329 217.728 52.0836 217.493 50.7778 216.728L50.6338 216.044C50.5268 215.695 50.5062 215.325 50.5736 214.965C50.6411 214.606 50.7947 214.269 51.0213 213.982C51.2479 213.695 51.5406 213.468 51.8744 213.319C52.2082 213.17 52.5731 213.105 52.9378 213.128C53.7474 213.174 54.5203 213.481 55.1403 214.004C55.7603 214.526 56.1939 215.236 56.3758 216.026Z" fill="white"/>
<path d="M86.1838 208.754H61.3078L60.8578 206.603H85.7248L86.1838 208.754Z" fill="#C7C7C7"/>
<path d="M96.1198 212.678H62.1448L61.8838 211.445H95.8588L96.1198 212.678Z" fill="#C7C7C7"/>
<path d="M96.6868 215.342H62.7118L62.4508 214.109H96.4258L96.6868 215.342Z" fill="#C7C7C7"/>
<path d="M60.1379 233.828C59.7063 234.137 59.2211 234.363 58.7069 234.494C57.2373 234.824 55.6973 234.586 54.3959 233.828C53.0207 233.073 51.9209 231.901 51.2548 230.48C49.9228 227.528 51.1379 224.549 53.8379 223.838C56.5379 223.127 59.9489 224.918 61.2899 227.843C62.3969 230.228 61.8569 232.577 60.1379 233.828Z" fill="#263238"/>
<path d="M57.8247 228.518C57.8879 228.718 57.9025 228.93 57.8672 229.136C57.8319 229.343 57.7478 229.538 57.6218 229.705C57.4959 229.872 57.3318 230.007 57.1433 230.098C56.9547 230.189 56.7471 230.234 56.5377 230.228C56.0663 230.208 55.6145 230.034 55.2507 229.734C54.8868 229.433 54.6309 229.022 54.5217 228.563C54.4664 228.364 54.4588 228.155 54.4996 227.952C54.5403 227.75 54.6283 227.56 54.7563 227.397C54.8843 227.235 55.0488 227.105 55.2363 227.019C55.4239 226.932 55.6292 226.891 55.8357 226.898C56.2965 226.922 56.7377 227.091 57.0954 227.383C57.4531 227.674 57.7086 228.072 57.8247 228.518Z" fill="white"/>
<path d="M60.003 233.099L60.138 233.828C59.7065 234.137 59.2212 234.363 58.707 234.494C57.2375 234.824 55.6975 234.586 54.396 233.828L54.252 233.144C54.1457 232.796 54.1249 232.428 54.1915 232.07C54.2581 231.713 54.4101 231.376 54.6345 231.09C54.859 230.804 55.1492 230.576 55.4806 230.426C55.8121 230.276 56.1748 230.208 56.538 230.228C57.3492 230.265 58.1262 230.565 58.7514 231.083C59.3767 231.601 59.816 232.309 60.003 233.099Z" fill="white"/>
<path d="M89.8107 225.827H64.9347L64.4847 223.676H89.3517L89.8107 225.827Z" fill="#C7C7C7"/>
<path d="M99.7467 229.751H65.7717L65.5107 228.518H99.4857L99.7467 229.751Z" fill="#C7C7C7"/>
<path d="M100.314 232.415H66.3388L66.0778 231.182H100.053L100.314 232.415Z" fill="#C7C7C7"/>
<path d="M63.7828 250.856C63.348 251.165 62.8598 251.391 62.3428 251.522C60.8762 251.853 59.3389 251.615 58.0408 250.856C56.6611 250.104 55.5576 248.931 54.8908 247.508C53.5588 244.583 54.7198 241.622 57.5008 240.911C60.2818 240.2 63.6118 241.991 64.9528 244.925C66.0328 247.328 65.4838 249.65 63.7828 250.856Z" fill="#C7C7C7"/>
<path d="M61.4518 245.591C61.5092 245.791 61.5183 246.001 61.4784 246.204C61.4385 246.407 61.3506 246.598 61.2222 246.761C61.0938 246.924 60.9284 247.054 60.7398 247.14C60.5512 247.226 60.3449 247.266 60.1378 247.256C59.6675 247.235 59.2169 247.061 58.8546 246.761C58.4924 246.46 58.2382 246.05 58.1308 245.591C58.0736 245.393 58.0644 245.184 58.1039 244.981C58.1433 244.778 58.2303 244.588 58.3577 244.425C58.4851 244.263 58.6493 244.133 58.8367 244.046C59.0241 243.959 59.2294 243.918 59.4358 243.926C59.9072 243.947 60.359 244.12 60.7228 244.421C61.0867 244.721 61.3426 245.132 61.4518 245.591Z" fill="white"/>
<path d="M63.6388 250.172L63.7828 250.856C63.348 251.165 62.8598 251.391 62.3428 251.522C60.8761 251.853 59.3388 251.615 58.0408 250.856L57.8878 250.172C57.7963 249.832 57.7858 249.475 57.857 249.13C57.9282 248.785 58.0792 248.461 58.2978 248.185C58.5164 247.908 58.7967 247.687 59.1162 247.538C59.4357 247.389 59.7855 247.318 60.1378 247.328C60.9503 247.36 61.7306 247.655 62.3618 248.167C62.9929 248.68 63.441 249.383 63.6388 250.172Z" fill="white"/>
<path d="M93.4378 242.9H68.5708L68.1118 240.749H92.9878L93.4378 242.9Z" fill="#C7C7C7"/>
<path d="M103.383 246.824H69.4078L69.1378 245.591H103.113L103.383 246.824Z" fill="#C7C7C7"/>
<path d="M103.95 249.488H69.9658L69.7048 248.255H103.68L103.95 249.488Z" fill="#C7C7C7"/>
<path d="M39.9328 153.44C39.6609 153.633 39.3558 153.773 39.0328 153.854C38.113 154.067 37.1467 153.919 36.3328 153.44C35.4764 152.974 34.7919 152.245 34.3798 151.361C33.5428 149.561 34.2718 147.698 35.9998 147.248C36.9421 147.087 37.9111 147.246 38.7526 147.7C39.5941 148.153 40.2598 148.875 40.6438 149.75C40.9794 150.35 41.0921 151.05 40.962 151.725C40.8319 152.4 40.4674 153.008 39.9328 153.44Z" fill="#C7C7C7"/>
<path d="M38.4748 150.128C38.5105 150.252 38.5165 150.382 38.4921 150.508C38.4678 150.634 38.4138 150.752 38.3347 150.853C38.2556 150.954 38.1536 151.035 38.0371 151.089C37.9207 151.143 37.793 151.168 37.6648 151.163C37.3718 151.151 37.0908 151.044 36.8648 150.857C36.6389 150.67 36.4804 150.414 36.4138 150.128C36.378 150.005 36.3721 149.875 36.3964 149.749C36.4208 149.623 36.4747 149.505 36.5538 149.403C36.6329 149.302 36.7349 149.222 36.8514 149.168C36.9679 149.114 37.0955 149.088 37.2238 149.093C37.5163 149.107 37.7966 149.215 38.0223 149.402C38.2479 149.588 38.4067 149.843 38.4748 150.128Z" fill="white"/>
<path d="M39.8338 153.017L39.9328 153.44C39.6609 153.633 39.3558 153.773 39.0328 153.854C38.113 154.067 37.1467 153.919 36.3328 153.44L36.2428 153.017C36.1815 152.803 36.1719 152.576 36.2149 152.357C36.2579 152.138 36.3522 151.932 36.49 151.757C36.6279 151.581 36.8054 151.441 37.0081 151.347C37.2107 151.253 37.4327 151.209 37.6558 151.217C38.1658 151.237 38.6552 151.424 39.0486 151.75C39.4421 152.075 39.7179 152.52 39.8338 153.017Z" fill="white"/>
<path d="M82.5028 151.298C82.4923 151.264 82.4904 151.229 82.497 151.194C82.5037 151.159 82.5188 151.126 82.541 151.099C82.5633 151.071 82.5919 151.05 82.6245 151.036C82.6571 151.022 82.6925 151.016 82.7278 151.019C82.8084 151.022 82.886 151.051 82.9491 151.101C83.0123 151.151 83.0577 151.22 83.0788 151.298C83.0871 151.333 83.0873 151.369 83.0793 151.404C83.0713 151.439 83.0554 151.472 83.0327 151.5C83.0101 151.528 82.9814 151.55 82.9488 151.565C82.9162 151.58 82.8807 151.587 82.8448 151.586C82.7637 151.584 82.6858 151.554 82.6237 151.502C82.5616 151.45 82.519 151.378 82.5028 151.298Z" fill="#C7C7C7"/>
<path d="M82.2598 150.128C82.2498 150.094 82.248 150.058 82.2548 150.023C82.2615 149.988 82.2764 149.955 82.2984 149.927C82.3204 149.898 82.3488 149.876 82.3812 149.861C82.4136 149.846 82.4491 149.839 82.4848 149.84C82.567 149.842 82.6462 149.872 82.7098 149.924C82.7734 149.976 82.8178 150.048 82.8358 150.128C82.8458 150.163 82.8475 150.199 82.8408 150.234C82.8341 150.269 82.8191 150.302 82.7971 150.33C82.7752 150.358 82.7468 150.381 82.7144 150.396C82.682 150.411 82.6465 150.418 82.6108 150.416C82.5285 150.414 82.4493 150.385 82.3857 150.333C82.3221 150.28 82.2778 150.209 82.2598 150.128Z" fill="#C7C7C7"/>
<path d="M82.0169 149.03C82.0068 148.996 82.0051 148.96 82.0118 148.925C82.0186 148.89 82.0335 148.857 82.0555 148.829C82.0775 148.8 82.1059 148.778 82.1383 148.763C82.1707 148.748 82.2062 148.741 82.2419 148.742C82.3241 148.744 82.4033 148.774 82.4669 148.826C82.5305 148.878 82.5748 148.95 82.5929 149.03C82.6029 149.065 82.6046 149.101 82.5979 149.136C82.5912 149.171 82.5762 149.204 82.5542 149.232C82.5322 149.26 82.5039 149.283 82.4715 149.298C82.4391 149.313 82.4035 149.32 82.3679 149.318C82.2865 149.313 82.2087 149.283 82.1457 149.231C82.0827 149.179 82.0376 149.109 82.0169 149.03Z" fill="#C7C7C7"/>
<path d="M78.3178 150.893H75.0329L74.5739 148.742H77.8589L78.3178 150.893Z" fill="#C7C7C7"/>
<path d="M75.0328 150.893L75.1768 151.586L75.7438 150.893H75.0328Z" fill="#C7C7C7"/>
<path d="M77.3548 149.318H75.3208L75.2758 149.111H77.3098L77.3548 149.318Z" fill="white"/>
<path d="M77.4448 149.741H75.4108L75.3658 149.543H77.4088L77.4448 149.741Z" fill="white"/>
<path d="M77.5348 150.164H75.5008L75.4648 149.966H77.4988L77.5348 150.164Z" fill="white"/>
<path d="M226.629 143.234H25.9648L24.5608 136.619H225.225L226.629 143.234Z" fill="#37474F"/>
<path d="M30.5188 139.922C30.5761 140.118 30.5859 140.325 30.5474 140.526C30.509 140.726 30.4233 140.915 30.2976 141.076C30.1718 141.237 30.0096 141.365 29.8243 141.451C29.6389 141.537 29.4358 141.577 29.2318 141.569C28.7658 141.55 28.3189 141.378 27.9597 141.081C27.6005 140.783 27.3486 140.376 27.2428 139.922C27.1872 139.727 27.1787 139.521 27.218 139.321C27.2573 139.122 27.3432 138.935 27.4687 138.775C27.5943 138.615 27.7559 138.487 27.9403 138.402C28.1247 138.317 28.3267 138.276 28.5298 138.284C28.9946 138.303 29.4405 138.473 29.7996 138.769C30.1586 139.065 30.4112 139.47 30.5188 139.922Z" fill="#C7C7C7"/>
<path d="M37.2238 139.922C37.2793 140.119 37.2875 140.326 37.2477 140.526C37.208 140.727 37.1214 140.915 36.995 141.076C36.8686 141.236 36.7061 141.365 36.5206 141.45C36.3351 141.536 36.132 141.577 35.9278 141.569C35.4627 141.547 35.0173 141.374 34.6587 141.077C34.3 140.78 34.0474 140.375 33.9388 139.922C33.883 139.726 33.8746 139.519 33.9143 139.319C33.954 139.119 34.0408 138.931 34.1674 138.771C34.2939 138.611 34.4567 138.484 34.6423 138.399C34.8279 138.314 35.031 138.275 35.2348 138.284C35.6996 138.303 36.1455 138.473 36.5046 138.769C36.8637 139.065 37.1162 139.47 37.2238 139.922Z" fill="white"/>
<path d="M43.9378 139.922C43.9951 140.118 44.005 140.325 43.9665 140.526C43.928 140.726 43.8424 140.915 43.7166 141.076C43.5909 141.237 43.4286 141.365 43.2433 141.451C43.058 141.537 42.8549 141.577 42.6508 141.569C42.1848 141.55 41.738 141.378 41.3788 141.081C41.0195 140.783 40.7677 140.376 40.6618 139.922C40.6063 139.727 40.5978 139.521 40.6371 139.321C40.6763 139.122 40.7623 138.935 40.8878 138.775C41.0133 138.615 41.1749 138.487 41.3594 138.402C41.5438 138.317 41.7458 138.276 41.9488 138.284C42.4136 138.303 42.8595 138.473 43.2186 138.769C43.5777 139.065 43.8303 139.47 43.9378 139.922Z" fill="#2DD4BF"/>
<path d="M226.629 143.234H87.9658L112.563 258.947H251.226L226.629 143.234Z" fill="#EBEBEB"/>
<path d="M239.247 253.367H124.101L122.661 246.626H237.816L239.247 253.367Z" fill="white"/>
<path d="M236.943 250.082C237 250.281 237.009 250.49 236.97 250.693C236.93 250.895 236.843 251.086 236.716 251.248C236.588 251.411 236.424 251.541 236.237 251.627C236.049 251.714 235.844 251.755 235.638 251.747C235.167 251.725 234.716 251.551 234.352 251.251C233.989 250.951 233.732 250.541 233.622 250.082C233.566 249.884 233.558 249.675 233.599 249.472C233.64 249.27 233.728 249.08 233.856 248.919C233.984 248.757 234.149 248.628 234.337 248.543C234.524 248.457 234.73 248.417 234.936 248.426C235.405 248.447 235.855 248.619 236.217 248.918C236.579 249.217 236.834 249.626 236.943 250.082Z" fill="#2DD4BF"/>
<path d="M234.774 249.128L236.007 250.082L235.188 251.045L234.927 250.82L235.548 250.082L234.612 249.353L234.774 249.128Z" fill="white"/>
<path d="M125.703 252.008H125.262L124.407 247.985H124.848L125.703 252.008Z" fill="#263238"/>
<path d="M243.738 253.421C243.698 253.421 243.66 253.407 243.629 253.383C243.599 253.358 243.577 253.324 243.567 253.286L243.225 251.666C243.219 251.649 243.217 251.631 243.22 251.614C243.222 251.596 243.229 251.58 243.24 251.565C243.251 251.551 243.265 251.54 243.281 251.532C243.297 251.525 243.315 251.521 243.333 251.522C243.373 251.525 243.411 251.54 243.442 251.566C243.473 251.592 243.494 251.627 243.504 251.666L243.846 253.286C243.85 253.303 243.85 253.32 243.847 253.336C243.843 253.352 243.836 253.368 243.826 253.381C243.815 253.394 243.802 253.404 243.786 253.411C243.771 253.418 243.755 253.422 243.738 253.421Z" fill="#A6A6A6"/>
<path d="M244.638 253.421H242.838C242.798 253.42 242.76 253.407 242.73 253.383C242.699 253.358 242.677 253.324 242.667 253.286C242.663 253.27 242.663 253.252 242.666 253.235C242.67 253.218 242.677 253.203 242.687 253.189C242.697 253.175 242.711 253.164 242.726 253.156C242.741 253.148 242.758 253.143 242.775 253.142H244.575C244.615 253.143 244.654 253.158 244.685 253.184C244.716 253.211 244.738 253.246 244.746 253.286C244.75 253.302 244.75 253.319 244.747 253.336C244.743 253.352 244.736 253.368 244.726 253.381C244.715 253.394 244.702 253.404 244.686 253.411C244.671 253.418 244.655 253.422 244.638 253.421Z" fill="#A6A6A6"/>
<path d="M243.738 247.769L244.233 250.118C244.271 250.255 244.277 250.398 244.249 250.538C244.221 250.677 244.161 250.807 244.074 250.919C243.986 251.03 243.873 251.119 243.744 251.179C243.616 251.238 243.475 251.267 243.333 251.261C243.104 251.253 242.881 251.19 242.681 251.079C242.48 250.968 242.309 250.812 242.181 250.622C242.072 250.472 241.995 250.3 241.956 250.118L241.452 247.769C241.413 247.633 241.408 247.489 241.436 247.35C241.463 247.211 241.523 247.08 241.611 246.969C241.699 246.857 241.812 246.768 241.94 246.709C242.069 246.649 242.21 246.621 242.352 246.626C242.682 246.625 243.002 246.743 243.252 246.959C243.495 247.15 243.669 247.416 243.747 247.715C243.747 247.715 243.738 247.751 243.738 247.769Z" fill="#A6A6A6"/>
<path d="M243.414 251.828C242.96 251.819 242.522 251.658 242.172 251.369C241.786 251.07 241.516 250.648 241.407 250.172L241.2 249.182C241.194 249.165 241.192 249.147 241.195 249.13C241.198 249.112 241.204 249.096 241.215 249.081C241.226 249.067 241.24 249.056 241.256 249.048C241.272 249.041 241.29 249.037 241.308 249.038C241.347 249.04 241.385 249.055 241.415 249.081C241.444 249.108 241.464 249.143 241.47 249.182L241.686 250.172C241.78 250.568 242.005 250.92 242.325 251.171C242.633 251.426 243.023 251.561 243.423 251.549C243.591 251.541 243.754 251.495 243.902 251.414C244.049 251.334 244.176 251.221 244.273 251.084C244.37 250.947 244.435 250.789 244.462 250.624C244.49 250.458 244.479 250.288 244.431 250.127L244.233 249.182C244.227 249.165 244.225 249.147 244.228 249.13C244.231 249.112 244.238 249.096 244.248 249.081C244.259 249.067 244.273 249.056 244.289 249.048C244.305 249.041 244.323 249.037 244.341 249.038C244.38 249.04 244.418 249.055 244.448 249.081C244.477 249.108 244.497 249.143 244.503 249.182L244.71 250.127C244.768 250.321 244.78 250.526 244.747 250.726C244.713 250.925 244.634 251.114 244.516 251.279C244.398 251.443 244.243 251.578 244.065 251.673C243.886 251.769 243.688 251.822 243.486 251.828H243.414Z" fill="#A6A6A6"/>
<path d="M120.933 250.028C121.04 250.43 121.052 250.852 120.969 251.259C120.886 251.667 120.71 252.05 120.455 252.378C120.2 252.707 119.872 252.972 119.498 253.153C119.123 253.334 118.712 253.426 118.296 253.421C117.342 253.38 116.427 253.031 115.688 252.426C114.95 251.82 114.428 250.992 114.201 250.064C114.094 249.662 114.082 249.241 114.164 248.833C114.247 248.426 114.423 248.043 114.678 247.714C114.934 247.386 115.261 247.121 115.636 246.94C116.011 246.759 116.422 246.667 116.838 246.671C117.793 246.709 118.709 247.057 119.448 247.663C120.187 248.269 120.708 249.099 120.933 250.028Z" fill="white"/>
<path d="M116.289 249.335C116.306 249.392 116.309 249.452 116.299 249.51C116.288 249.568 116.264 249.623 116.228 249.669C116.192 249.716 116.145 249.753 116.091 249.778C116.037 249.803 115.979 249.815 115.92 249.812C115.784 249.809 115.654 249.761 115.549 249.676C115.443 249.592 115.368 249.475 115.335 249.344C115.319 249.287 115.317 249.227 115.329 249.169C115.341 249.111 115.366 249.057 115.403 249.01C115.44 248.964 115.487 248.927 115.541 248.902C115.595 248.877 115.653 248.865 115.713 248.867C115.847 248.871 115.976 248.919 116.08 249.004C116.184 249.088 116.257 249.205 116.289 249.335Z" fill="#A6A6A6"/>
<path d="M119.538 249.326C119.555 249.383 119.559 249.443 119.548 249.501C119.538 249.559 119.513 249.614 119.477 249.66C119.441 249.707 119.394 249.745 119.34 249.769C119.287 249.794 119.228 249.806 119.169 249.803C119.034 249.797 118.905 249.747 118.801 249.661C118.697 249.575 118.624 249.458 118.593 249.326C118.575 249.27 118.572 249.21 118.583 249.152C118.593 249.094 118.618 249.039 118.654 248.992C118.69 248.945 118.737 248.908 118.79 248.883C118.844 248.858 118.903 248.847 118.962 248.849C119.097 248.855 119.226 248.905 119.33 248.991C119.434 249.077 119.507 249.195 119.538 249.326Z" fill="#A6A6A6"/>
<path d="M118.107 249.182C118.143 249.335 118.121 249.496 118.044 249.632C117.993 249.717 117.92 249.787 117.833 249.834C117.746 249.882 117.648 249.905 117.549 249.902C117.316 249.899 117.093 249.805 116.928 249.641C116.802 249.519 116.714 249.363 116.676 249.191L118.107 249.182Z" fill="#A6A6A6"/>
<path d="M118.044 249.632C117.993 249.717 117.92 249.787 117.833 249.834C117.746 249.882 117.648 249.905 117.549 249.902C117.316 249.899 117.093 249.805 116.928 249.641C116.995 249.573 117.075 249.52 117.163 249.484C117.251 249.449 117.346 249.432 117.441 249.434C117.658 249.435 117.869 249.504 118.044 249.632Z" fill="#DBDBDB"/>
<path d="M40.6348 165.014L40.2118 165.401L39.0238 164.168L38.5918 163.718C38.6556 163.694 38.7138 163.658 38.7628 163.61C38.8593 163.522 38.9254 163.405 38.9518 163.277L39.4108 163.754L40.6348 165.014Z" fill="#A6A6A6"/>
<path d="M39.0328 162.134C38.7996 161.848 38.4656 161.661 38.0992 161.612C37.7328 161.564 37.3617 161.657 37.0618 161.873C36.9434 162.009 36.8532 162.167 36.7967 162.338C36.7402 162.509 36.7184 162.689 36.7326 162.869C36.7469 163.048 36.7969 163.223 36.8797 163.383C36.9625 163.542 37.0765 163.684 37.2148 163.799C37.4327 164.05 37.727 164.222 38.0524 164.289C38.3777 164.355 38.7159 164.313 39.0148 164.168C39.0738 164.137 39.1283 164.097 39.1768 164.051C39.2698 163.967 39.3461 163.867 39.4018 163.754C39.5126 163.479 39.5366 163.176 39.4707 162.887C39.4047 162.597 39.252 162.335 39.0328 162.134ZM38.7628 163.61C38.7139 163.658 38.6557 163.694 38.5918 163.718C38.4175 163.785 38.2268 163.795 38.0463 163.748C37.8657 163.702 37.7041 163.6 37.5838 163.457C37.5011 163.39 37.4328 163.306 37.3829 163.211C37.333 163.117 37.3025 163.013 37.2933 162.907C37.2841 162.8 37.2963 162.693 37.3292 162.591C37.3621 162.489 37.415 162.395 37.4848 162.314C37.6671 162.19 37.8889 162.136 38.108 162.164C38.327 162.193 38.5281 162.3 38.6728 162.467C38.7793 162.571 38.8599 162.699 38.9084 162.839C38.9568 162.98 38.9717 163.13 38.9518 163.277C38.9291 163.412 38.8627 163.535 38.7628 163.628V163.61Z" fill="#A6A6A6"/>
<path d="M46.0258 164.096C46.0326 164.089 46.0409 164.082 46.0502 164.078C46.0595 164.074 46.0696 164.072 46.0798 164.072C46.09 164.072 46.1001 164.074 46.1094 164.078C46.1187 164.082 46.127 164.089 46.1338 164.096C46.394 164.292 46.7085 164.402 47.0338 164.411C47.2159 164.421 47.3952 164.363 47.5378 164.249C47.5929 164.209 47.635 164.153 47.659 164.089C47.6829 164.025 47.6878 163.956 47.6728 163.889C47.6562 163.817 47.6233 163.749 47.5765 163.691C47.5297 163.634 47.4703 163.587 47.4028 163.556C47.2123 163.452 47.0052 163.382 46.7908 163.349C46.5719 163.323 46.3607 163.253 46.1698 163.142C46.0859 163.1 46.012 163.041 45.953 162.968C45.894 162.895 45.8513 162.81 45.8278 162.719C45.809 162.635 45.8143 162.548 45.8429 162.467C45.8716 162.385 45.9225 162.314 45.9898 162.26C46.1444 162.135 46.3399 162.071 46.5388 162.08C46.831 162.103 47.1127 162.199 47.3578 162.359C47.3702 162.376 47.3769 162.397 47.3769 162.418C47.3769 162.439 47.3702 162.459 47.3578 162.476C47.3519 162.484 47.3444 162.49 47.3358 162.494C47.3272 162.498 47.3178 162.5 47.3083 162.5C47.2988 162.5 47.2894 162.498 47.2808 162.494C47.2722 162.49 47.2647 162.484 47.2588 162.476C47.0424 162.328 46.7912 162.238 46.5298 162.215C46.3622 162.211 46.1978 162.261 46.0618 162.359C46.0115 162.399 45.9731 162.452 45.9509 162.513C45.9287 162.573 45.9235 162.638 45.9358 162.701C45.9555 162.765 45.988 162.825 46.0314 162.876C46.0747 162.927 46.1279 162.968 46.1878 162.998C46.3622 163.091 46.5507 163.155 46.7458 163.187C46.9828 163.22 47.2117 163.296 47.4208 163.412C47.5112 163.458 47.5908 163.523 47.6544 163.602C47.718 163.681 47.7641 163.773 47.7898 163.871C47.8073 163.962 47.7999 164.056 47.7682 164.144C47.7365 164.231 47.6817 164.308 47.6098 164.366C47.443 164.496 47.2359 164.563 47.0248 164.555C46.6711 164.534 46.3308 164.412 46.0438 164.204C46.0293 164.191 46.0197 164.173 46.0165 164.153C46.0132 164.134 46.0165 164.114 46.0258 164.096Z" fill="#A6A6A6"/>
<path d="M48.2308 163.691C48.2009 163.59 48.1954 163.484 48.2146 163.38C48.2338 163.277 48.2772 163.18 48.3413 163.096C48.4054 163.013 48.4883 162.946 48.5833 162.9C48.6783 162.855 48.7827 162.833 48.8878 162.836C49.116 162.849 49.3344 162.933 49.5121 163.077C49.6898 163.221 49.8177 163.417 49.8778 163.637C49.8791 163.647 49.8782 163.658 49.8752 163.668C49.8721 163.677 49.867 163.686 49.8602 163.694C49.8534 163.702 49.845 163.708 49.8356 163.712C49.8263 163.716 49.8161 163.718 49.8058 163.718H48.4378C48.4874 163.897 48.5909 164.056 48.7343 164.174C48.8777 164.291 49.0539 164.362 49.2388 164.375C49.3429 164.382 49.4464 164.355 49.5339 164.298C49.6214 164.241 49.6883 164.158 49.7248 164.06C49.7397 164.047 49.7589 164.04 49.7788 164.04C49.7987 164.04 49.818 164.047 49.8328 164.06C49.8543 164.07 49.8716 164.087 49.8815 164.109C49.8914 164.13 49.8933 164.154 49.8868 164.177C49.8363 164.297 49.7509 164.399 49.6418 164.469C49.5326 164.54 49.4048 164.576 49.2748 164.573C49.0272 164.564 48.7897 164.472 48.6005 164.313C48.4112 164.153 48.281 163.934 48.2308 163.691ZM48.3838 163.556H49.6798C49.6174 163.403 49.5138 163.269 49.3804 163.171C49.247 163.072 49.089 163.013 48.9238 162.998C48.8506 162.995 48.7777 163.008 48.7098 163.036C48.6418 163.063 48.5804 163.104 48.5294 163.157C48.4785 163.209 48.4392 163.272 48.4141 163.341C48.3891 163.41 48.3787 163.483 48.3838 163.556Z" fill="#A6A6A6"/>
<path d="M51.7678 162.917L52.0918 164.465C52.0945 164.475 52.0949 164.486 52.0931 164.496C52.0912 164.507 52.0872 164.516 52.0812 164.525C52.0752 164.533 52.0674 164.541 52.0584 164.546C52.0493 164.551 52.0393 164.554 52.0288 164.555C52.0051 164.552 51.9829 164.542 51.9652 164.526C51.9475 164.51 51.9352 164.489 51.9298 164.465L51.8758 164.213C51.8201 164.317 51.737 164.404 51.6355 164.464C51.5339 164.525 51.4179 164.556 51.2998 164.555C51.0587 164.535 50.831 164.436 50.6519 164.273C50.4729 164.111 50.3526 163.893 50.3098 163.655C50.2768 163.557 50.2677 163.453 50.2833 163.35C50.2989 163.248 50.3388 163.151 50.3996 163.067C50.4604 162.984 50.5403 162.916 50.6328 162.869C50.7252 162.823 50.8274 162.799 50.9308 162.8C51.0669 162.805 51.2007 162.837 51.3243 162.894C51.4479 162.952 51.5589 163.033 51.6508 163.133L51.5968 162.881C51.5968 162.827 51.5968 162.8 51.6598 162.8C51.6752 162.799 51.6908 162.801 51.7053 162.806C51.7198 162.811 51.7328 162.82 51.7433 162.832C51.7539 162.843 51.7615 162.857 51.7658 162.871C51.77 162.886 51.7707 162.902 51.7678 162.917ZM51.7678 163.691C51.7252 163.507 51.6258 163.341 51.4837 163.217C51.3415 163.093 51.1639 163.016 50.9758 162.998C50.8931 163 50.812 163.021 50.7388 163.059C50.6656 163.098 50.6025 163.153 50.5544 163.221C50.5063 163.288 50.4746 163.365 50.4619 163.447C50.4491 163.529 50.4556 163.613 50.4808 163.691C50.5234 163.875 50.6229 164.041 50.765 164.166C50.9071 164.29 51.0848 164.366 51.2728 164.384C51.3548 164.381 51.4349 164.359 51.5069 164.32C51.579 164.281 51.6409 164.226 51.688 164.159C51.7351 164.091 51.766 164.014 51.7783 163.933C51.7906 163.852 51.7839 163.769 51.7588 163.691H51.7678Z" fill="#A6A6A6"/>
<path d="M52.4968 162.917C52.4934 162.907 52.4929 162.896 52.4951 162.885C52.4974 162.874 52.5024 162.864 52.5097 162.856C52.517 162.848 52.5262 162.842 52.5366 162.838C52.5469 162.835 52.558 162.834 52.5688 162.836C52.5913 162.839 52.6127 162.848 52.6303 162.862C52.6479 162.876 52.6609 162.896 52.6678 162.917L52.7488 163.295C52.7933 163.171 52.8752 163.064 52.9832 162.988C53.0911 162.912 53.2199 162.872 53.3518 162.872C53.3747 162.873 53.3967 162.882 53.4145 162.896C53.4323 162.911 53.445 162.931 53.4508 162.953C53.4508 163.007 53.4508 163.043 53.3878 163.043C53.2953 163.043 53.2047 163.069 53.1266 163.119C53.0485 163.168 52.9861 163.239 52.9468 163.322C52.8864 163.447 52.8469 163.581 52.8298 163.718L52.9918 164.474C52.9918 164.528 52.9918 164.564 52.9288 164.564C52.9038 164.562 52.8803 164.552 52.861 164.536C52.8418 164.52 52.8278 164.498 52.8208 164.474L52.4968 162.917Z" fill="#A6A6A6"/>
<path d="M53.9908 163.691C53.9615 163.587 53.9579 163.477 53.9803 163.37C54.0026 163.264 54.0502 163.165 54.1191 163.081C54.188 162.997 54.2762 162.931 54.376 162.888C54.4759 162.846 54.5846 162.828 54.6928 162.836C54.9026 162.838 55.1067 162.904 55.2778 163.025C55.2903 163.042 55.297 163.063 55.297 163.084C55.297 163.105 55.2903 163.125 55.2778 163.142C55.2615 163.156 55.2408 163.164 55.2193 163.164C55.1979 163.164 55.1771 163.156 55.1608 163.142C55.0212 163.044 54.8547 162.99 54.6838 162.989C54.5964 162.983 54.5087 162.998 54.4283 163.033C54.3478 163.068 54.2769 163.121 54.2213 163.189C54.1658 163.257 54.1274 163.337 54.1092 163.423C54.091 163.509 54.0936 163.598 54.1168 163.682C54.1643 163.884 54.2798 164.062 54.4437 164.189C54.6076 164.315 54.81 164.381 55.0168 164.375C55.1692 164.378 55.3171 164.324 55.4308 164.222C55.4471 164.208 55.4679 164.201 55.4893 164.201C55.5108 164.201 55.5315 164.208 55.5478 164.222C55.5478 164.222 55.5478 164.312 55.5478 164.339C55.4106 164.465 55.2299 164.533 55.0438 164.528C54.8016 164.521 54.5682 164.435 54.3785 164.284C54.1887 164.134 54.0528 163.926 53.9908 163.691Z" fill="#A6A6A6"/>
<path d="M57.3388 163.511C57.3009 163.366 57.2157 163.238 57.0967 163.147C56.9777 163.055 56.8318 163.006 56.6818 163.007C56.6165 162.999 56.55 163.006 56.4884 163.03C56.4268 163.053 56.3721 163.092 56.3292 163.142C56.2863 163.192 56.2565 163.252 56.2427 163.317C56.2288 163.381 56.2313 163.448 56.2498 163.511L56.4478 164.465C56.4334 164.471 56.4173 164.471 56.4028 164.465H56.3308L56.1328 163.511L55.8538 162.206C55.851 162.197 55.8504 162.186 55.8523 162.177C55.8541 162.167 55.8583 162.157 55.8645 162.149C55.8706 162.142 55.8786 162.135 55.8877 162.131C55.8968 162.127 55.9068 162.125 55.9168 162.125C55.9414 162.124 55.9654 162.132 55.9851 162.147C56.0047 162.161 56.0187 162.182 56.0248 162.206L56.2228 163.106C56.2747 163.025 56.3469 162.96 56.4322 162.915C56.5175 162.871 56.6129 162.85 56.7088 162.854C56.9132 162.848 57.1137 162.911 57.2773 163.034C57.4409 163.156 57.5578 163.331 57.6088 163.529L57.8068 164.483C57.8095 164.493 57.8099 164.504 57.8081 164.514C57.8062 164.524 57.8022 164.534 57.7962 164.543C57.7902 164.551 57.7824 164.559 57.7734 164.564C57.7643 164.569 57.7542 164.572 57.7438 164.573C57.7185 164.572 57.6943 164.562 57.6748 164.546C57.6553 164.53 57.6417 164.508 57.6358 164.483L57.3388 163.511Z" fill="#A6A6A6"/>
<path d="M59.2378 163.691C59.2085 163.587 59.2049 163.477 59.2272 163.37C59.2495 163.264 59.2972 163.165 59.3661 163.081C59.435 162.997 59.5231 162.931 59.623 162.888C59.7228 162.846 59.8315 162.828 59.9398 162.836C60.1495 162.838 60.3537 162.904 60.5248 163.025C60.5372 163.042 60.5439 163.063 60.5439 163.084C60.5439 163.105 60.5372 163.125 60.5248 163.142C60.5085 163.156 60.4877 163.164 60.4663 163.164C60.4448 163.164 60.4241 163.156 60.4078 163.142C60.2681 163.044 60.1017 162.99 59.9308 162.989C59.8433 162.983 59.7557 162.998 59.6752 163.033C59.5948 163.068 59.5238 163.121 59.4683 163.189C59.4128 163.257 59.3743 163.337 59.3561 163.423C59.338 163.509 59.3406 163.598 59.3638 163.682C59.4113 163.884 59.5267 164.062 59.6906 164.189C59.8546 164.315 60.057 164.381 60.2638 164.375C60.4161 164.378 60.5641 164.324 60.6778 164.222C60.6941 164.208 60.7148 164.201 60.7363 164.201C60.7577 164.201 60.7785 164.208 60.7948 164.222C60.7948 164.222 60.7948 164.312 60.7948 164.339C60.6575 164.465 60.4769 164.533 60.2908 164.528C60.0485 164.521 59.8151 164.435 59.6254 164.284C59.4357 164.134 59.2997 163.926 59.2378 163.691Z" fill="#A6A6A6"/>
<path d="M62.5408 163.511C62.5028 163.366 62.4176 163.238 62.2987 163.147C62.1797 163.055 62.0337 163.006 61.8838 163.007C61.8184 162.999 61.7519 163.006 61.6904 163.03C61.6288 163.053 61.574 163.092 61.5311 163.142C61.4882 163.192 61.4585 163.252 61.4446 163.317C61.4308 163.381 61.4332 163.448 61.4518 163.511L61.6498 164.465C61.6353 164.471 61.6193 164.471 61.6048 164.465H61.5328L61.3258 163.511L61.0378 162.179C61.0349 162.17 61.0344 162.159 61.0362 162.15C61.0381 162.14 61.0423 162.13 61.0484 162.122C61.0546 162.115 61.0626 162.108 61.0717 162.104C61.0808 162.1 61.0908 162.098 61.1008 162.098C61.1253 162.097 61.1494 162.105 61.169 162.12C61.1886 162.134 61.2027 162.155 61.2088 162.179L61.3978 163.079C61.4524 162.999 61.5264 162.934 61.6129 162.89C61.6995 162.846 61.7957 162.824 61.8928 162.827C62.0972 162.821 62.2977 162.884 62.4613 163.007C62.6249 163.129 62.7418 163.304 62.7928 163.502L62.9908 164.456C62.9936 164.467 62.9938 164.478 62.9915 164.489C62.9892 164.5 62.9843 164.51 62.9773 164.519C62.9703 164.528 62.9614 164.535 62.9512 164.54C62.9411 164.544 62.93 164.547 62.9188 164.546C62.8951 164.543 62.8729 164.533 62.8552 164.517C62.8375 164.501 62.8251 164.48 62.8198 164.456L62.5408 163.511Z" fill="#A6A6A6"/>
<path d="M64.8808 162.917L65.2048 164.465C65.2075 164.475 65.2079 164.486 65.2061 164.496C65.2043 164.506 65.2002 164.516 65.1942 164.525C65.1882 164.533 65.1804 164.541 65.1714 164.546C65.1623 164.551 65.1523 164.554 65.1418 164.555C65.1181 164.552 65.0959 164.542 65.0782 164.526C65.0605 164.51 65.0482 164.489 65.0428 164.465L64.9888 164.213C64.9331 164.317 64.85 164.404 64.7485 164.464C64.647 164.525 64.5309 164.556 64.4128 164.555C64.1711 164.534 63.9429 164.435 63.7626 164.273C63.5823 164.11 63.4599 163.893 63.4138 163.655C63.3826 163.556 63.3752 163.452 63.3922 163.35C63.4091 163.247 63.45 163.151 63.5114 163.067C63.5728 162.984 63.653 162.916 63.7456 162.87C63.8381 162.824 63.9403 162.8 64.0438 162.8C64.18 162.805 64.3137 162.837 64.4373 162.894C64.561 162.951 64.6719 163.033 64.7638 163.133L64.7099 162.881C64.7099 162.827 64.7099 162.8 64.7729 162.8C64.8023 162.802 64.8298 162.816 64.8498 162.837C64.8699 162.859 64.8809 162.888 64.8808 162.917ZM64.8808 163.691C64.8382 163.507 64.7388 163.341 64.5967 163.217C64.4545 163.092 64.2769 163.016 64.0888 162.998C64.0061 163 63.925 163.021 63.8518 163.059C63.7786 163.098 63.7155 163.153 63.6674 163.22C63.6193 163.288 63.5876 163.365 63.5749 163.447C63.5621 163.529 63.5686 163.612 63.5938 163.691C63.6364 163.875 63.7359 164.041 63.878 164.166C64.0201 164.29 64.1978 164.366 64.3859 164.384C64.4678 164.381 64.5479 164.359 64.6199 164.32C64.692 164.281 64.7539 164.226 64.801 164.158C64.8481 164.091 64.879 164.014 64.8913 163.933C64.9036 163.852 64.8969 163.769 64.8719 163.691H64.8808Z" fill="#A6A6A6"/>
<path d="M66.2037 162.917C66.2066 162.927 66.2072 162.937 66.2053 162.947C66.2035 162.957 66.1993 162.966 66.1931 162.974C66.187 162.982 66.179 162.988 66.1699 162.992C66.1608 162.997 66.1508 162.999 66.1407 162.998H65.9247L66.1857 164.249C66.1937 164.284 66.213 164.316 66.2407 164.338C66.2684 164.361 66.3029 164.374 66.3387 164.375C66.3633 164.379 66.3863 164.389 66.4054 164.405C66.4244 164.421 66.4388 164.442 66.4467 164.465C66.4496 164.476 66.4498 164.487 66.4474 164.498C66.4451 164.509 66.4403 164.519 66.4333 164.528C66.4263 164.537 66.4173 164.544 66.4072 164.549C66.397 164.553 66.3859 164.556 66.3747 164.555C66.2884 164.554 66.2051 164.523 66.1394 164.467C66.0736 164.411 66.0295 164.334 66.0147 164.249L65.7448 162.998H65.5377C65.4567 162.998 65.4477 162.998 65.4387 162.917C65.4297 162.836 65.4387 162.836 65.5017 162.836H65.7177L65.5828 162.197C65.5801 162.187 65.5797 162.176 65.5815 162.166C65.5833 162.156 65.5874 162.146 65.5934 162.138C65.5994 162.129 65.6072 162.122 65.6162 162.117C65.6253 162.111 65.6353 162.108 65.6457 162.107C65.6457 162.107 65.7537 162.152 65.7537 162.197L65.8977 162.836H66.1137C66.1351 162.839 66.1551 162.848 66.1712 162.863C66.1872 162.877 66.1986 162.896 66.2037 162.917Z" fill="#A6A6A6"/>
<path d="M93.3748 168.569H31.3738V168.794H93.3748V168.569Z" fill="#A6A6A6"/>
<path d="M91.1338 158.003H29.1328V158.228H91.1338V158.003Z" fill="#A6A6A6"/>
<path d="M56.6098 273.932H35.1088V277.289H56.6098V273.932Z" fill="#5EEAD4"/>
<path opacity="0.1" d="M56.6098 273.932H35.1088V276.146H56.6098V273.932Z" fill="black"/>
<path d="M9.58478 264.914C11.0856 267.194 13.3268 268.887 15.9303 269.706C18.5339 270.526 21.3405 270.423 23.8768 269.414C24.9451 268.994 25.965 268.46 26.9188 267.821L24.2188 263.771C23.712 264.122 23.1725 264.424 22.6078 264.671C17.4868 266.993 14.2468 262.961 13.6078 262.034C10.6558 257.894 9.60278 248.435 12.5908 244.799C12.7888 244.529 13.6528 244.097 17.0908 244.799C17.7298 244.943 18.4498 245.105 19.2688 245.33C19.9066 245.549 20.5683 245.691 21.2398 245.753L21.3208 243.323L21.5638 240.893C21.3388 240.893 20.9878 240.758 20.5378 240.632C18.9352 240.164 17.2981 239.824 15.6418 239.615C13.0948 239.354 10.4308 239.615 8.79278 241.667C3.93278 247.697 5.89478 259.721 9.58478 264.914Z" fill="#5EEAD4"/>
<path opacity="0.1" d="M24.1828 263.816C23.676 264.167 23.1365 264.469 22.5718 264.716L23.8768 269.45C24.9451 269.03 25.965 268.496 26.9188 267.857L24.1828 263.816Z" fill="black"/>
<path opacity="0.1" d="M15.6328 239.705L17.0818 244.889C17.7208 245.033 18.4408 245.195 19.2598 245.42C19.8976 245.639 20.5593 245.781 21.2308 245.843L21.3118 243.413L21.5548 240.983C21.3298 240.983 20.9788 240.848 20.5288 240.722C18.9263 240.254 17.2891 239.914 15.6328 239.705Z" fill="black"/>
<path d="M74.4568 233.36C74.4568 233.36 71.8828 255.275 67.4278 264.509C62.9728 273.743 56.7538 274.751 52.8838 274.751H38.8348C34.9648 274.751 28.7458 273.725 24.2908 264.509C19.8358 255.293 17.2618 233.36 17.2618 233.36H74.4568Z" fill="#5EEAD4"/>
<path d="M191.241 179.918H316.026V127.763H191.241V179.918Z" fill="#A1A1AA"/>
<path d="M316.026 143.144V127.763H332.037L316.026 143.144Z" fill="#A1A1AA"/>
<path d="M306.504 136.781H200.754V137.771H306.504V136.781Z" fill="white"/>
<path d="M275.976 142.127H200.754V143.117H275.976V142.127Z" fill="white"/>
<path d="M294.417 152.837H200.754V153.827H294.417V152.837Z" fill="white"/>
<path d="M306.504 158.183H200.754V159.173H306.504V158.183Z" fill="white"/>
<path d="M306.504 163.538H200.754V164.528H306.504V163.538Z" fill="white"/>
<path d="M265.77 168.893H200.754V169.883H265.77V168.893Z" fill="white"/>
<path d="M298.962 31.6252H174.177V75.6352H298.962V31.6252Z" fill="#2DD4BF"/>
<path d="M174.195 47.0152V31.6252H158.175L174.195 47.0152Z" fill="#2DD4BF"/>
<path d="M265.05 39.7522H183.879V40.7422H265.05V39.7522Z" fill="white"/>
<path d="M289.629 45.1072H183.879V46.0972H289.629V45.1072Z" fill="white"/>
<path d="M289.629 50.4622H183.879V51.4522H289.629V50.4622Z" fill="white"/>
<path d="M277.983 55.8083H183.879V56.7984H277.983V55.8083Z" fill="white"/>
<path d="M289.629 61.1633H183.879V62.1533H289.629V61.1633Z" fill="white"/>
<path d="M251.226 66.5183H183.879V67.5083H251.226V66.5183Z" fill="white"/>
<path d="M298.962 82.7542H174.177V115.388H298.962V82.7542Z" fill="#2DD4BF"/>
<path d="M174.195 98.1351V82.7542H158.175L174.195 98.1351Z" fill="#2DD4BF"/>
<path d="M289.368 90.8813H183.879V91.8714H289.368V90.8813Z" fill="white"/>
<path d="M263.394 96.2363H183.879V97.2263H263.394V96.2363Z" fill="white"/>
<path d="M275.535 101.582H183.879V102.572H275.535V101.582Z" fill="white"/>
<path d="M245.133 106.937H183.879V107.927H245.133V106.937Z" fill="white"/>
<path d="M298.962 190.061H174.177V220.166H298.962V190.061Z" fill="#2DD4BF"/>
<path d="M174.177 205.442V190.061H158.157L174.177 205.442Z" fill="#2DD4BF"/>
<path d="M281.457 198.188H183.879V199.178H281.457V198.188Z" fill="white"/>
<path d="M256.185 203.534H183.879V204.524H256.185V203.534Z" fill="white"/>
<path d="M274.671 208.889H183.879V209.879H274.671V208.889Z" fill="white"/>
<path d="M365.841 157.841C381.757 157.841 394.659 144.939 394.659 129.023C394.659 113.108 381.757 100.205 365.841 100.205C349.925 100.205 337.023 113.108 337.023 129.023C337.023 144.939 349.925 157.841 365.841 157.841Z" fill="#A6A6A6"/>
<mask id="mask0_253_506" style="mask-type:luminance" maskUnits="userSpaceOnUse" x="337" y="89" width="58" height="69">
<path d="M394.668 129.023C394.676 133.226 393.76 137.38 391.986 141.19C390.211 145.001 387.621 148.374 384.399 151.073C382.269 152.865 379.893 154.341 377.343 155.456C377.046 155.591 376.74 155.717 376.443 155.834L375.948 156.023C374.317 156.643 372.629 157.098 370.908 157.382C369.246 157.695 367.559 157.848 365.868 157.841C364.864 157.842 363.86 157.788 362.862 157.679C362.433 157.647 362.007 157.593 361.584 157.517C361.08 157.445 360.576 157.364 360.072 157.247C359.916 157.228 359.763 157.195 359.613 157.148C358.857 156.995 358.101 156.797 357.363 156.572C356.625 156.347 355.779 156.041 355.005 155.726L354.816 155.636C354.667 155.59 354.522 155.529 354.384 155.456C353.431 155.051 352.505 154.585 351.612 154.061C347.525 151.74 344.068 148.454 341.543 144.49C339.018 140.526 337.502 136.004 337.126 131.319C336.751 126.634 337.527 121.928 339.389 117.612C341.25 113.296 344.14 109.502 347.805 106.559C348.102 105.452 348.408 104.39 348.705 103.418C343.728 100.043 345.933 93.6533 346.815 92.3033C347.697 90.9533 350.811 94.2293 350.811 94.2293C350.811 94.2293 351.81 90.2513 352.953 89.9993C354.096 89.7473 354.906 92.3663 354.906 92.3663C354.906 92.3663 363.429 90.8363 370.791 92.1413C378.153 93.4463 380.691 101.429 380.691 101.429C380.691 101.429 384.516 102.842 385.371 105.794C385.507 106.456 385.507 107.139 385.371 107.801C388.306 110.502 390.647 113.783 392.248 117.436C393.848 121.089 394.672 125.035 394.668 129.023Z" fill="white"/>
</mask>
<g mask="url(#mask0_253_506)">
<path d="M357.597 148.121L360.144 159.677L378.792 145.898L385.479 152.054C385.479 152.054 370.503 169.523 358.353 169.523C351.981 169.523 350.73 154.898 350.73 154.898L357.597 148.121Z" fill="#2DD4BF"/>
<path d="M360.513 161.261C365.202 162.719 373.887 156.005 377.523 150.326C377.766 149.939 377.442 145.628 377.298 140.381C377.217 137.195 377.208 133.64 377.433 130.4C377.487 129.734 356.733 133.928 356.733 133.928C357.615 138.067 357.984 142.299 357.831 146.528C357.797 146.976 357.719 147.419 357.597 147.851C357.597 147.905 357.597 147.986 357.597 148.067C357.003 150.542 355.986 159.848 360.513 161.261Z" fill="#DD6A57"/>
<path d="M376.245 130.382C374.832 136.034 370.377 148.886 359.676 148.382C358.977 148.352 358.282 148.265 357.597 148.121C357.597 148.04 357.597 147.959 357.597 147.905C357.724 147.474 357.802 147.03 357.831 146.582V146.528C357.958 144.428 357.91 142.32 357.687 140.228C357.475 138.146 357.156 136.076 356.733 134.027L356.868 133.937C358.497 133.586 372.087 130.85 376.245 130.382Z" fill="#263238"/>
<path d="M379.197 104.597C381.699 111.725 378.774 132.731 373.842 137.6C366.687 144.656 354.528 145.817 348.426 137.114C342.504 128.681 346.797 101.366 352.35 96.8932C360.54 90.3142 375.489 94.0762 379.197 104.597Z" fill="#DD6A57"/>
<path d="M377.343 122.228C372.42 121.481 372.789 112.4 372.789 112.4C372.789 112.4 364.536 109.754 364.248 103.211C364.248 103.211 355.464 107.144 349.497 103.922C343.53 100.7 345.897 93.7611 346.797 92.3391C347.697 90.9171 350.793 94.2651 350.793 94.2651C350.793 94.2651 351.792 90.2872 352.935 90.0352C354.078 89.7832 354.888 92.4022 354.888 92.4022C354.888 92.4022 363.42 90.8812 370.764 92.1772C378.108 93.4732 380.664 101.465 380.664 101.465C380.664 101.465 384.48 102.887 385.353 105.839C386.226 108.791 380.475 122.669 377.343 122.228Z" fill="#263238"/>
<path d="M358.938 119.159C358.938 119.105 359.037 119.24 359.028 119.294C358.794 120.707 358.758 122.363 359.982 123.002C359.982 123.002 359.982 123.092 359.982 123.083C358.461 122.651 358.524 120.428 358.938 119.159Z" fill="#263238"/>
<path d="M360.432 117.845C362.736 117.98 362.304 122.57 360.171 122.453C358.038 122.336 358.506 117.728 360.432 117.845Z" fill="#263238"/>
<path d="M350.712 118.628C350.712 118.574 350.595 118.682 350.595 118.745C350.505 120.167 350.163 121.787 348.795 122.138V122.219C350.424 122.129 350.838 119.978 350.712 118.628Z" fill="#263238"/>
<path d="M349.587 116.999C347.31 116.612 346.698 121.184 348.804 121.544C350.91 121.904 351.486 117.332 349.587 116.999Z" fill="#263238"/>
<path d="M362.448 115.928C361.862 115.693 361.288 115.429 360.729 115.136C360.082 114.94 359.519 114.535 359.127 113.984C359.037 113.788 359.014 113.568 359.063 113.357C359.112 113.147 359.229 112.959 359.397 112.823C359.769 112.607 360.191 112.492 360.621 112.492C361.051 112.492 361.473 112.607 361.845 112.823C362.669 113.146 363.345 113.761 363.744 114.551C363.817 114.736 363.836 114.937 363.799 115.132C363.762 115.327 363.67 115.507 363.534 115.652C363.398 115.796 363.223 115.899 363.031 115.948C362.839 115.997 362.637 115.99 362.448 115.928Z" fill="#263238"/>
<path d="M348.03 114.524C348.659 114.458 349.284 114.356 349.902 114.218C350.574 114.207 351.223 113.973 351.747 113.552C351.888 113.389 351.969 113.183 351.979 112.967C351.989 112.752 351.926 112.54 351.801 112.364C351.506 112.051 351.133 111.822 350.72 111.702C350.307 111.582 349.869 111.574 349.452 111.68C348.571 111.769 347.754 112.179 347.157 112.832C347.032 112.99 346.955 113.18 346.935 113.38C346.916 113.58 346.954 113.782 347.047 113.96C347.139 114.139 347.281 114.287 347.455 114.387C347.63 114.487 347.829 114.535 348.03 114.524Z" fill="#263238"/>
<path d="M359.037 132.488C358.668 132.785 358.281 133.208 357.759 133.208C357.232 133.143 356.724 132.971 356.265 132.704C356.265 132.704 356.175 132.704 356.202 132.767C356.377 133.067 356.63 133.313 356.935 133.48C357.239 133.646 357.583 133.727 357.93 133.712C358.228 133.665 358.505 133.53 358.726 133.325C358.947 133.12 359.103 132.854 359.172 132.56C359.199 132.479 359.091 132.443 359.037 132.488Z" fill="#263238"/>
<path d="M357.957 128.168C357.535 128.691 357.01 129.122 356.413 129.431C355.817 129.741 355.163 129.924 354.492 129.968C353.905 130.016 353.315 129.983 352.737 129.869L352.404 129.797L352.098 129.716C352.024 129.691 351.96 129.644 351.915 129.581C351.87 129.518 351.846 129.443 351.846 129.365C351.841 129.317 351.841 129.269 351.846 129.221V129.104C351.927 127.997 352.215 126.341 352.215 126.341C351.792 126.503 349.65 127.241 349.74 126.638C350.532 121.922 351.405 116.684 353.178 112.166C353.189 112.135 353.212 112.109 353.241 112.093C353.27 112.077 353.304 112.072 353.337 112.08C353.369 112.088 353.398 112.108 353.416 112.135C353.435 112.163 353.443 112.196 353.439 112.229C352.863 116.783 351.486 121.229 350.838 125.783C351.598 125.519 352.392 125.365 353.196 125.324C353.349 125.387 352.593 128.519 352.593 129.014V129.068C354.393 129.5 355.86 129.068 357.777 128.042C357.948 127.952 358.038 128.06 357.957 128.168Z" fill="#263238"/>
<path d="M353.457 129.563C354.012 130.388 354.772 131.055 355.662 131.498C356.15 131.728 356.698 131.797 357.228 131.696C358.389 131.462 358.479 130.418 358.326 129.509C358.239 129.027 358.097 128.556 357.903 128.105C356.614 129.053 355.057 129.564 353.457 129.563Z" fill="#263238"/>
<path d="M355.662 131.498C356.15 131.728 356.698 131.797 357.228 131.696C358.389 131.462 358.479 130.418 358.326 129.509C357.724 129.496 357.134 129.685 356.651 130.045C356.169 130.405 355.82 130.917 355.662 131.498Z" fill="#FF99BA"/>
<path d="M375.462 121.778C375.462 121.778 380.025 114.929 383.121 116.54C386.217 118.151 382.896 128.015 379.332 129.437C378.887 129.649 378.403 129.769 377.911 129.79C377.418 129.81 376.926 129.731 376.465 129.557C376.004 129.383 375.582 129.118 375.226 128.777C374.869 128.436 374.585 128.027 374.391 127.574L375.462 121.778Z" fill="#DD6A57"/>
<path d="M382.104 119.42C382.158 119.42 382.167 119.492 382.104 119.519C379.602 120.59 378.333 122.957 377.46 125.405C378.189 124.451 379.197 123.92 380.466 124.784C380.529 124.829 380.466 124.937 380.403 124.919C379.956 124.787 379.48 124.798 379.039 124.95C378.599 125.101 378.217 125.386 377.946 125.765C377.489 126.394 377.105 127.074 376.803 127.79C376.686 128.015 376.281 127.907 376.362 127.646C376.358 127.625 376.358 127.604 376.362 127.583C376.263 124.37 378.657 119.825 382.104 119.42Z" fill="#263238"/>
<path d="M357.831 146.663L360.333 158.615L377.532 143.252L381.816 148.076C381.816 148.076 365.04 172.376 364.932 171.287L359.838 161L352.773 168.272L355.608 150.2L357.831 146.663Z" fill="white"/>
<path d="M355.491 150.371C355.491 150.263 355.698 150.209 355.698 150.371C355.536 154.061 353.187 164.645 353.232 167.381C353.529 167.066 359.775 160.973 359.847 161.081C360.936 162.71 364.653 170.198 364.905 170.882C367.281 167.381 378.315 152.99 381.006 149.336C381.019 149.312 381.041 149.295 381.067 149.287C381.093 149.279 381.122 149.283 381.145 149.296C381.169 149.309 381.187 149.331 381.195 149.357C381.202 149.383 381.199 149.411 381.186 149.435C379.188 153.503 365.247 172.403 365.067 172.349C363.132 168.793 361.386 165.137 359.838 161.396C358.785 162.719 352.485 169.586 352.458 169.145C352.233 166.157 354.483 154.07 355.491 150.371Z" fill="#263238"/>
</g>
<path d="M145.496 206.987C156.947 195.536 156.947 176.97 145.496 165.519C134.045 154.068 115.48 154.068 104.029 165.519C92.5778 176.97 92.5778 195.536 104.029 206.987C115.48 218.438 134.045 218.438 145.496 206.987Z" fill="#A6A6A6"/>
<mask id="mask1_253_506" style="mask-type:luminance" maskUnits="userSpaceOnUse" x="95" y="149" width="60" height="67">
<path d="M154.098 186.245C154.106 191.383 152.764 196.432 150.208 200.889C147.651 205.345 143.968 209.051 139.529 211.637C135.089 214.223 130.049 215.597 124.911 215.622C119.774 215.647 114.72 214.323 110.255 211.781C105.79 209.239 102.071 205.569 99.471 201.138C96.8704 196.707 95.4793 191.671 95.4369 186.534C95.3945 181.396 96.7022 176.338 99.2292 171.865C101.756 167.391 105.414 163.661 109.836 161.045C111.195 156.671 114.732 152.504 122.598 150.533C138.006 146.681 141.426 157.796 141.75 159.002C141.75 159.002 141.75 159.002 141.75 159.047C141.753 159.062 141.753 159.077 141.75 159.092C142.287 160.515 142.747 161.966 143.127 163.439C146.547 166.176 149.309 169.646 151.208 173.593C153.107 177.541 154.095 181.865 154.098 186.245Z" fill="white"/>
</mask>
<g mask="url(#mask1_253_506)">
<path d="M133.164 205.685L130.563 217.385L112.833 205.217L108.432 211.715C108.432 211.715 120.033 227.411 132.39 227.411C138.879 227.411 140.148 212.534 140.148 212.534L133.164 205.685Z" fill="#2DD4BF"/>
<path d="M130.194 219.05C125.424 220.535 116.586 213.704 112.887 207.926C112.635 207.53 112.968 203.147 113.121 197.801C113.193 194.561 113.211 190.952 112.977 187.658C112.932 186.974 115.317 188.063 115.317 188.063L119.655 188.792L134.001 191.249C134.001 191.249 132.453 198.296 132.885 204.038C132.918 204.495 132.996 204.947 133.119 205.388C133.119 205.451 133.119 205.523 133.119 205.604C133.758 208.151 134.838 217.628 130.194 219.05Z" fill="#EB9481"/>
<path d="M133.119 205.46C133.119 205.523 133.119 205.595 133.119 205.685C132.422 205.829 131.715 205.916 131.004 205.946C117.054 206.603 114.093 189.017 114.093 189.017L119.61 188.873L133.956 191.321C133.956 191.321 132.408 198.377 132.84 204.119C132.887 204.575 132.98 205.024 133.119 205.46Z" fill="#263238"/>
<path d="M111.186 161.405C108.639 168.65 111.609 190.025 116.631 194.984C123.912 202.184 136.278 203.345 142.497 194.489C148.518 185.903 144.144 158.111 138.492 153.566C130.167 146.87 114.957 150.695 111.186 161.405Z" fill="#EB9481"/>
<path d="M131.76 176.228C131.76 176.174 131.661 176.309 131.67 176.363C131.904 177.803 131.94 179.486 130.698 180.134C130.698 180.134 130.698 180.233 130.698 180.215C132.282 179.774 132.219 177.533 131.76 176.228Z" fill="#263238"/>
<path d="M130.275 174.887C127.935 175.022 128.376 179.693 130.545 179.567C132.714 179.441 132.237 174.77 130.275 174.887Z" fill="#263238"/>
<path d="M140.157 175.661C140.157 175.598 140.283 175.715 140.283 175.778C140.373 177.227 140.724 178.874 142.083 179.234V179.315C140.454 179.243 140.013 177.047 140.157 175.661Z" fill="#263238"/>
<path d="M141.309 174.023C143.622 173.627 144.243 178.28 142.101 178.649C139.959 179.018 139.338 174.356 141.309 174.023Z" fill="#263238"/>
<path d="M128.223 172.925C128.844 172.7 129.384 172.394 129.978 172.115C130.632 171.914 131.202 171.503 131.598 170.945C131.689 170.746 131.713 170.523 131.664 170.31C131.615 170.096 131.497 169.905 131.328 169.766C130.95 169.545 130.52 169.428 130.081 169.428C129.643 169.428 129.213 169.545 128.835 169.766C127.996 170.09 127.309 170.716 126.909 171.521C126.834 171.708 126.814 171.913 126.851 172.112C126.889 172.31 126.982 172.493 127.12 172.641C127.258 172.788 127.435 172.893 127.63 172.943C127.825 172.994 128.031 172.987 128.223 172.925Z" fill="#263238"/>
<path d="M142.938 171.503C142.3 171.433 141.666 171.331 141.039 171.197C140.354 171.182 139.693 170.941 139.158 170.513C139.015 170.346 138.932 170.136 138.92 169.916C138.909 169.697 138.97 169.479 139.095 169.298C139.398 168.98 139.781 168.749 140.203 168.629C140.626 168.509 141.073 168.504 141.498 168.614C142.391 168.694 143.221 169.108 143.82 169.775C143.949 169.935 144.029 170.128 144.05 170.332C144.071 170.537 144.033 170.743 143.94 170.925C143.847 171.108 143.702 171.26 143.524 171.363C143.347 171.465 143.143 171.514 142.938 171.503Z" fill="#263238"/>
<path d="M131.697 189.773C132.075 190.079 132.462 190.511 132.993 190.511C133.53 190.449 134.048 190.274 134.514 189.998C134.518 189.993 134.523 189.99 134.529 189.987C134.534 189.984 134.54 189.982 134.547 189.982C134.553 189.982 134.559 189.982 134.565 189.984C134.571 189.986 134.577 189.99 134.581 189.994C134.586 189.998 134.59 190.003 134.593 190.008C134.596 190.014 134.597 190.02 134.598 190.027C134.598 190.033 134.597 190.039 134.595 190.045C134.593 190.051 134.59 190.056 134.586 190.061C134.404 190.372 134.139 190.627 133.822 190.797C133.504 190.967 133.146 191.045 132.786 191.024C132.484 190.976 132.203 190.838 131.978 190.63C131.754 190.422 131.597 190.152 131.526 189.854C131.535 189.773 131.643 189.728 131.697 189.773Z" fill="#263238"/>
<path d="M132.579 185.921C134.055 187.118 138.987 187.118 139.005 186.956L138.6 183.491C139.032 183.662 141.192 184.391 141.102 183.815C140.364 179.027 139.536 173.699 137.781 169.082C137.77 169.051 137.747 169.025 137.718 169.009C137.689 168.993 137.655 168.989 137.622 168.996C137.59 169.004 137.561 169.024 137.542 169.051C137.524 169.079 137.516 169.112 137.52 169.145C138.051 173.78 139.392 178.289 140.004 182.933C139.232 182.66 138.427 182.497 137.61 182.447C137.457 182.51 138.186 185.696 138.186 186.2C136.388 186.28 134.59 186.04 132.876 185.489C132.309 185.309 132.183 185.606 132.579 185.921Z" fill="#263238"/>
<path d="M113.787 178.667C115.587 178.208 117.333 172.223 117.387 166.409C117.387 162.674 118.917 157.958 123.084 156.554C125.856 155.654 130.68 157.904 133.434 157.229C136.188 156.554 136.701 154.979 138.33 155.024C139.959 155.069 141.777 159.074 141.777 159.074C141.777 159.074 138.87 146.42 122.598 150.488C105.498 154.781 108.9 169.46 110.547 174.167C111.825 177.803 113.787 178.667 113.787 178.667Z" fill="#263238"/>
<path d="M115.038 178.928C115.038 178.928 110.385 171.962 107.235 173.6C104.085 175.238 107.469 185.3 111.096 186.713C111.547 186.931 112.038 187.055 112.539 187.078C113.04 187.101 113.54 187.022 114.009 186.847C114.479 186.671 114.907 186.402 115.27 186.055C115.632 185.709 115.921 185.293 116.118 184.832L115.038 178.928Z" fill="#EB9481"/>
<path d="M108.234 176.48C108.224 176.484 108.216 176.491 108.21 176.5C108.204 176.509 108.201 176.519 108.201 176.53C108.201 176.54 108.204 176.55 108.21 176.559C108.216 176.568 108.224 176.575 108.234 176.579C110.781 177.677 112.077 180.089 112.968 182.573C112.221 181.61 111.168 181.061 109.908 181.943C109.836 181.943 109.908 182.096 109.971 182.078C110.425 181.947 110.909 181.958 111.357 182.111C111.804 182.264 112.194 182.551 112.473 182.933C112.927 183.58 113.316 184.27 113.634 184.994C113.742 185.228 114.165 185.12 114.084 184.85C114.079 184.829 114.079 184.808 114.084 184.787C114.138 181.52 111.735 176.894 108.234 176.48Z" fill="#263238"/>
</g>
<path d="M120.231 68.2642C137.076 68.2642 150.732 54.6084 150.732 37.7632C150.732 20.918 137.076 7.26221 120.231 7.26221C103.386 7.26221 89.7297 20.918 89.7297 37.7632C89.7297 54.6084 103.386 68.2642 120.231 68.2642Z" fill="#A6A6A6"/>
<path d="M152.163 61.0283H149.562C149.292 57.7073 147.186 52.6313 147.762 55.1873C148.097 57.115 148.209 59.075 148.095 61.0283H104.031C103.518 56.0333 105.75 47.8163 105.75 47.8163C103.203 51.9473 102.222 57.8063 101.853 61.0283H97.6948C97.2628 58.0403 98.3248 52.9283 98.3248 52.9283C97.1818 54.9353 96.5248 58.7063 96.1918 61.0283H91.4578C91.2778 56.0333 92.9788 49.4633 96.9658 43.5053C100.161 38.7263 96.2008 35.9453 96.2818 26.6393C96.3628 14.2553 104.859 9.53931 106.272 8.20731C125.487 -9.59469 142.929 6.92932 144.801 18.6923C146.601 30.1943 143.298 31.7153 148.644 42.1643C152.685 49.9673 152.163 61.0283 152.163 61.0283Z" fill="#263238"/>
<path d="M100.368 67.4453C100.368 67.4453 100.458 67.4993 100.494 67.5353C106.884 71.8913 119.502 79.5503 126.252 77.1203C131.445 75.2483 134.487 69.9203 134.838 68.2013C132.138 65.7713 128.223 63.5573 126.495 62.4053C116.532 55.7813 107.559 59.7503 100.368 67.4453Z" fill="#455A64"/>
<path d="M109.989 63.6741C110.439 65.1501 118.242 74.3931 125.064 73.6191C127.287 73.3581 126.423 61.1631 126.423 61.1631L126.567 60.2631L128.547 47.4561L113.094 38.9331L110.862 37.8171C110.862 37.8171 110.556 41.3541 110.214 45.7641L110.16 46.3941C110.16 46.6461 110.106 46.8801 110.097 47.1141C110.034 47.7711 109.98 48.4461 109.935 49.1121C109.935 49.6251 109.863 50.1201 109.845 50.6601C109.827 51.2001 109.791 51.7221 109.764 52.2621C109.579 56.0668 109.655 59.8797 109.989 63.6741Z" fill="#AD6359"/>
<path d="M110.214 45.7283C111.725 49.1863 113.97 52.2743 116.794 54.778C119.618 57.2816 122.953 59.141 126.567 60.2273L128.547 47.4203L113.094 38.8973L110.862 37.7812C110.862 37.7812 110.538 41.3453 110.214 45.7283Z" fill="#263238"/>
<path d="M144.378 26.1261C147.978 48.6261 134.901 53.2611 130.05 54.0261C125.658 54.7191 110.592 56.5281 104.724 34.5501C98.8558 12.5721 108.171 3.82414 118.143 1.70014C128.115 -0.423859 140.814 3.67114 144.378 26.1261Z" fill="#AD6359"/>
<path d="M106.56 36.1342C112.185 35.4592 112.392 17.9812 112.392 15.8302C112.455 17.1892 112.851 24.3442 113.427 24.5872C114.028 24.5198 114.615 24.3557 115.164 24.1012C115.101 23.2444 115.101 22.384 115.164 21.5272C115.164 21.1312 115.389 22.3732 115.731 23.9032C116.046 23.7862 116.379 23.6512 116.748 23.5252C116.533 21.7024 116.563 19.859 116.838 18.0442C116.946 17.3602 117.378 20.3842 118.242 22.9762C122.941 21.1726 127.825 19.89 132.804 19.1512C134.199 18.9802 135.423 18.8992 136.503 18.8632C136.332 16.7482 135.9 14.5252 136.098 14.9932C136.624 16.232 137.028 17.519 137.304 18.8362C137.889 18.8362 138.429 18.8362 138.915 18.8362C138.816 15.8482 137.007 11.2132 137.538 11.8972C139.138 14.0203 140.323 16.4264 141.03 18.9892C143.091 19.2142 143.73 19.5652 143.73 19.0342C143.73 18.0802 141.93 9.8452 134.901 4.2652C127.296 -1.7828 113.085 -2.28679 106.002 8.60321C106.002 8.60321 99.8278 13.4092 99.3688 20.3662C98.9098 27.3232 103.338 36.5122 106.56 36.1342Z" fill="#263238"/>
<path d="M135 39.2122C134.52 40.1883 133.798 41.025 132.903 41.6422C132.401 41.9607 131.814 42.1178 131.22 42.0922C129.924 42.0112 129.663 40.8952 129.699 39.8782C129.723 39.3424 129.807 38.811 129.951 38.2942C131.492 39.1332 133.262 39.455 135 39.2122Z" fill="white"/>
<path d="M139.689 23.3721C139.158 23.3721 138.663 23.2461 138.132 23.1831C137.576 23.1916 137.032 23.0177 136.584 22.6881C136.461 22.5565 136.385 22.3878 136.369 22.2085C136.353 22.0292 136.397 21.8496 136.494 21.6981C136.729 21.4301 137.032 21.2296 137.37 21.1172C137.709 21.0049 138.071 20.9849 138.42 21.0591C139.155 21.1056 139.846 21.4268 140.355 21.9591C140.446 22.089 140.501 22.2406 140.514 22.3986C140.527 22.5565 140.499 22.7152 140.431 22.8586C140.364 23.002 140.26 23.1251 140.129 23.2152C139.999 23.3054 139.847 23.3595 139.689 23.3721Z" fill="#263238"/>
<path d="M125.109 25.2263C125.631 25.1183 126.099 24.9293 126.603 24.7763C127.156 24.6847 127.664 24.4163 128.052 24.0113C128.147 23.8606 128.189 23.6829 128.173 23.5055C128.157 23.3282 128.082 23.1612 127.962 23.0303C127.684 22.807 127.351 22.6617 126.998 22.6095C126.646 22.5573 126.285 22.6 125.955 22.7333C125.24 22.9029 124.614 23.3329 124.2 23.9393C124.13 24.0841 124.099 24.245 124.113 24.4053C124.126 24.5657 124.182 24.7196 124.274 24.851C124.367 24.9824 124.494 25.0865 124.64 25.1525C124.787 25.2185 124.949 25.244 125.109 25.2263Z" fill="#263238"/>
<path d="M128.628 30.6801C128.628 30.6261 128.511 30.7701 128.52 30.8331C128.745 32.3631 128.736 34.1541 127.404 34.8201C127.359 34.8201 127.404 34.9191 127.404 34.9101C129.096 34.4781 129.078 32.0931 128.628 30.6801Z" fill="#263238"/>
<path d="M127.071 29.2222C124.578 29.3122 124.938 34.2982 127.251 34.2172C129.564 34.1362 129.168 29.1502 127.071 29.2222Z" fill="#263238"/>
<path d="M126.108 29.5283C125.694 29.8343 125.307 30.3653 124.785 30.4283C124.263 30.4913 123.687 30.0413 123.255 29.5733C123.255 29.5193 123.165 29.5733 123.174 29.6363C123.228 30.5903 123.66 31.5443 124.695 31.6163C125.73 31.6883 126.252 30.7793 126.423 29.8163C126.45 29.6813 126.279 29.4383 126.108 29.5283Z" fill="#263238"/>
<path d="M137.205 29.2763C137.205 29.2223 137.331 29.3483 137.331 29.4113C137.331 30.9593 137.7 32.7233 139.131 33.1463C139.131 33.1463 139.131 33.2363 139.131 33.2273C137.403 33.1283 136.998 30.7523 137.205 29.2763Z" fill="#263238"/>
<path d="M138.438 27.5751C140.913 27.2241 141.435 32.2011 139.14 32.5251C136.845 32.8491 136.404 27.8721 138.438 27.5751Z" fill="#263238"/>
<path d="M139.545 27.8003C139.968 28.0163 140.445 28.4572 140.877 28.4392C141.309 28.4212 141.777 27.8362 142.065 27.2872C142.065 27.2332 142.146 27.2873 142.155 27.3323C142.272 28.2773 142.065 29.3033 141.174 29.5823C140.283 29.8613 139.662 29.0782 139.374 28.1602C139.275 27.9892 139.383 27.7283 139.545 27.8003Z" fill="#263238"/>
<path d="M129.195 42.4702C129.573 42.8302 129.951 43.3162 130.518 43.3702C131.094 43.3395 131.658 43.1893 132.174 42.9292C132.184 42.9253 132.196 42.925 132.207 42.9281C132.218 42.9313 132.228 42.9379 132.235 42.9468C132.242 42.9558 132.245 42.9668 132.246 42.9781C132.246 42.9895 132.243 43.0007 132.237 43.0102C132.027 43.3225 131.736 43.5715 131.395 43.7301C131.054 43.8888 130.676 43.951 130.302 43.9102C129.983 43.838 129.694 43.6729 129.469 43.4357C129.245 43.1986 129.096 42.9001 129.042 42.5782C129.015 42.4612 129.132 42.4252 129.195 42.4702Z" fill="#263238"/>
<path d="M135.171 36.3592C135.171 36.3592 135.684 38.6362 135.774 39.7162C135.774 39.8242 135.531 39.8962 135.162 39.9412C135.162 39.9412 135.162 39.9412 135.117 39.9412C134.197 40.1898 133.227 40.1802 132.312 39.9135C131.398 39.6467 130.574 39.1332 129.933 38.4292C129.852 38.3302 129.933 38.2042 130.086 38.2672C131.551 39.1006 133.247 39.4354 134.919 39.2212C134.973 38.9152 133.911 35.3512 134.082 35.3242C134.933 35.3305 135.781 35.4485 136.602 35.6752C135.702 30.8962 133.983 26.3152 133.128 21.5452C133.125 21.5115 133.133 21.4777 133.152 21.4493C133.17 21.4208 133.197 21.3993 133.229 21.388C133.261 21.3766 133.296 21.3762 133.328 21.3868C133.36 21.3973 133.388 21.4182 133.407 21.4462C135.513 26.1352 136.701 31.6072 137.79 36.5122C137.934 37.1332 135.621 36.5032 135.171 36.3592Z" fill="#263238"/>
<path d="M126.036 38.4022C124.767 38.3937 123.527 38.0293 122.455 37.3506C121.384 36.6719 120.524 35.706 119.974 34.563C119.424 33.4199 119.206 32.1454 119.345 30.8846C119.484 29.6238 119.973 28.4271 120.759 27.4309C121.544 26.4346 122.593 25.6786 123.786 25.249C124.979 24.8194 126.27 24.7333 127.509 25.0005C128.749 25.2678 129.889 25.8777 130.8 26.7609C131.71 27.644 132.355 28.765 132.66 29.9962C133.089 31.741 132.81 33.5849 131.882 35.1236C130.954 36.6624 129.453 37.7702 127.71 38.2042C127.162 38.3366 126.6 38.403 126.036 38.4022ZM126.117 25.7572C125.628 25.7524 125.141 25.8099 124.668 25.9282C123.216 26.2865 121.955 27.1847 121.142 28.44C120.33 29.6953 120.026 31.2132 120.293 32.6845C120.561 34.1558 121.379 35.4699 122.581 36.3592C123.783 37.2484 125.279 37.6459 126.764 37.4706C128.25 37.2953 129.612 36.5605 130.574 35.4158C131.537 34.2712 132.026 32.8027 131.944 31.3096C131.861 29.8165 131.212 28.411 130.13 27.3794C129.047 26.3478 127.612 25.7677 126.117 25.7572Z" fill="#2DD4BF"/>
<path d="M141.48 36.6021C138.888 36.6021 136.557 33.9021 136.17 30.4011C135.951 28.7267 136.266 27.0261 137.07 25.5411C137.375 24.8792 137.846 24.3074 138.437 23.881C139.028 23.4547 139.719 23.1883 140.444 23.1077C141.168 23.0271 141.901 23.1351 142.571 23.4211C143.242 23.7071 143.827 24.1614 144.27 24.7401C145.377 26.0179 146.057 27.6104 146.214 29.2941C146.619 33.0021 144.711 36.2781 141.948 36.5841C141.793 36.6046 141.636 36.6107 141.48 36.6021ZM140.877 24.0021C140.763 23.9929 140.649 23.9929 140.535 24.0021C139.959 24.0878 139.412 24.3119 138.942 24.6552C138.472 24.9985 138.092 25.4507 137.835 25.9731C137.129 27.2928 136.852 28.7997 137.043 30.2841C137.403 33.5061 139.536 35.9181 141.804 35.6841C144.072 35.4501 145.629 32.6061 145.278 29.3841C145.136 27.8918 144.535 26.4801 143.559 25.3431C143.229 24.946 142.82 24.6217 142.359 24.3909C141.897 24.16 141.392 24.0276 140.877 24.0021Z" fill="#2DD4BF"/>
<path d="M132.516 30.7972L131.868 30.1762C132.768 29.2042 135.027 27.7912 136.863 29.3662L136.269 30.0502C134.631 28.6282 132.606 30.7162 132.516 30.7972Z" fill="#2DD4BF"/>
<path d="M102.708 35.8282L101.862 35.5042C102.015 35.1172 103.401 31.6432 105.372 31.0942C107.343 30.5452 119.412 30.3742 119.934 30.3652V31.2652C116.442 31.3192 107.037 31.5622 105.606 31.9582C104.175 32.3542 103.077 34.9282 102.708 35.8282Z" fill="#2DD4BF"/>
<path d="M108.567 35.7113C108.567 35.7113 103.113 28.9793 100.026 30.9773C96.9387 32.9753 101.394 42.9743 105.264 44.1083C105.751 44.2874 106.269 44.3663 106.787 44.3403C107.305 44.3143 107.812 44.1839 108.279 43.957C108.745 43.73 109.161 43.4112 109.501 43.0197C109.841 42.6281 110.099 42.1719 110.259 41.6783L108.567 35.7113Z" fill="#AD6359"/>
<path d="M101.376 33.8123C101.366 33.8165 101.358 33.8234 101.352 33.8322C101.346 33.841 101.343 33.8513 101.343 33.8618C101.343 33.8723 101.346 33.8826 101.352 33.8913C101.358 33.9001 101.366 33.9071 101.376 33.9113C104.076 34.8113 105.669 37.1513 106.776 39.6263C105.921 38.7263 104.814 38.2403 103.572 39.2663C103.553 39.277 103.539 39.2949 103.533 39.316C103.527 39.3371 103.53 39.3597 103.54 39.3788C103.551 39.3979 103.569 39.4119 103.59 39.4178C103.611 39.4237 103.634 39.421 103.653 39.4103C104.113 39.2177 104.622 39.1758 105.107 39.2906C105.592 39.4054 106.028 39.671 106.353 40.0493C106.887 40.6651 107.352 41.3382 107.739 42.0563C107.883 42.2813 108.297 42.1283 108.189 41.8673V41.8043C107.973 38.4293 105.021 33.8933 101.376 33.8123Z" fill="#263238"/>
<mask id="mask2_253_506" style="mask-type:luminance" maskUnits="userSpaceOnUse" x="89" y="0" width="64" height="69">
<path d="M152.163 61.0282H149.562C149.301 57.7072 147.195 52.6312 147.762 55.1962C148.1 57.1206 148.214 59.0775 148.104 61.0282H140.004C137.581 63.0943 134.848 64.7649 131.904 65.9782C130.179 66.6982 128.389 67.2498 126.558 67.6252C124.471 68.0817 122.34 68.311 120.204 68.3092C117.719 68.3095 115.244 68.0073 112.833 67.4092C109.819 66.6606 106.94 65.4459 104.301 63.8092C102.932 62.9903 101.637 62.0538 100.431 61.0102H97.7308C97.6172 60.1149 97.59 59.2107 97.6497 58.3102C97.3797 57.9952 97.1188 57.6982 96.8578 57.4102C96.5698 58.7242 96.3628 60.0382 96.2188 61.0102H91.4578C91.403 57.7826 91.9211 54.5709 92.9878 51.5242C90.0602 45.7185 89.0646 39.1292 90.1461 32.7178C91.2277 26.3063 94.3297 20.4083 98.9997 15.8842C101.637 11.2222 105.381 9.0082 106.263 8.1892H106.308C112.023 -0.0998023 122.004 -1.4138 129.618 1.4122L129.816 1.47521C138.006 4.30121 143.766 12.2302 144.801 18.7102C144.864 19.1692 144.927 19.6102 144.99 20.0422C147.556 23.6051 149.32 27.6817 150.161 31.9915C151.001 36.3013 150.898 40.742 149.859 45.0082C152.568 52.3522 152.163 61.0282 152.163 61.0282Z" fill="white"/>
</mask>
<g mask="url(#mask2_253_506)">
<path d="M134.838 68.2283C134.487 69.9203 131.445 75.2663 126.252 77.1293C119.502 79.5683 106.875 71.9093 100.485 67.5623L100.368 67.4723C101.59 66.1505 102.911 64.923 104.319 63.8003C106.958 65.437 109.837 66.6517 112.851 67.4003C115.262 67.9984 117.737 68.3006 120.222 68.3003C122.358 68.3021 124.489 68.0728 126.576 67.6163C128.407 67.2409 130.197 66.6893 131.922 65.9693C132.938 66.6639 133.911 67.4182 134.838 68.2283Z" fill="#455A64"/>
<path d="M126.576 67.5803C126.513 70.5683 126.144 73.4933 125.064 73.6103C120.654 74.1143 115.839 70.4333 112.851 67.3643C115.262 67.9624 117.737 68.2646 120.222 68.2643C122.358 68.2661 124.489 68.0368 126.576 67.5803Z" fill="#DD6A57"/>
</g>
</svg>
