<svg width="650" height="500" viewBox="0 0 650 500" fill="none" xmlns="http://www.w3.org/2000/svg">
<path fill-rule="evenodd" clip-rule="evenodd" d="M601.283 47.7685C594.216 40.8396 584.632 36.947 574.638 36.947H75.3619C65.3683 36.947 55.784 40.8396 48.7175 47.7685C41.6509 54.6974 37.681 64.0951 37.681 73.894V436.935L113.043 363.041C127.173 349.183 146.338 341.395 166.324 341.39H574.638C584.632 341.39 594.216 337.498 601.283 330.569C608.349 323.64 612.319 314.242 612.319 304.443V73.894C612.319 64.0951 608.349 54.6974 601.283 47.7685ZM22.073 21.6431C36.2061 7.78524 55.3747 0 75.3619 0H574.638C594.625 0 613.794 7.78524 627.927 21.6431C642.06 35.5009 650 54.2961 650 73.894V304.443C650 324.041 642.06 342.836 627.927 356.694C613.794 370.552 594.625 378.337 574.638 378.337H166.324C156.331 378.34 146.748 382.234 139.683 389.163L32.1795 494.573C29.5468 497.161 26.1902 498.925 22.5346 499.641C18.879 500.358 15.0886 499.995 11.6434 498.599C8.19813 497.203 5.2528 494.835 3.18017 491.797C1.10754 488.759 0.000791861 485.186 0 481.53V73.894C0 54.2961 7.9399 35.5009 22.073 21.6431ZM110 130C101.716 130 95 136.716 95 145V235C95 243.284 101.716 250 110 250H200C208.284 250 215 243.284 215 235V145C215 136.716 208.284 130 200 130H110ZM280 130C271.716 130 265 136.716 265 145V235C265 243.284 271.716 250 280 250H370C378.284 250 385 243.284 385 235V145C385 136.716 378.284 130 370 130H280ZM435 145C435 136.716 441.716 130 450 130H540C548.284 130 555 136.716 555 145V235C555 243.284 548.284 250 540 250H450C441.716 250 435 243.284 435 235V145Z" fill="#2DD4BF"/>
</svg>
